<svg width="40" height="40" viewBox="0 0 40 40" fill="none" xmlns="http://www.w3.org/2000/svg">
<circle cx="20" cy="20" r="20" fill="#F5F9FE"/>
<path d="M26.325 11H23.55C23.3843 11 23.25 11.1343 23.25 11.3V28.7C23.25 28.8657 23.3843 29 23.55 29H26.325C26.4907 29 26.625 28.8657 26.625 28.7V11.3C26.625 11.1343 26.4907 11 26.325 11Z" fill="#027AFD"/>
<path d="M20.7 16.625H17.925C17.7593 16.625 17.625 16.7593 17.625 16.925V28.7C17.625 28.8657 17.7593 29 17.925 29H20.7C20.8657 29 21 28.8657 21 28.7V16.925C21 16.7593 20.8657 16.625 20.7 16.625Z" fill="#027AFD"/>
<path d="M15.075 22.25H12.3C12.1343 22.25 12 22.3843 12 22.55V28.7C12 28.8657 12.1343 29 12.3 29H15.075C15.2407 29 15.375 28.8657 15.375 28.7V25.625V22.55C15.375 22.3843 15.2407 22.25 15.075 22.25Z" fill="#027AFD"/>
</svg>
