<svg width="40" height="40" viewBox="0 0 40 40" fill="none" xmlns="http://www.w3.org/2000/svg">
<circle cx="20" cy="20" r="20" fill="#F5F9FE"/>
<path d="M28.6872 14.485C27.3458 14.485 26.282 15.5829 26.282 16.9144C26.282 16.9844 26.282 17.0779 26.282 17.1479L22.4659 18.5028C22.3502 18.3159 22.2115 18.129 22.0496 17.9655C21.6564 17.5684 21.1707 17.3115 20.6619 17.218V13.5506C21.3789 13.317 21.8877 12.6162 21.8877 11.822C21.8877 10.8176 21.0782 10 20.0837 10C19.0892 10 18.2797 10.8176 18.2797 11.822C18.2797 12.6396 18.7886 13.317 19.5055 13.5506V17.1947C18.9967 17.3115 18.511 17.545 18.1179 17.9422L18.0947 17.9655L14.6718 15.7464C14.7643 15.4894 14.8106 15.2325 14.8106 14.9522C14.8106 13.5973 13.7236 12.5228 12.4053 12.5228C11.087 12.5228 10 13.6207 10 14.9522C10 16.2836 11.087 17.3815 12.4053 17.3815C13.0529 17.3815 13.6311 17.1246 14.0705 16.7041L17.4934 18.9232C17.3315 19.3671 17.2852 19.8343 17.3546 20.3014L13.3767 21.7264C13.0529 21.3059 12.521 21.0256 11.9428 21.0256C10.9483 21.0256 10.1388 21.8432 10.1388 22.8476C10.1388 23.8521 10.9483 24.6696 11.9428 24.6696C12.9373 24.6696 13.7467 23.8521 13.7467 22.8476C13.7467 22.8242 13.7467 22.8243 13.7467 22.8243L17.7247 21.376C17.8403 21.5395 17.9559 21.703 18.0947 21.8432C18.3029 22.0534 18.5341 22.2169 18.7885 22.3571L17.794 26.1413C17.7709 26.1413 17.7709 26.1413 17.7478 26.1413C16.4064 26.1413 15.3425 27.2392 15.3425 28.5706C15.3425 29.9021 16.4295 31 17.7478 31C19.0661 31 20.1531 29.9021 20.1531 28.5706C20.1531 27.6596 19.6443 26.842 18.9042 26.4449L19.8987 22.6607C19.9449 22.6607 19.9912 22.6607 20.0606 22.6607C20.5925 22.6607 21.1013 22.5206 21.5639 22.2169L24.2467 24.9733C24.1311 25.2303 24.0617 25.5106 24.0617 25.7909C24.0617 26.2814 24.2467 26.7486 24.5936 27.0756C24.9405 27.426 25.4031 27.6129 25.8657 27.6129C26.3282 27.6129 26.8139 27.426 27.1377 27.0756C27.4846 26.7253 27.6696 26.2581 27.6696 25.7909C27.6696 25.3237 27.4846 24.8331 27.1377 24.5061C26.7908 24.1557 26.3282 23.9689 25.8657 23.9689C25.5881 23.9689 25.3106 24.0389 25.0562 24.1557L22.3502 21.3993C22.7203 20.8387 22.859 20.1846 22.7665 19.5306L26.5826 18.1757C27.022 18.8298 27.7621 19.2736 28.5947 19.2736C29.9361 19.2736 31 18.1758 31 16.8443C31 15.5128 30.0055 14.485 28.6872 14.485Z" fill="#027AFD"/>
</svg>
