<svg width="40" height="40" viewBox="0 0 40 40" fill="none" xmlns="http://www.w3.org/2000/svg">
<circle cx="20" cy="20" r="20" fill="#F5F9FE"/>
<path d="M28.6462 14.4884C27.3077 14.4884 26.2462 15.5814 26.2462 16.907C26.2462 16.9767 26.2462 17.0698 26.2462 17.1395L22.4385 18.4884C22.3231 18.3023 22.1846 18.1163 22.0231 17.9535C21.6308 17.5581 21.1693 17.3023 20.6385 17.2093V13.5349C21.3539 13.3023 21.8616 12.6047 21.8616 11.814C21.8616 10.814 21.0539 10 20.0616 10C19.0693 10 18.2615 10.814 18.2615 11.814C18.2615 12.6279 18.7693 13.3023 19.4846 13.5349V17.186C18.9769 17.3023 18.4923 17.5581 18.1 17.9302L18.0769 17.9535L14.6615 15.7442C14.7538 15.4884 14.8 15.2326 14.8 14.9535C14.8 13.6047 13.7154 12.5349 12.4 12.5349C11.0846 12.5349 10 13.6279 10 14.9535C10 16.2791 11.0846 17.3721 12.4 17.3721C13.0462 17.3721 13.6231 17.1163 14.0616 16.6977L17.477 18.907C17.3616 19.2093 17.3154 19.5349 17.3154 19.8605C17.3154 20 17.3385 20.1395 17.3385 20.2791L13.3693 21.6977C13.0462 21.2791 12.5154 21 11.9615 21C10.9692 21 10.1615 21.814 10.1615 22.814C10.1615 23.814 10.9692 24.6279 11.9615 24.6279C12.9538 24.6279 13.7615 23.814 13.7615 22.814C13.7615 22.7907 13.7615 22.7907 13.7615 22.7674L17.7308 21.3256C17.8462 21.4884 17.9616 21.6512 18.1 21.7907C18.3077 22 18.5385 22.1628 18.7923 22.3023L17.8 26.1628C17.7769 26.1628 17.7769 26.1628 17.7539 26.1628C16.4154 26.1628 15.3538 27.2558 15.3538 28.5814C15.3538 29.907 16.4385 31 17.7539 31C19.0693 31 20.1538 29.907 20.1538 28.5814C20.1538 27.6744 19.6462 26.8605 18.9077 26.4651L19.9 22.6977C19.9462 22.6977 19.9923 22.6977 20.0616 22.6977C20.5923 22.6977 21.1 22.5581 21.5616 22.2558L24.2615 25C23.9154 25.6744 24.0308 26.5349 24.6077 27.093C24.9539 27.4419 25.4154 27.6279 25.8769 27.6279C26.3385 27.6279 26.8 27.4419 27.1462 27.093C27.8615 26.3721 27.8615 25.2326 27.1462 24.5116C26.5923 23.9535 25.7385 23.8372 25.0692 24.1628L22.3693 21.4186C22.6693 20.9767 22.8077 20.4419 22.8077 19.907C22.8077 19.7907 22.8077 19.6744 22.7846 19.5581L26.5923 18.2093C27.0308 18.8605 27.7693 19.3023 28.6 19.3023C29.9385 19.3023 31 18.2093 31 16.8837C31 15.5581 29.9615 14.4884 28.6462 14.4884ZM12.4 16.2791C11.7077 16.2791 11.1538 15.7209 11.1538 15.0233C11.1538 14.3256 11.7077 13.7674 12.4 13.7674C13.0923 13.7674 13.6462 14.3256 13.6462 15.0233C13.6462 15.7209 13.0923 16.2791 12.4 16.2791ZM11.9615 23.5581C11.5923 23.5581 11.3154 23.2558 11.3154 22.907C11.3154 22.5581 11.6154 22.2558 11.9615 22.2558C12.3308 22.2558 12.6077 22.5581 12.6077 22.907C12.6077 23.2558 12.3308 23.5581 11.9615 23.5581ZM17.7539 29.8605C17.0616 29.8605 16.5077 29.3023 16.5077 28.6046C16.5077 27.907 17.0616 27.3488 17.7539 27.3488C18.4462 27.3488 19 27.907 19 28.6046C19 29.3023 18.4462 29.8605 17.7539 29.8605ZM20.0846 11.1628C20.4538 11.1628 20.7308 11.4651 20.7308 11.814C20.7308 12.1628 20.4308 12.4651 20.0846 12.4651C19.7385 12.4651 19.4385 12.1628 19.4385 11.814C19.4385 11.4651 19.7154 11.1628 20.0846 11.1628ZM18.9308 21.0698C18.6308 20.7674 18.4692 20.3488 18.4692 19.9302C18.4692 19.4884 18.6308 19.093 18.9308 18.7907C19.2308 18.4884 19.6462 18.3256 20.0616 18.3256C20.5 18.3256 20.8923 18.4884 21.1923 18.7907C21.4923 19.093 21.6538 19.5116 21.6538 19.9302C21.6538 20.3721 21.4923 20.7674 21.1923 21.0698C20.5923 21.6977 19.5538 21.6977 18.9308 21.0698ZM26.3385 25.3488C26.5923 25.6046 26.5923 26.0233 26.3385 26.2791C26.0846 26.5349 25.6692 26.5349 25.4154 26.2791C25.1616 26.0233 25.1616 25.6046 25.4154 25.3488C25.6692 25.093 26.0846 25.093 26.3385 25.3488ZM28.6462 18.186C28.1154 18.186 27.6538 17.8372 27.4692 17.3721V17.3488C27.4692 17.3256 27.4462 17.3256 27.4462 17.3023C27.4 17.186 27.4 17.0465 27.4 16.9302C27.4 16.2326 27.9539 15.6744 28.6462 15.6744C29.3385 15.6744 29.8923 16.2326 29.8923 16.9302C29.8923 17.6279 29.3385 18.186 28.6462 18.186Z" fill="#027AFD"/>
</svg>
