<svg width="40" height="40" viewBox="0 0 40 40" fill="none" xmlns="http://www.w3.org/2000/svg">
<circle cx="20" cy="20" r="20" fill="#F5F9FE"/>
<path d="M28.5972 27.7057L20.7489 11.5606C20.592 11.2242 20.2332 11 19.852 11C19.4708 11 19.1344 11.2242 18.955 11.5606L11.1067 27.7057C10.9049 28.1093 10.9946 28.5578 11.331 28.8717C11.6449 29.1632 12.1158 29.2305 12.497 29.0062L19.852 24.7457L27.207 29.0062C27.3639 29.0959 27.5433 29.1408 27.7003 29.1408C27.9469 29.1408 28.1936 29.0511 28.373 28.8717C28.6869 28.5578 28.7766 28.1093 28.5972 27.7057ZM20.3453 23.7367C20.0314 23.5573 19.6502 23.5573 19.3587 23.7367L12.2952 27.8178L19.852 12.2782L27.4088 27.8178L20.3453 23.7367Z" fill="#027AFD"/>
</svg>
