<svg width="40" height="40" viewBox="0 0 40 40" fill="none" xmlns="http://www.w3.org/2000/svg">
<circle cx="20" cy="20" r="20" fill="#F5F9FE"/>
<path d="M32.7557 14.5296C32.7557 14.5072 32.7557 14.5072 32.7557 14.4847C32.7557 14.4399 32.7333 14.395 32.7108 14.3502C32.6884 14.3054 32.666 14.2605 32.6436 14.2381C32.6436 14.2381 32.6436 14.2381 32.6436 14.2157L29.3249 10.2018C29.2128 10.0673 29.0558 10 28.8988 10H11.8569C11.6999 10 11.5205 10.0673 11.4308 10.2018L8.11212 14.2157C8.11212 14.2157 8.11212 14.2157 8.11212 14.2381C8.08969 14.2829 8.06726 14.3054 8.04484 14.3502C8.02241 14.395 8.02242 14.4399 8 14.4847C8 14.5072 8 14.5072 8 14.5296C8 14.552 8 14.552 8 14.5744V17.6241C8 17.938 8.24666 18.1847 8.56059 18.1847H9.1436V29.5983C9.1436 29.9123 9.39026 30.1589 9.70419 30.1589H31.0963C31.4103 30.1589 31.6569 29.9123 31.6569 29.5983V18.1847H32.2399C32.5539 18.1847 32.8005 17.938 32.8005 17.6241V14.5744C32.7781 14.552 32.7557 14.552 32.7557 14.5296ZM12.1035 11.1212H28.6073L31.0066 14.0138H9.70419L12.1035 11.1212ZM19.7948 29.0377H15.8707V21.1446H19.7948V29.0377ZM20.916 29.0377V21.1446H24.8401V29.0377H20.916ZM30.5133 29.0377H25.9837V20.584C25.9837 20.2701 25.7371 20.0234 25.4232 20.0234H15.3325C15.0186 20.0234 14.7719 20.2701 14.7719 20.584V29.0377H10.2424V18.1847H30.5133V29.0377ZM31.6569 17.0635H9.09876V15.135H31.6569V17.0635Z" fill="#027AFD"/>
</svg>
