<svg width="40" height="40" viewBox="0 0 40 40" fill="none" xmlns="http://www.w3.org/2000/svg">
<circle cx="20" cy="20" r="20" fill="#F5F9FE"/>
<path d="M27.5129 18.7186H19.5973V10.803C19.5973 10.4891 19.3507 10.2424 19.0367 10.2424C14.0587 10.2424 10 14.3011 10 19.2792C10 24.2573 14.0587 28.3159 19.0367 28.3159C24.0148 28.3159 28.0735 24.2573 28.0735 19.2792C28.0735 18.9653 27.8268 18.7186 27.5129 18.7186ZM19.0367 27.1948C14.6641 27.1948 11.1212 23.6518 11.1212 19.2792C11.1212 15.1084 14.3726 11.6775 18.4761 11.386V19.2792C18.4761 19.5931 18.7228 19.8398 19.0367 19.8398H26.9299C26.6383 23.9433 23.2075 27.1948 19.0367 27.1948Z" fill="#027AFD"/>
<path d="M22.2568 7C21.9428 7 21.6962 7.24666 21.6962 7.56059V16.0368C21.6962 16.3507 21.9428 16.5974 22.2568 16.5974H30.7329C31.0469 16.5974 31.2935 16.3507 31.2935 16.0368C31.2935 11.0587 27.2348 7 22.2568 7ZM22.8174 15.4986V8.14361C26.7415 8.41269 29.8808 11.552 30.1499 15.4762H22.8174V15.4986Z" fill="#027AFD"/>
</svg>
