<svg width="40" height="40" viewBox="0 0 40 40" fill="none" xmlns="http://www.w3.org/2000/svg">
<circle cx="20" cy="20" r="20" fill="#F5F9FE"/>
<path d="M29.576 20.472C29.7329 20.2702 29.7329 19.9787 29.576 19.7769C29.5311 19.732 28.5445 18.4763 26.9524 17.2206C24.8221 15.5388 22.5797 14.6418 20.5168 14.6418C18.4538 14.6418 16.2114 15.5388 14.0811 17.2206C12.4891 18.4763 11.5024 19.732 11.4576 19.7769C11.3006 19.9787 11.3006 20.2702 11.4576 20.472C11.5024 20.5169 12.4891 21.7726 14.0811 23.0283C16.2114 24.7101 18.4538 25.607 20.5168 25.607C22.5797 25.607 24.8221 24.7101 26.9524 23.0283C28.5445 21.7726 29.5311 20.5169 29.576 20.472ZM12.646 20.1357C13.6102 19.0369 16.8168 15.763 20.5168 15.763C24.2167 15.763 27.4457 19.0369 28.3875 20.1357C27.4233 21.2344 24.2167 24.5083 20.5168 24.5083C16.8168 24.4859 13.6102 21.212 12.646 20.1357Z" fill="#027AFD"/>
<path d="M20.5167 17.1755C18.9022 17.1755 17.5792 18.4985 17.5792 20.113C17.5792 21.7276 18.9022 23.0506 20.5167 23.0506C22.1312 23.0506 23.4542 21.7276 23.4542 20.113C23.4542 18.4985 22.1312 17.1755 20.5167 17.1755ZM20.5167 21.9518C19.5076 21.9518 18.7004 21.1445 18.7004 20.1355C18.7004 19.1264 19.5076 18.3191 20.5167 18.3191C21.5258 18.3191 22.333 19.1264 22.333 20.1355C22.333 21.1221 21.5258 21.9518 20.5167 21.9518Z" fill="#027AFD"/>
<path d="M29.688 10H26.7281C26.4141 10 26.1675 10.2467 26.1675 10.5606C26.1675 10.8745 26.4141 11.1212 26.7281 11.1212H29.1274V13.5205C29.1274 13.8345 29.3741 14.0811 29.688 14.0811C30.0019 14.0811 30.2486 13.8345 30.2486 13.5205V10.5606C30.2486 10.2691 30.0019 10 29.688 10Z" fill="#027AFD"/>
<path d="M29.688 26.1675C29.3741 26.1675 29.1274 26.4141 29.1274 26.7281V29.1274H26.7281C26.4141 29.1274 26.1675 29.3741 26.1675 29.688C26.1675 30.0019 26.4141 30.2486 26.7281 30.2486H29.688C30.0019 30.2486 30.2486 30.0019 30.2486 29.688V26.7281C30.2486 26.4366 30.0019 26.1675 29.688 26.1675Z" fill="#027AFD"/>
<path d="M13.5205 29.1274H11.1212V26.7281C11.1212 26.4141 10.8745 26.1675 10.5606 26.1675C10.2467 26.1675 10 26.4141 10 26.7281V29.688C10 30.0019 10.2467 30.2486 10.5606 30.2486H13.5205C13.8345 30.2486 14.0811 30.0019 14.0811 29.688C14.0811 29.3741 13.8345 29.1274 13.5205 29.1274Z" fill="#027AFD"/>
<path d="M10.5606 14.0811C10.8745 14.0811 11.1212 13.8345 11.1212 13.5205V11.1212H13.5205C13.8345 11.1212 14.0811 10.8745 14.0811 10.5606C14.0811 10.2467 13.8345 10 13.5205 10H10.5606C10.2467 10 10 10.2467 10 10.5606V13.5205C10 13.8345 10.2467 14.0811 10.5606 14.0811Z" fill="#027AFD"/>
</svg>
