<svg width="40" height="40" viewBox="0 0 40 40" fill="none" xmlns="http://www.w3.org/2000/svg">
<circle cx="20" cy="20" r="20" fill="#F5F9FE"/>
<path d="M32.2625 29.7014H8.56059C8.24666 29.7014 8 29.4547 8 29.1408V11.5606C8 11.2467 8.24666 11 8.56059 11H32.2625C32.5765 11 32.8231 11.2467 32.8231 11.5606V29.1408C32.8231 29.4547 32.5765 29.7014 32.2625 29.7014ZM9.14363 28.5802H31.7243V12.1212H9.14363V28.5802Z" fill="#027AFD"/>
<path d="M13.5611 26.7639C12.9781 26.7639 12.3951 26.5396 11.9466 26.0911C11.0497 25.1942 11.0497 23.7367 11.9466 22.8397C12.8436 21.9428 14.3011 21.9428 15.1981 22.8397C16.095 23.7367 16.095 25.1942 15.1981 26.0911C14.7272 26.5396 14.1442 26.7639 13.5611 26.7639ZM13.5611 23.2882C13.2696 23.2882 12.9557 23.4003 12.7315 23.6245C12.283 24.073 12.283 24.8354 12.7315 25.2839C13.1799 25.7324 13.9423 25.7324 14.3908 25.2839C14.8393 24.8354 14.8393 24.073 14.3908 23.6245C14.1441 23.4003 13.8526 23.2882 13.5611 23.2882Z" fill="#027AFD"/>
<path d="M27.2845 26.7639C26.7015 26.7639 26.1185 26.5396 25.67 26.0911C24.7731 25.1942 24.7731 23.7367 25.67 22.8397C26.567 21.9428 28.0245 21.9428 28.9215 22.8397C29.8184 23.7367 29.8184 25.1942 28.9215 26.0911C28.473 26.5396 27.8675 26.7639 27.2845 26.7639ZM27.2845 23.2882C26.993 23.2882 26.6791 23.4003 26.4549 23.6245C26.0064 24.073 26.0064 24.8354 26.4549 25.2839C26.9033 25.7324 27.6658 25.7324 28.1142 25.2839C28.5627 24.8354 28.5627 24.073 28.1142 23.6245C27.89 23.4003 27.5985 23.2882 27.2845 23.2882Z" fill="#027AFD"/>
<path d="M20.423 26.7639C19.8399 26.7639 19.2569 26.5396 18.8085 26.0911C17.9115 25.1942 17.9115 23.7367 18.8085 22.8397C19.7054 21.9428 21.1629 21.9428 22.0599 22.8397C22.9568 23.7367 22.9568 25.1942 22.0599 26.0911C21.589 26.5396 21.006 26.7639 20.423 26.7639ZM19.5933 25.3063C20.0418 25.7548 20.8041 25.7548 21.2526 25.3063C21.7011 24.8578 21.7011 24.0954 21.2526 23.647C20.8041 23.1985 20.0418 23.1985 19.5933 23.647C19.1224 24.0954 19.1224 24.8354 19.5933 25.3063Z" fill="#027AFD"/>
<path d="M14.6599 20.7768C12.7763 20.7768 11.2515 19.252 11.2515 17.3684C11.2515 15.4848 12.7763 13.96 14.6599 13.96C16.5435 13.96 18.0683 15.4848 18.0683 17.3684C18.0683 19.252 16.5435 20.7768 14.6599 20.7768ZM14.6599 15.0811C13.4042 15.0811 12.3726 16.1126 12.3726 17.3684C12.3726 18.6241 13.4042 19.6556 14.6599 19.6556C15.9156 19.6556 16.9471 18.6241 16.9471 17.3684C16.9471 16.0902 15.9381 15.0811 14.6599 15.0811Z" fill="#027AFD"/>
<path d="M29.0336 15.3502H20.4229C20.109 15.3502 19.8623 15.1035 19.8623 14.7896C19.8623 14.4757 20.109 14.229 20.4229 14.229H29.0336C29.3475 14.229 29.5942 14.4757 29.5942 14.7896C29.5942 15.1035 29.3251 15.3502 29.0336 15.3502Z" fill="#027AFD"/>
<path d="M29.0336 17.9288H20.4229C20.109 17.9288 19.8623 17.6821 19.8623 17.3682C19.8623 17.0543 20.109 16.8076 20.4229 16.8076H29.0336C29.3475 16.8076 29.5942 17.0543 29.5942 17.3682C29.5942 17.6821 29.3251 17.9288 29.0336 17.9288Z" fill="#027AFD"/>
<path d="M29.0336 20.3507H20.4229C20.109 20.3507 19.8623 20.104 19.8623 19.7901C19.8623 19.4762 20.109 19.2295 20.4229 19.2295H29.0336C29.3475 19.2295 29.5942 19.4762 29.5942 19.7901C29.5942 20.104 29.3251 20.3507 29.0336 20.3507Z" fill="#027AFD"/>
</svg>
