<svg width="40" height="40" viewBox="0 0 40 40" fill="none" xmlns="http://www.w3.org/2000/svg">
<circle cx="20" cy="20" r="20" fill="#F5F9FE"/>
<path d="M10.0224 13.4096L10 29.7116C10 29.891 10.0897 30.0704 10.2467 30.1825C10.4036 30.2946 10.6054 30.2946 10.7848 30.2273L16.5029 27.6935V10.1805L10.3588 12.9162C10.157 13.0059 10.0224 13.2077 10.0224 13.4096Z" fill="#027AFD"/>
<path d="M17.624 27.6935L22.9609 30.0928V12.5575L17.624 10.1805V27.6935Z" fill="#027AFD"/>
<path d="M30.3158 10.0908C30.1588 9.97864 29.957 9.97864 29.7776 10.0459L24.0596 12.5798V30.0927L30.2037 27.357C30.4055 27.2673 30.54 27.0655 30.54 26.8413L30.5624 10.5617C30.5624 10.3598 30.4728 10.1805 30.3158 10.0908Z" fill="#027AFD"/>
</svg>
