<svg width="40" height="40" viewBox="0 0 40 40" fill="none" xmlns="http://www.w3.org/2000/svg">
<circle cx="20" cy="20" r="20" fill="#F5F9FE"/>
<path d="M8 18.7629V27.0373C8 27.3512 8.24666 27.5979 8.56059 27.5979H30.7825C31.0964 27.5979 31.3431 27.3512 31.3431 27.0373V18.7629H8ZM13.2696 24.7052C12.126 24.7052 11.1842 23.7859 11.1842 22.6198C11.1842 21.4762 12.126 20.5568 13.2696 20.5568C14.4132 20.5568 15.3326 21.4986 15.3326 22.6198C15.355 23.7634 14.4132 24.7052 13.2696 24.7052Z" fill="#027AFD"/>
<path d="M31.074 17.6417H8.26904L11.5205 13.2242C11.6326 13.0897 11.7896 13 11.969 13H27.3965C27.5759 13 27.7328 13.0897 27.845 13.2242L31.074 17.6417Z" fill="#027AFD"/>
</svg>
