<svg width="40" height="40" viewBox="0 0 40 40" fill="none" xmlns="http://www.w3.org/2000/svg">
<circle cx="20" cy="20" r="20" fill="#F5F9FE"/>
<path d="M19.8172 21.1445H15.8931V30.1589H19.8172V21.1445Z" fill="#027AFD"/>
<path d="M24.8401 21.1445H20.916V30.1589H24.8401V21.1445Z" fill="#027AFD"/>
<path d="M9.12134 29.5982C9.12134 29.9122 9.368 30.1588 9.68193 30.1588H14.7721V20.5839C14.7721 20.27 15.0188 20.0233 15.3327 20.0233H25.4234C25.7373 20.0233 25.984 20.27 25.984 20.5839V30.1588H31.0966C31.4105 30.1588 31.6572 29.9122 31.6572 29.5982V18.1846H9.14376V29.5982H9.12134Z" fill="#027AFD"/>
<path d="M32.7558 14.5296C32.7558 14.5072 32.7558 14.5072 32.7558 14.4847C32.7558 14.4399 32.7334 14.395 32.7109 14.3502C32.6885 14.3054 32.6661 14.2605 32.6437 14.2381V14.2157L29.325 10.2018C29.2128 10.0673 29.0559 10 28.8989 10H11.8569C11.6775 10 11.543 10.0673 11.4308 10.2018L8.11212 14.2157C8.11212 14.2157 8.11212 14.2157 8.11212 14.2381C8.08969 14.2829 8.06726 14.3054 8.04484 14.3502C8.02241 14.395 8.02242 14.4399 8 14.4847C8 14.5072 8 14.5072 8 14.5296C8 14.552 8 14.552 8 14.5744V17.0635H32.7782V14.5744C32.7782 14.5744 32.7558 14.552 32.7558 14.5296Z" fill="#027AFD"/>
</svg>
