<svg width="40" height="40" viewBox="0 0 40 40" fill="none" xmlns="http://www.w3.org/2000/svg">
<circle cx="20" cy="20" r="20" fill="#F5F9FE"/>
<path d="M28.7368 14.9461L20.294 10.069C20.11 9.977 19.9029 9.977 19.7189 10.069L11.2991 14.9461C11.115 15.0611 11 15.2451 11 15.4522V25.2063C11 25.4133 11.115 25.5973 11.2761 25.7124L19.7189 30.5894C19.8109 30.6354 19.9029 30.6584 19.9949 30.6584C20.0869 30.6584 20.202 30.6354 20.271 30.5894L28.7138 25.7124C28.8978 25.6203 28.9899 25.4133 28.9899 25.2063V15.4522C29.0359 15.2451 28.9208 15.0611 28.7368 14.9461ZM20.0179 11.2423L27.3105 15.4522L20.0179 19.6621L12.7254 15.4522L20.0179 11.2423ZM12.1502 16.4414L19.4428 20.6513V29.0711L12.1502 24.8612V16.4414ZM20.5931 29.0711V20.6513L27.8856 16.4414V24.8612L20.5931 29.0711Z" fill="#027AFD"/>
</svg>
