<svg width="40" height="40" viewBox="0 0 40 40" fill="none" xmlns="http://www.w3.org/2000/svg">
<circle cx="20" cy="20" r="20" fill="#F5F9FE"/>
<path d="M19.9424 9C16.3702 9 13.4763 11.864 13.4763 15.3994C13.4763 16.8538 14.5163 19.0465 16.5285 21.933C16.5737 22.0001 16.6415 22.0672 16.6868 22.1567C18.1111 24.1481 19.4676 25.7144 19.5355 25.7815C19.6485 25.9158 19.8068 25.9829 19.965 25.9829C20.1233 25.9829 20.2816 25.9158 20.3946 25.7815C20.4624 25.7144 21.819 24.1481 23.2433 22.1567C23.2885 22.0896 23.3338 22.0225 23.4016 21.933C25.4364 19.0465 26.4538 16.8538 26.4538 15.3994C26.4312 11.864 23.5146 9 19.9424 9ZM19.9424 17.4579C18.6085 17.4579 17.5233 16.3839 17.5233 15.0637C17.5233 13.7436 18.6085 12.6696 19.9424 12.6696C21.2764 12.6696 22.3842 13.7436 22.3842 15.0637C22.3842 16.3839 21.2764 17.4579 19.9424 17.4579Z" fill="#027AFD"/>
<path d="M32.7616 28.4444C32.5581 28.9143 32.0834 29.2051 31.5634 29.2051H8.32153C7.80153 29.2051 7.34935 28.9143 7.12326 28.4444C6.89717 27.9745 6.98761 27.4375 7.34935 27.0571L11.0346 22.9624C11.5094 22.4478 12.165 22.1345 12.8885 22.1345H15.3076C15.3981 22.2688 15.5111 22.4254 15.6016 22.5597C17.139 24.7524 18.6537 26.4753 18.6764 26.4977C18.9929 26.8781 19.4677 27.0795 19.9651 27.0795C20.4624 27.0795 20.9372 26.8557 21.2538 26.4977C21.2538 26.4977 22.7685 24.7524 24.3059 22.582C24.3964 22.4478 24.5094 22.2911 24.5999 22.1569H27.019C27.7199 22.1569 28.3981 22.4478 28.8503 22.9848L32.5355 27.0795C32.8973 27.4375 32.9651 27.9745 32.7616 28.4444Z" fill="#027AFD"/>
</svg>
