<svg width="40" height="40" viewBox="0 0 40 40" fill="none" xmlns="http://www.w3.org/2000/svg">
<circle cx="20" cy="20" r="20" fill="#F5F9FE"/>
<path d="M20 9C15.5894 9 12 12.5894 12 17C12 21.2698 19.2493 29.7155 19.5543 30.0674C19.6716 30.2082 19.8358 30.2786 20 30.2786C20.1642 30.2786 20.3284 30.2082 20.4457 30.0674C20.7507 29.7155 28 21.2463 28 17C28 12.5894 24.4105 9 20 9ZM20 28.7771C19.3431 27.9795 18.0528 26.3842 16.7859 24.5542C14.4399 21.1759 13.173 18.5718 13.173 17C13.173 13.2463 16.2463 10.173 20 10.173C23.7537 10.173 26.827 13.2463 26.827 17C26.827 18.5484 25.5836 21.1525 23.2375 24.5308C21.9472 26.3607 20.6569 27.9795 20 28.7771Z" fill="#027AFD"/>
<path d="M19.9999 13.6217C18.3812 13.6217 17.0674 14.9355 17.0674 16.5543C17.0674 18.173 18.3812 19.4633 19.9999 19.4633C21.6187 19.4633 22.9325 18.1496 22.9325 16.5308C22.9325 14.912 21.6187 13.6217 19.9999 13.6217ZM19.9999 18.2903C19.0381 18.2903 18.2404 17.5161 18.2404 16.5308C18.2404 15.5455 19.0146 14.7713 19.9999 14.7713C20.9853 14.7713 21.7595 15.5455 21.7595 16.5308C21.7595 17.5161 20.9618 18.2903 19.9999 18.2903Z" fill="#027AFD"/>
</svg>
