<svg width="40" height="40" viewBox="0 0 40 40" fill="none" xmlns="http://www.w3.org/2000/svg">
<circle cx="20" cy="20" r="20" fill="#F5F9FE"/>
<path d="M28.5513 14.3911C25.8156 10.3773 20.4115 8.87489 15.9941 10.893C13.3705 12.0815 11.4421 14.2342 10.5227 16.9474C9.62575 19.6159 9.89482 22.5758 11.2402 25.0424C12.9669 28.1817 16.2632 30.2223 19.8509 30.3344C19.8734 30.3344 19.8958 30.3344 19.8958 30.3344C20.3218 30.3344 20.7255 30.1774 21.017 29.8859C21.3309 29.572 21.5327 29.1459 21.5327 28.6975L21.6 23.7642C21.6 23.4727 21.8018 23.3382 21.8691 23.2933C21.9588 23.2485 22.1606 23.1588 22.4072 23.3158L26.6005 25.9393C26.9817 26.186 27.4301 26.2533 27.8562 26.1412C28.3047 26.029 28.6635 25.76 28.9101 25.3563C30.9507 21.9031 30.8161 17.7098 28.5513 14.3911ZM27.9683 24.7733C27.901 24.9079 27.7665 24.9975 27.632 25.0424C27.4974 25.0872 27.3405 25.0424 27.2283 24.9751L23.0351 22.3515C22.5194 22.0376 21.8915 22.0152 21.3757 22.3067C20.8376 22.5982 20.5237 23.1364 20.5237 23.7418L20.4564 28.675C20.4564 28.832 20.3891 28.9665 20.2994 29.0562C20.1873 29.1459 20.0752 29.2132 19.9182 29.1908C16.734 29.0787 13.7965 27.2848 12.2717 24.4818C11.0609 22.2843 10.8366 19.6607 11.6214 17.2838C12.4287 14.862 14.1553 12.956 16.4874 11.9021C17.6534 11.3639 18.9092 11.1173 20.1649 11.1173C23.08 11.1173 25.9502 12.53 27.6768 15.019C29.6501 17.9789 29.7622 21.7237 27.9683 24.7733Z" fill="#027AFD"/>
<path d="M13.9311 20.1764C14.088 20.2213 14.245 20.2437 14.402 20.2437C15.1419 20.2437 15.8371 19.7504 16.0613 19.0104C16.1958 18.5619 16.151 18.1134 15.9268 17.7098C15.7025 17.3062 15.3438 17.0147 14.8953 16.8801C14.4468 16.7456 13.9983 16.7904 13.5947 17.0147C13.1911 17.2389 12.8996 17.5977 12.7651 18.0462C12.496 18.9655 13.0341 19.9073 13.9311 20.1764ZM13.8414 18.3601C13.8862 18.2031 13.9983 18.091 14.1329 18.0013C14.2226 17.9565 14.3123 17.934 14.4244 17.934C14.4917 17.934 14.5365 17.934 14.6038 17.9565C14.7607 18.0013 14.8729 18.1134 14.9626 18.248C15.0298 18.3825 15.0523 18.5395 15.0074 18.6964C14.9177 19.0104 14.5814 19.1898 14.2674 19.1001C13.9311 19.0104 13.7517 18.674 13.8414 18.3601Z" fill="#027AFD"/>
<path d="M14.0881 21.7238C13.2584 22.1723 12.9445 23.2262 13.4154 24.0559C13.7293 24.6164 14.3123 24.9528 14.9177 24.9528C15.1868 24.9528 15.4783 24.8855 15.7474 24.751C16.5771 24.3025 16.891 23.2486 16.4201 22.4189C15.9717 21.5668 14.9177 21.2753 14.0881 21.7238ZM15.2092 23.7643C14.9177 23.9213 14.559 23.8092 14.402 23.5177C14.245 23.2262 14.3571 22.8674 14.6487 22.7104C14.9402 22.5535 15.2989 22.6656 15.4559 22.9571C15.5905 23.2262 15.5008 23.6074 15.2092 23.7643Z" fill="#027AFD"/>
<path d="M16.5547 13.3598C15.7251 13.8083 15.4111 14.8622 15.882 15.6918C16.196 16.2524 16.779 16.5888 17.3844 16.5888C17.6535 16.5888 17.945 16.5215 18.2141 16.387C18.6177 16.1627 18.9092 15.804 19.0438 15.3555C19.1783 14.907 19.1335 14.4585 18.9092 14.0549C18.4159 13.2028 17.3844 12.9113 16.5547 13.3598ZM17.945 15.0416C17.9002 15.1985 17.7881 15.3106 17.6535 15.4003C17.362 15.5573 17.0032 15.4452 16.8462 15.1537C16.6893 14.8622 16.8014 14.5034 17.0929 14.3464C17.3844 14.1895 17.7432 14.3016 17.9002 14.5931C17.9674 14.7276 17.9899 14.8846 17.945 15.0416Z" fill="#027AFD"/>
<path d="M22.5417 12.7092C22.0932 12.5747 21.6448 12.6195 21.2411 12.8438C20.8375 13.068 20.546 13.4268 20.4115 13.8753C20.1424 14.7946 20.6581 15.7364 21.5775 16.0055C21.7345 16.0504 21.8914 16.0728 22.0484 16.0728C22.7884 16.0728 23.4835 15.5795 23.7077 14.8395C23.9768 13.9201 23.4611 12.9783 22.5417 12.7092ZM22.6314 14.5255C22.5417 14.8395 22.2053 15.0189 21.8914 14.9292C21.5775 14.8395 21.3981 14.5031 21.4878 14.1892C21.5326 14.0322 21.6448 13.9201 21.7793 13.8304C21.9138 13.7631 22.0708 13.7407 22.2278 13.7856C22.5417 13.8753 22.7211 14.2116 22.6314 14.5255Z" fill="#027AFD"/>
<path d="M26.2417 15.6692C25.7932 15.5346 25.3448 15.5795 24.9411 15.8037C24.5375 16.028 24.246 16.3867 24.1114 16.8352C23.9769 17.2837 24.0217 17.7322 24.246 18.1358C24.4702 18.5394 24.829 18.8309 25.2775 18.9655C25.4345 19.0103 25.5914 19.0327 25.7708 19.0327C26.0623 19.0327 26.3314 18.9655 26.6005 18.8309C27.4302 18.3825 27.7441 17.3285 27.2732 16.4989C27.049 16.0728 26.6678 15.7813 26.2417 15.6692ZM26.0399 17.8219C25.9053 17.8891 25.7484 17.9116 25.5914 17.8667C25.4344 17.8219 25.3223 17.7097 25.2326 17.5752C25.1654 17.4407 25.1429 17.2837 25.1878 17.1267C25.2326 16.9698 25.3448 16.8576 25.4793 16.7679C25.569 16.7231 25.6587 16.7007 25.7708 16.7007C25.8381 16.7007 25.8829 16.7007 25.9502 16.7231C26.1072 16.7679 26.2193 16.8801 26.309 17.0146C26.4435 17.3061 26.3314 17.6649 26.0399 17.8219Z" fill="#027AFD"/>
</svg>
