<svg width="40" height="40" viewBox="0 0 40 40" fill="none" xmlns="http://www.w3.org/2000/svg">
<circle cx="20" cy="20" r="20" fill="#F5F9FE"/>
<path d="M28.5513 14.3911C25.8156 10.3773 20.4115 8.87489 15.9941 10.893C13.3705 12.0815 11.4421 14.2342 10.5227 16.9474C9.62575 19.6159 9.89482 22.5758 11.2402 25.0424C12.9669 28.1817 16.2632 30.2223 19.8509 30.3344H19.8958C20.3218 30.3344 20.7255 30.1774 21.017 29.8859C21.3533 29.572 21.5327 29.1459 21.5327 28.6975L21.6 23.7642C21.6 23.4727 21.8018 23.3382 21.8691 23.2933C21.9588 23.2485 22.1606 23.1588 22.4072 23.3158L26.6005 25.9393C26.9817 26.186 27.4301 26.2533 27.8562 26.1412C28.3047 26.029 28.6635 25.76 28.9101 25.3563C30.9507 21.9031 30.8161 17.7098 28.5513 14.3911ZM12.7651 18.0462C12.9893 17.3062 13.662 16.8129 14.4244 16.8129C14.5814 16.8129 14.7383 16.8353 14.8953 16.8802C15.8147 17.1492 16.3304 18.1135 16.0613 19.0104C15.9268 19.4589 15.6353 19.8177 15.2317 20.0419C14.985 20.1764 14.6935 20.2437 14.402 20.2437C14.245 20.2437 14.0656 20.2213 13.9087 20.1764C13.4602 20.0419 13.1014 19.7504 12.8772 19.3468C12.6978 18.9431 12.6305 18.4722 12.7651 18.0462ZM15.7474 24.7285C15.4783 24.863 15.2092 24.9303 14.9177 24.9303C14.3123 24.9303 13.7068 24.6163 13.4153 24.0333C12.9669 23.2036 13.2584 22.1497 14.0881 21.7013C14.9177 21.2528 15.9716 21.5443 16.4201 22.374C16.891 23.2261 16.5771 24.28 15.7474 24.7285ZM18.1916 16.3644C17.9225 16.499 17.6534 16.5662 17.3619 16.5662C16.7565 16.5662 16.151 16.2523 15.8595 15.6693C15.6353 15.2657 15.5904 14.7948 15.725 14.3687C15.8595 13.9202 16.151 13.5614 16.5547 13.3372C16.9583 13.113 17.4292 13.0681 17.8552 13.2027C18.3037 13.3372 18.6625 13.6287 18.8867 14.0323C19.3352 14.862 19.0213 15.9159 18.1916 16.3644ZM23.7078 14.8172C23.4836 15.5572 22.8109 16.0505 22.0485 16.0505C21.8915 16.0505 21.7345 16.0281 21.5776 15.9832C20.6582 15.7141 20.1424 14.7499 20.4115 13.853C20.5461 13.4045 20.8376 13.0457 21.2412 12.8215C21.6448 12.5972 22.1157 12.5524 22.5418 12.6869C22.9903 12.8215 23.349 13.113 23.5733 13.5166C23.7975 13.9202 23.8424 14.3911 23.7078 14.8172ZM27.4077 17.7771C27.2732 18.2256 26.9817 18.5844 26.578 18.8086C26.309 18.9431 26.0399 19.0104 25.7484 19.0104C25.1429 19.0104 24.5599 18.6965 24.246 18.1135C24.0217 17.7098 23.9769 17.2389 24.1114 16.8129C24.246 16.3644 24.5375 16.0056 24.9411 15.7814C25.3447 15.5572 25.8156 15.5123 26.2417 15.6469C26.6902 15.7814 27.0489 16.0729 27.2732 16.4765C27.475 16.8802 27.5198 17.3511 27.4077 17.7771Z" fill="#027AFD"/>
</svg>
