<svg width="40" height="40" viewBox="0 0 40 40" fill="none" xmlns="http://www.w3.org/2000/svg">
<circle cx="20" cy="20" r="20" fill="#F5F9FE"/>
<path d="M23.9079 16.1952L14.766 18.4622C14.495 18.5361 14.3225 18.7579 14.2979 19.029C14.2732 19.3 14.4457 19.5464 14.6921 19.645L19.4725 21.3699L21.1974 26.1502C21.2959 26.3966 21.5177 26.5445 21.7641 26.5445H21.7887C22.0598 26.5198 22.2815 26.3473 22.3555 26.0763L24.6224 16.9345C24.6717 16.7127 24.6224 16.4909 24.45 16.3431C24.3514 16.1952 24.1296 16.146 23.9079 16.1952ZM21.6902 23.834L20.5567 20.6799C20.4827 20.5074 20.3595 20.3842 20.187 20.3103L17.033 19.1768L23.2179 17.6491L21.6902 23.834Z" fill="#027AFD"/>
<path d="M20.1131 9C13.9775 9 9 13.9775 9 20.1131C9 26.2487 13.9775 31.2262 20.1131 31.2262C26.2487 31.2262 31.2262 26.2487 31.2262 20.1131C31.2262 13.9775 26.224 9 20.1131 9ZM20.1131 29.9941C14.6674 29.9941 10.2321 25.5588 10.2321 20.1131C10.2321 14.6674 14.6674 10.2321 20.1131 10.2321C25.5587 10.2321 29.9941 14.6674 29.9941 20.1131C29.9941 25.5588 25.5587 29.9941 20.1131 29.9941Z" fill="#027AFD"/>
</svg>
