<svg width="40" height="40" viewBox="0 0 40 40" fill="none" xmlns="http://www.w3.org/2000/svg">
<circle cx="20" cy="20" r="20" fill="#F5F9FE"/>
<path d="M31.3524 29.2485H8.30083C7.78509 29.2485 7.3366 28.957 7.11236 28.4861C6.91055 28.0152 6.97782 27.477 7.3366 27.0958L10.9917 22.9923C11.4626 22.4765 12.1129 22.185 12.8304 22.185H15.1401C15.454 22.185 15.7007 22.4317 15.7007 22.7456C15.7007 23.0595 15.454 23.3062 15.1401 23.3062H12.8304C12.4492 23.3062 12.0905 23.4632 11.8438 23.7547L8.18871 27.8582C8.12144 27.9255 8.14387 28.0152 8.1663 28.06C8.18872 28.1049 8.23356 28.1722 8.32325 28.1722H31.3749C31.487 28.1722 31.5318 28.1049 31.5318 28.06C31.5542 28.0152 31.5767 27.9479 31.5094 27.8582L27.8095 23.7323C27.5628 23.4408 27.204 23.2838 26.8228 23.2838H24.5132C24.1993 23.2838 23.9526 23.0371 23.9526 22.7232C23.9526 22.4093 24.1993 22.1626 24.5132 22.1626H26.8228C27.518 22.1626 28.1907 22.4541 28.6616 22.9699L32.3167 27.0734C32.653 27.4546 32.7427 27.9928 32.5409 28.4637C32.3167 28.957 31.8682 29.2485 31.3524 29.2485Z" fill="#027AFD"/>
<path d="M19.8267 9C16.2838 9 13.4136 11.8702 13.4136 15.4132C13.4136 16.8707 14.4226 19.0683 16.4408 21.9609C17.8983 24.0687 19.3558 25.7505 19.4007 25.8178C19.5128 25.9523 19.6697 26.0196 19.8267 26.0196C19.9837 26.0196 20.1406 25.9523 20.2528 25.8178C20.32 25.7505 21.7551 24.0687 23.2127 21.9609C25.2308 19.0683 26.2398 16.8707 26.2398 15.4132C26.2398 11.8702 23.3696 9 19.8267 9ZM19.8267 24.5845C18.0328 22.4094 14.5348 17.7004 14.5348 15.4132C14.5348 12.4981 16.9116 10.1212 19.8267 10.1212C22.7418 10.1212 25.1187 12.4981 25.1187 15.4132C25.1187 17.7004 21.6206 22.4094 19.8267 24.5845Z" fill="#027AFD"/>
<path d="M19.8266 17.4759C18.5036 17.4759 17.4272 16.3996 17.4272 15.0766C17.4272 13.7536 18.5036 12.6772 19.8266 12.6772C21.1495 12.6772 22.2258 13.7536 22.2258 15.0766C22.2258 16.3996 21.1495 17.4759 19.8266 17.4759ZM19.8266 13.776C19.109 13.776 18.5484 14.359 18.5484 15.0542C18.5484 15.7493 19.1314 16.3323 19.8266 16.3323C20.5217 16.3323 21.1047 15.7493 21.1047 15.0542C21.1047 14.359 20.5441 13.776 19.8266 13.776Z" fill="#027AFD"/>
</svg>
