<svg width="40" height="40" viewBox="0 0 40 40" fill="none" xmlns="http://www.w3.org/2000/svg">
<circle cx="20" cy="20" r="20" fill="#F5F9FE"/>
<path d="M27.7463 23.6336C26.3784 23.6336 25.2572 24.5979 24.9657 25.876H15.4132C13.9108 25.876 12.6775 24.6427 12.6775 23.1403V22.7367C12.6775 21.2343 13.9108 20.001 15.4132 20.001H24.4948C26.6251 20.001 28.3517 18.2744 28.3517 16.1441C28.3517 14.0138 26.6251 12.2872 24.4948 12.2872H14.6284C14.3593 10.9866 13.2157 10 11.8479 10C10.2782 10 9 11.2782 9 12.8478C9 14.4175 10.2782 15.6956 11.8479 15.6956C13.2157 15.6956 14.3817 14.709 14.6284 13.4084H24.4948C25.9972 13.4084 27.2305 14.6417 27.2305 16.1441C27.2305 17.6465 25.9972 18.8798 24.4948 18.8798H15.4132C13.283 18.8798 11.5563 20.6064 11.5563 22.7367V23.1403C11.5563 25.2706 13.283 26.9972 15.4132 26.9972H24.9433C25.1899 28.3202 26.3336 29.3293 27.7463 29.3293C29.3159 29.3293 30.5941 28.0511 30.5941 26.4814C30.5941 24.9118 29.3159 23.6336 27.7463 23.6336Z" fill="#027AFD"/>
</svg>
