<svg width="40" height="40" viewBox="0 0 40 40" fill="none" xmlns="http://www.w3.org/2000/svg">
<circle cx="20" cy="20" r="20" fill="#F5F9FE"/>
<path d="M22.3331 20.1354C22.3331 21.1445 21.5259 21.9517 20.5168 21.9517C19.5077 21.9517 18.7004 21.1221 18.7004 20.1354C18.7004 19.1488 19.5077 18.3191 20.5168 18.3191C21.5259 18.3191 22.3331 19.1263 22.3331 20.1354Z" fill="#027AFD"/>
<path d="M29.576 19.7991C29.5311 19.7542 28.5445 18.4985 26.9524 17.2428C24.8221 15.561 22.5797 14.6641 20.5168 14.6641C18.4538 14.6641 16.2114 15.561 14.0811 17.2428C12.4891 18.4985 11.5024 19.7542 11.4576 19.7991C11.3006 20.0009 11.3006 20.2924 11.4576 20.4942C11.5024 20.5391 12.4891 21.7948 14.0811 23.0505C16.2114 24.7323 18.4538 25.6293 20.5168 25.6293C22.5797 25.6293 24.8221 24.7323 26.9524 23.0505C28.5445 21.7948 29.5311 20.5391 29.576 20.4942C29.7329 20.2924 29.7329 20.0009 29.576 19.7991ZM20.5168 23.0954C18.9022 23.0954 17.5792 21.7724 17.5792 20.1579C17.5792 18.5434 18.9022 17.2204 20.5168 17.2204C22.1313 17.2204 23.4543 18.5434 23.4543 20.1579C23.4543 21.7724 22.1537 23.0954 20.5168 23.0954Z" fill="#027AFD"/>
<path d="M29.6879 13.0945C29.374 13.0945 29.1273 12.8478 29.1273 12.5339V11.1212H27.7146C27.4007 11.1212 27.1541 10.8745 27.1541 10.5606C27.1541 10.2467 27.4007 10 27.7146 10H29.6879C30.0019 10 30.2485 10.2467 30.2485 10.5606V12.5339C30.2485 12.8478 30.0019 13.0945 29.6879 13.0945Z" fill="#027AFD"/>
<path d="M29.688 14.0811C29.3741 14.0811 29.1274 13.8344 29.1274 13.5205V11.1212H26.7281C26.4141 11.1212 26.1675 10.8745 26.1675 10.5606C26.1675 10.2467 26.4141 10 26.7281 10H29.688C30.0019 10 30.2486 10.2467 30.2486 10.5606V13.5205C30.2486 13.8344 30.0019 14.0811 29.688 14.0811Z" fill="#027AFD"/>
<path d="M29.688 30.271H26.7281C26.4141 30.271 26.1675 30.0244 26.1675 29.7105C26.1675 29.3965 26.4141 29.1499 26.7281 29.1499H29.1274V26.7505C29.1274 26.4366 29.3741 26.1899 29.688 26.1899C30.0019 26.1899 30.2486 26.4366 30.2486 26.7505V29.7105C30.2486 30.002 30.0019 30.271 29.688 30.271Z" fill="#027AFD"/>
<path d="M13.5205 30.271H10.5606C10.2467 30.271 10 30.0244 10 29.7105V26.7505C10 26.4366 10.2467 26.1899 10.5606 26.1899C10.8745 26.1899 11.1212 26.4366 11.1212 26.7505V29.1499H13.5205C13.8345 29.1499 14.0811 29.3965 14.0811 29.7105C14.0811 30.0244 13.8345 30.271 13.5205 30.271Z" fill="#027AFD"/>
<path d="M10.5606 14.0811C10.2467 14.0811 10 13.8344 10 13.5205V10.5606C10 10.2467 10.2467 10 10.5606 10H13.5205C13.8345 10 14.0811 10.2467 14.0811 10.5606C14.0811 10.8745 13.8345 11.1212 13.5205 11.1212H11.1212V13.5205C11.1212 13.8344 10.8745 14.0811 10.5606 14.0811Z" fill="#027AFD"/>
</svg>
