<svg width="40" height="40" viewBox="0 0 40 40" fill="none" xmlns="http://www.w3.org/2000/svg">
<circle cx="20" cy="20" r="20" fill="#F5F9FE"/>
<path d="M27.7463 23.6112C26.3784 23.6112 25.2572 24.5754 24.9657 25.8536H15.4132C13.9108 25.8536 12.6775 24.6203 12.6775 23.1179V22.7142C12.6775 21.2119 13.9108 19.9786 15.4132 19.9786H24.4948C26.6251 19.9786 28.3517 18.2519 28.3517 16.1217C28.3517 13.9914 26.6251 12.2872 24.4948 12.2872H14.6284C14.3593 10.9866 13.2157 10 11.8479 10C10.2782 10 9 11.2782 9 12.8478C9 14.4175 10.2782 15.6956 11.8479 15.6956C13.2157 15.6956 14.3817 14.709 14.6284 13.4084H24.4948C25.9972 13.4084 27.2305 14.6417 27.2305 16.1441C27.2305 17.6465 25.9972 18.8798 24.4948 18.8798H15.4132C13.283 18.8798 11.5563 20.6064 11.5563 22.7367V23.1403C11.5563 25.2706 13.283 26.9972 15.4132 26.9972H24.9433C25.1899 28.3202 26.3336 29.3292 27.7463 29.3292C29.3159 29.3292 30.5941 28.0511 30.5941 26.4814C30.5941 24.9118 29.3159 23.6112 27.7463 23.6112ZM11.8702 14.5744C10.9285 14.5744 10.1436 13.812 10.1436 12.8478C10.1436 11.8836 10.906 11.1212 11.8702 11.1212C12.8345 11.1212 13.5969 11.8836 13.5969 12.8478C13.5969 13.812 12.812 14.5744 11.8702 14.5744ZM27.7463 28.1632C26.8269 28.1632 26.0869 27.4457 26.042 26.5487C26.0645 26.5039 26.0645 26.459 26.0645 26.4142C26.0645 26.3693 26.0645 26.3245 26.042 26.2796C26.1317 25.4051 26.8717 24.7324 27.7463 24.7324C28.688 24.7324 29.4729 25.4948 29.4729 26.459C29.4729 27.4232 28.688 28.1632 27.7463 28.1632Z" fill="#027AFD"/>
</svg>
