<svg width="40" height="40" viewBox="0 0 40 40" fill="none" xmlns="http://www.w3.org/2000/svg">
<circle cx="20" cy="20" r="20" fill="#F5F9FE"/>
<path d="M24.2386 10H16.6818C15.7624 10 15 10.74 15 11.6818V28.5444C15 29.4638 15.7624 30.2262 16.6818 30.2262H24.2386C25.158 30.2262 25.9204 29.4862 25.9204 28.5444V11.6818C25.9204 10.74 25.158 10 24.2386 10ZM20.4714 28.0959C20.0229 28.0959 19.6417 27.7372 19.6417 27.2663C19.6417 26.8178 20.0005 26.4366 20.4714 26.4366C20.9199 26.4366 21.3011 26.7954 21.3011 27.2663C21.3011 27.7372 20.9199 28.0959 20.4714 28.0959ZM21.3908 13.229H19.552C19.2381 13.229 18.9914 12.9824 18.9914 12.6684C18.9914 12.3545 19.2381 12.1078 19.552 12.1078H21.3908C21.7047 12.1078 21.9514 12.3545 21.9514 12.6684C21.9514 12.9824 21.6823 13.229 21.3908 13.229Z" fill="#027AFD"/>
</svg>
