<svg width="40" height="40" viewBox="0 0 40 40" fill="none" xmlns="http://www.w3.org/2000/svg">
<circle cx="20" cy="20" r="20" fill="#F5F9FE"/>
<path d="M24.2386 10H16.6818C15.7624 10 15 10.7624 15 11.6818V28.5444C15 29.4638 15.7624 30.2262 16.6818 30.2262H24.2386C25.158 30.2262 25.9204 29.4638 25.9204 28.5444V11.6818C25.9204 10.7624 25.158 10 24.2386 10ZM24.7992 28.5668C24.7992 28.8808 24.5525 29.1274 24.2386 29.1274H16.6818C16.3678 29.1274 16.1212 28.8808 16.1212 28.5668V11.6818C16.1212 11.3678 16.3678 11.1212 16.6818 11.1212H24.2386C24.5525 11.1212 24.7992 11.3678 24.7992 11.6818V28.5668Z" fill="#027AFD"/>
<path d="M21.3908 12.1302H19.552C19.2381 12.1302 18.9915 12.3769 18.9915 12.6908C18.9915 13.0048 19.2381 13.2514 19.552 13.2514H21.3908C21.7047 13.2514 21.9514 13.0048 21.9514 12.6908C21.9514 12.3769 21.6823 12.1302 21.3908 12.1302Z" fill="#027AFD"/>
<path d="M20.4714 26.4591C20.0229 26.4591 19.6417 26.8179 19.6417 27.2888C19.6417 27.7597 20.0005 28.1185 20.4714 28.1185C20.9199 28.1185 21.3011 27.7597 21.3011 27.2888C21.3011 26.8179 20.9199 26.4591 20.4714 26.4591Z" fill="#027AFD"/>
</svg>
