<svg width="40" height="40" viewBox="0 0 40 40" fill="none" xmlns="http://www.w3.org/2000/svg">
<circle cx="20" cy="20" r="20" fill="#F5F9FE"/>
<path d="M32.2401 11H8.56059C8.24666 11 8 11.2467 8 11.5606V29.1408C8 29.4547 8.24666 29.7014 8.56059 29.7014H32.2401C32.554 29.7014 32.8007 29.4547 32.8007 29.1408V11.5606C32.8007 11.2467 32.554 11 32.2401 11ZM15.1531 26.0687C14.7047 26.5172 14.1217 26.7415 13.5386 26.7415C12.9556 26.7415 12.3726 26.5172 11.9242 26.0687C11.0272 25.1718 11.0272 23.7142 11.9242 22.8173C12.8211 21.9204 14.2786 21.9204 15.1756 22.8173C16.0501 23.7367 16.0501 25.1942 15.1531 26.0687ZM14.6374 20.7543C12.7539 20.7543 11.229 19.2295 11.229 17.3459C11.229 15.4623 12.7539 13.9375 14.6374 13.9375C16.521 13.9375 18.0458 15.4623 18.0458 17.3459C18.0458 19.2295 16.521 20.7543 14.6374 20.7543ZM22.0148 26.0687C21.5664 26.5172 20.9833 26.7415 20.4003 26.7415C20.1088 26.7415 19.8173 26.6966 19.5258 26.5621C19.2343 26.4275 18.9876 26.293 18.7634 26.0687C17.8664 25.1718 17.8664 23.7142 18.7634 22.8173C19.6603 21.9204 21.1179 21.9204 22.0148 22.8173C22.9118 23.7367 22.9118 25.1942 22.0148 26.0687ZM28.8989 26.0687C28.4504 26.5172 27.8674 26.7415 27.2844 26.7415C26.7014 26.7415 26.1184 26.5172 25.6699 26.0687C24.773 25.1718 24.773 23.7142 25.6699 22.8173C26.5669 21.9204 28.0244 21.9204 28.9213 22.8173C29.7734 23.7367 29.7734 25.1942 28.8989 26.0687ZM29.011 20.3507H20.4003C20.0864 20.3507 19.8397 20.104 19.8397 19.7901C19.8397 19.4762 20.0864 19.2295 20.4003 19.2295H29.011C29.3249 19.2295 29.5716 19.4762 29.5716 19.7901C29.5716 20.104 29.3025 20.3507 29.011 20.3507ZM29.011 17.9065H20.4003C20.0864 17.9065 19.8397 17.6598 19.8397 17.3459C19.8397 17.032 20.0864 16.7853 20.4003 16.7853H29.011C29.3249 16.7853 29.5716 17.032 29.5716 17.3459C29.5716 17.6598 29.3025 17.9065 29.011 17.9065ZM29.011 15.3278H20.4003C20.0864 15.3278 19.8397 15.0811 19.8397 14.7672C19.8397 14.4533 20.0864 14.2066 20.4003 14.2066H29.011C29.3249 14.2066 29.5716 14.4533 29.5716 14.7672C29.5716 15.0811 29.3025 15.3278 29.011 15.3278Z" fill="#027AFD"/>
</svg>
