<svg width="40" height="40" viewBox="0 0 40 40" fill="none" xmlns="http://www.w3.org/2000/svg">
<circle cx="20" cy="20" r="20" fill="#F5F9FE"/>
<path d="M30.3159 10.0908C30.1589 9.97864 29.9571 9.97864 29.7777 10.0459L23.5215 12.8265L17.2877 10.0459H17.2653C17.2429 10.0459 17.2204 10.0235 17.198 10.0235C17.1756 10.0235 17.1532 10.0235 17.1307 10.0011C17.1083 10.0011 17.0859 10.0011 17.0635 10.0011C17.041 10.0011 17.0186 10.0011 16.9962 10.0011C16.9738 10.0011 16.9514 10.0011 16.9289 10.0235C16.9065 10.0235 16.8841 10.0459 16.8617 10.0459H16.8392L10.3588 12.9161C10.157 13.0058 10.0224 13.2077 10.0224 13.4319L10 29.7115C10 29.8909 10.0897 30.0703 10.2467 30.1824C10.3364 30.2497 10.4485 30.2721 10.5606 30.2721C10.6279 30.2721 10.7176 30.2497 10.7848 30.2273L17.041 27.4467L23.2748 30.2273C23.2973 30.2273 23.2973 30.2273 23.3197 30.2497C23.3421 30.2497 23.3421 30.2497 23.3645 30.2721C23.4094 30.2945 23.4542 30.2945 23.5215 30.2945C23.5663 30.2945 23.6112 30.2945 23.656 30.2721C23.6785 30.2721 23.6785 30.2721 23.7009 30.2497C23.7233 30.2497 23.7233 30.2497 23.7457 30.2273L30.2262 27.3794C30.428 27.2898 30.5625 27.0879 30.5625 26.8637V10.5617C30.5625 10.3823 30.4729 10.2029 30.3159 10.0908ZM22.9609 28.8594L17.6016 26.4825V19.2621V11.4138L22.9609 13.8131V21.0335V28.8594ZM11.1436 13.7907L16.5029 11.4138V19.2621V26.4825L11.1212 28.8594L11.1436 13.7907ZM29.4414 14.6203V26.4825L24.0821 28.8818V21.0335V13.8131L29.4414 11.4362V14.6203Z" fill="#027AFD"/>
</svg>
