<svg width="40" height="40" viewBox="0 0 40 40" fill="none" xmlns="http://www.w3.org/2000/svg">
<circle cx="20" cy="20" r="20" fill="#F5F9FE"/>
<path d="M31.2443 22.001V19.6913V19.6689C31.2443 19.6465 31.2443 19.6241 31.2443 19.6016C31.2443 19.5792 31.2443 19.5792 31.2443 19.5568C31.2443 19.5568 31.2443 19.5568 31.2443 19.5344V19.5119C31.2219 19.4671 31.1995 19.4223 31.1771 19.3774L29.4504 16.5969C29.4504 16.5744 29.428 16.5744 29.428 16.552L28.1499 14.5115C28.0377 14.3545 27.8584 14.2424 27.679 14.2424H22.5215V12.5606C22.5215 12.2467 22.2749 12 21.9609 12H9.56059C9.24666 12 9 12.2467 9 12.5606V24.9609C9 25.2748 9.24666 25.5215 9.56059 25.5215H11.7805C12.0272 26.7324 13.126 27.6518 14.4041 27.6518C15.7047 27.6518 16.781 26.7324 17.0277 25.5215H23.6875C23.9342 26.7324 25.033 27.6518 26.3111 27.6518C27.6117 27.6518 28.688 26.7324 28.9347 25.5215H30.7062C31.0201 25.5215 31.2668 25.2748 31.2668 24.9609V22.001C31.2444 22.001 31.2443 22.001 31.2443 22.001ZM28.5983 17.4041L29.6747 19.1307H26.8717V17.4265H28.5983V17.4041ZM10.0764 13.1212H21.3555V24.4003H17.0053C16.7586 23.1894 15.6599 22.2701 14.3817 22.2701C13.1035 22.2701 12.0048 23.1894 11.7581 24.4003H10.0987V13.1212H10.0764ZM14.3593 26.5081C13.6865 26.5081 13.1259 26.0821 12.9017 25.4991C12.8344 25.3197 12.7896 25.1403 12.7896 24.9385C12.7896 24.7367 12.8344 24.5573 12.9017 24.3779C13.1259 23.7949 13.6865 23.3688 14.3593 23.3688C15.032 23.3688 15.5926 23.7949 15.8168 24.3779C15.8841 24.5573 15.9289 24.7367 15.9289 24.9385C15.9289 25.1403 15.8841 25.3197 15.8168 25.4991C15.5926 26.0821 15.032 26.5081 14.3593 26.5081ZM26.2887 26.5081C25.616 26.5081 25.0554 26.0821 24.8312 25.4991C24.7639 25.3197 24.7191 25.1403 24.7191 24.9385C24.7191 24.7367 24.7639 24.5573 24.8312 24.3779C25.0554 23.7949 25.616 23.3688 26.2887 23.3688C26.9614 23.3688 27.522 23.7949 27.7463 24.3779C27.8135 24.5573 27.8584 24.7367 27.8584 24.9385C27.8584 25.1403 27.8135 25.3197 27.7463 25.4991C27.522 26.0821 26.9614 26.5081 26.2887 26.5081ZM28.9123 24.3779C28.6656 23.167 27.5669 22.2476 26.2887 22.2476C25.0106 22.2476 23.9118 23.167 23.6651 24.3779H22.4542V15.3411H27.2978L27.8808 16.2829H26.2887C25.9748 16.2829 25.7281 16.5296 25.7281 16.8435V19.6689C25.7281 19.9828 25.9748 20.2295 26.2887 20.2295H30.1008V21.4404H29.3159C29.002 21.4404 28.7553 21.687 28.7553 22.001C28.7553 22.3149 29.002 22.5616 29.3159 22.5616H30.1008V24.3779H28.9123Z" fill="#027AFD"/>
</svg>
