<svg width="40" height="40" viewBox="0 0 40 40" fill="none" xmlns="http://www.w3.org/2000/svg">
<circle cx="20" cy="20" r="20" fill="#F5F9FE"/>
<path d="M31.3207 18.1575C31.3207 18.135 31.3207 18.135 31.3207 18.1126C31.3207 18.0678 31.2983 18.0453 31.2983 18.0005V17.9781C31.2758 17.9332 31.2534 17.8884 31.231 17.8659L27.8226 13.2242C27.7105 13.0897 27.5535 13 27.3741 13H11.9466C11.7672 13 11.6102 13.0897 11.4981 13.2242L8.0897 17.8659C8.06728 17.9108 8.04485 17.9332 8.02243 17.9781V18.0005C8.02243 18.0453 8 18.0678 8 18.1126C8 18.135 8 18.135 8 18.1575V18.1799V27.0148C8 27.3288 8.24666 27.5754 8.56059 27.5754H30.7825C31.0964 27.5754 31.3431 27.3288 31.3431 27.0148V18.1799C31.3431 18.1575 31.3207 18.1575 31.3207 18.1575ZM12.2381 14.0988H27.0826L29.6613 17.6193H9.63694L12.2381 14.0988ZM30.2219 26.4542H9.12119V18.7405H30.2219V26.4542Z" fill="#027AFD"/>
<path d="M13.2472 24.6604C14.3908 24.6604 15.3326 23.7186 15.3326 22.575C15.3326 21.4314 14.3908 20.4896 13.2472 20.4896C12.1036 20.4896 11.1842 21.4538 11.1842 22.5975C11.1842 23.7411 12.1036 24.6604 13.2472 24.6604ZM13.2472 21.6332C13.7629 21.6332 14.2114 22.0593 14.2114 22.5975C14.2114 23.1132 13.7854 23.5617 13.2472 23.5617C12.7314 23.5617 12.283 23.1356 12.283 22.5975C12.3054 22.0593 12.7314 21.6332 13.2472 21.6332Z" fill="#027AFD"/>
</svg>
