<svg width="40" height="40" viewBox="0 0 40 40" fill="none" xmlns="http://www.w3.org/2000/svg">
<circle cx="20" cy="20" r="20" fill="#F5F9FE"/>
<path d="M29.8367 21.6504H31.7851V19.8395C31.7851 19.7249 31.7622 19.6332 31.6934 19.5415L28.5759 14.5215C28.4842 14.361 28.3009 14.2464 28.0946 14.2464H22.8224V12.5731C22.8224 12.2521 22.5702 12 22.2493 12H9.57307C9.25215 12 9 12.2521 9 12.5731V25.2493C9 25.5702 9.25215 25.8223 9.57307 25.8223H11.8424C12.1175 27.0602 13.2178 28 14.5244 28C15.8309 28 16.9542 27.0602 17.2063 25.8223H24.0143C24.2894 27.0602 25.3897 28 26.6963 28C28.0029 28 29.1261 27.0602 29.3782 25.8223H31.1891C31.51 25.8223 31.7622 25.5702 31.7622 25.2493V22.7966H29.8138C29.4928 22.7966 29.2407 22.5444 29.2407 22.2235C29.2636 21.9026 29.5158 21.6504 29.8367 21.6504ZM16.0372 25.8223C15.808 26.4183 15.212 26.8539 14.5473 26.8539C13.8596 26.8539 13.2865 26.4183 13.0573 25.8223C12.9885 25.639 12.9427 25.4556 12.9427 25.2493C12.9427 24.3782 13.6533 23.6447 14.5473 23.6447C15.4183 23.6447 16.1519 24.3553 16.1519 25.2493C16.1519 25.4556 16.106 25.639 16.0372 25.8223ZM28.2321 25.8223C28.0029 26.4183 27.4298 26.8539 26.7421 26.8539C26.0544 26.8539 25.4814 26.4183 25.2521 25.8223C25.1834 25.639 25.1375 25.4556 25.1375 25.2493C25.1375 24.3782 25.8481 23.6447 26.7421 23.6447C27.6132 23.6447 28.3467 24.3553 28.3467 25.2493C28.3467 25.4556 28.3009 25.639 28.2321 25.8223ZM26.765 20.4355C26.4441 20.4355 26.192 20.1834 26.192 19.8625V16.9513C26.192 16.6304 26.4441 16.3782 26.765 16.3782H28.3926L28.4155 16.4011L28.7593 16.9513L30.5702 19.8395L30.6619 20V20.4126H26.765V20.4355Z" fill="#027AFD"/>
</svg>
