<svg width="40" height="40" viewBox="0 0 40 40" fill="none" xmlns="http://www.w3.org/2000/svg">
<circle cx="20" cy="20" r="20" fill="#F5F9FE"/>
<path d="M31.0292 11H8.56059C8.24666 11 8 11.2467 8 11.5606V25.6203C8 25.9342 8.24666 26.1809 8.56059 26.1809H31.0292C31.3431 26.1809 31.5898 25.9342 31.5898 25.6203V11.5606C31.5898 11.2691 31.3431 11 31.0292 11Z" fill="#027AFD"/>
<path d="M22.6427 27.1002H16.9246C16.6107 27.1002 16.364 27.3469 16.364 27.6608C16.364 27.9748 16.6107 28.2214 16.9246 28.2214H22.6427C22.9566 28.2214 23.2032 27.9748 23.2032 27.6608C23.2032 27.3469 22.9566 27.1002 22.6427 27.1002Z" fill="#027AFD"/>
</svg>
