<svg width="40" height="40" viewBox="0 0 40 40" fill="none" xmlns="http://www.w3.org/2000/svg">
<circle cx="20" cy="20" r="20" fill="#F5F9FE"/>
<path d="M20 9C13.9268 9 9 13.9268 9 20C9 26.0732 13.9268 31 20 31C26.0731 31 31 26.0732 31 20C31 13.9268 26.0488 9 20 9ZM24.4878 16.8537L22.2439 25.9024C22.1708 26.1707 21.9512 26.3415 21.6829 26.3659H21.6585C21.3902 26.3659 21.1707 26.2195 21.0732 25.9756L19.3659 21.2439L14.6341 19.5366C14.3902 19.439 14.2195 19.1951 14.2439 18.9268C14.2683 18.6585 14.439 18.439 14.7073 18.3659L23.7561 16.122C23.9756 16.0732 24.1951 16.122 24.3414 16.2927C24.4878 16.4146 24.561 16.6341 24.4878 16.8537Z" fill="#027AFD"/>
</svg>
