<?xml version="1.0" encoding="UTF-8" standalone="no"?>
<svg
   xmlns:dc="http://purl.org/dc/elements/1.1/"
   xmlns:cc="http://creativecommons.org/ns#"
   xmlns:rdf="http://www.w3.org/1999/02/22-rdf-syntax-ns#"
   xmlns:svg="http://www.w3.org/2000/svg"
   xmlns="http://www.w3.org/2000/svg"
   xmlns:sodipodi="http://sodipodi.sourceforge.net/DTD/sodipodi-0.dtd"
   xmlns:inkscape="http://www.inkscape.org/namespaces/inkscape"
   inkscape:version="1.0 (4035a4f, 2020-05-01)"
   height="69.599998"
   width="88.800003"
   sodipodi:docname="noun_API_719176.svg"
   id="svg45237"
   xml:space="preserve"
   viewBox="0 0 88.800003 69.599998"
   y="0px"
   x="0px"
   version="1.1"><metadata
     id="metadata45243"><rdf:RDF><cc:Work
         rdf:about=""><dc:format>image/svg+xml</dc:format><dc:type
           rdf:resource="http://purl.org/dc/dcmitype/StillImage" /><dc:title></dc:title></cc:Work></rdf:RDF></metadata><defs
     id="defs45241" /><sodipodi:namedview
     inkscape:current-layer="svg45237"
     inkscape:window-maximized="0"
     inkscape:window-y="23"
     inkscape:window-x="1332"
     inkscape:cy="24.668313"
     inkscape:cx="21.697028"
     inkscape:zoom="2.7846786"
     fit-margin-bottom="0"
     fit-margin-right="0"
     fit-margin-left="0"
     fit-margin-top="0"
     showgrid="false"
     id="namedview45239"
     inkscape:window-height="709"
     inkscape:window-width="1324"
     inkscape:pageshadow="2"
     inkscape:pageopacity="0"
     guidetolerance="10"
     gridtolerance="10"
     objecttolerance="10"
     borderopacity="1"
     bordercolor="#666666"
     pagecolor="#ffffff" /><g
     transform="translate(-5.6,-15.2)"
     style="fill:#057afd;fill-opacity:1"
     id="g45231"><path
       style="fill:#057afd;fill-opacity:1"
       id="path45217"
       d="m 15.6,84.8 h 68.8 c 5.5,0 10,-4.5 10,-10 v -39 -10.6 c 0,-5.5 -4.5,-10 -10,-10 H 15.6 c -5.5,0 -10,4.5 -10,10 v 10.5 39 c 0,5.6 4.5,10.1 10,10.1 z m -8,-59.6 c 0,-4.4 3.6,-8 8,-8 h 68.8 c 4.4,0 8,3.6 8,8 v 8.5 H 7.6 Z m 0,10.5 h 84.8 v 39 c 0,4.4 -3.6,8 -8,8 H 15.6 c -4.4,0 -8,-3.6 -8,-8 z" /><path
       style="fill:#057afd;fill-opacity:1"
       id="path45219"
       d="m 15.7,19.6 c -3.4,0 -6.1,2.7 -6.1,6.1 0,3.4 2.7,6.1 6.1,6.1 3.4,0 6.1,-2.7 6.1,-6.1 0,-3.4 -2.8,-6.1 -6.1,-6.1 z m 0,10.1 c -2.3,0 -4.1,-1.8 -4.1,-4.1 0,-2.3 1.8,-4.1 4.1,-4.1 2.3,0 4.1,1.8 4.1,4.1 0,2.3 -1.9,4.1 -4.1,4.1 z" /><path
       style="fill:#057afd;fill-opacity:1"
       id="path45221"
       d="m 29.6,19.6 c -3.4,0 -6.1,2.7 -6.1,6.1 0,3.4 2.7,6.1 6.1,6.1 3.4,0 6.1,-2.7 6.1,-6.1 0,-3.4 -2.8,-6.1 -6.1,-6.1 z m 0,10.1 c -2.3,0 -4.1,-1.8 -4.1,-4.1 0,-2.3 1.8,-4.1 4.1,-4.1 2.3,0 4.1,1.8 4.1,4.1 0,2.3 -1.9,4.1 -4.1,4.1 z" /><path
       style="fill:#057afd;fill-opacity:1"
       id="path45223"
       d="m 43.5,19.6 c -3.4,0 -6.1,2.7 -6.1,6.1 0,3.4 2.7,6.1 6.1,6.1 3.4,0 6.1,-2.7 6.1,-6.1 0,-3.4 -2.8,-6.1 -6.1,-6.1 z m 0,10.1 c -2.3,0 -4.1,-1.8 -4.1,-4.1 0,-2.3 1.8,-4.1 4.1,-4.1 2.3,0 4.1,1.8 4.1,4.1 0,2.3 -1.9,4.1 -4.1,4.1 z" /><path
       style="fill:#057afd;fill-opacity:1"
       id="path45225"
       d="m 63.9,72.8 c 0.2,0.2 0.5,0.3 0.7,0.3 0.2,0 0.5,-0.1 0.7,-0.3 L 78.1,60 c 0.2,-0.2 0.3,-0.4 0.3,-0.7 0,-0.3 -0.1,-0.5 -0.3,-0.7 L 65.3,45.9 c -0.4,-0.4 -1,-0.4 -1.4,0 -0.4,0.4 -0.4,1 0,1.4 L 76,59.3 63.9,71.4 c -0.4,0.4 -0.4,1.1 0,1.4 z" /><path
       style="fill:#057afd;fill-opacity:1"
       id="path45227"
       d="m 34.7,72.8 c 0.2,0.2 0.5,0.3 0.7,0.3 0.2,0 0.5,-0.1 0.7,-0.3 0.4,-0.4 0.4,-1 0,-1.4 L 24,59.3 36.1,47.2 c 0.4,-0.4 0.4,-1 0,-1.4 -0.4,-0.4 -1,-0.4 -1.4,0 L 21.9,58.6 c -0.4,0.4 -0.4,1 0,1.4 z" /><path
       style="fill:#057afd;fill-opacity:1"
       id="path45229"
       d="m 41.4,73.1 c 0.3,0 0.6,-0.2 0.8,-0.4 L 59.4,47.1 C 59.7,46.6 59.6,46 59.1,45.7 58.6,45.4 58,45.5 57.7,46 L 40.6,71.6 c -0.3,0.5 -0.2,1.1 0.3,1.4 0.1,0.1 0.3,0.1 0.5,0.1 z" /></g></svg>
