<?xml version="1.0" encoding="UTF-8" standalone="no"?>
<svg
   xmlns:dc="http://purl.org/dc/elements/1.1/"
   xmlns:cc="http://creativecommons.org/ns#"
   xmlns:rdf="http://www.w3.org/1999/02/22-rdf-syntax-ns#"
   xmlns:svg="http://www.w3.org/2000/svg"
   xmlns="http://www.w3.org/2000/svg"
   xmlns:sodipodi="http://sodipodi.sourceforge.net/DTD/sodipodi-0.dtd"
   xmlns:inkscape="http://www.inkscape.org/namespaces/inkscape"
   inkscape:version="1.0 (4035a4f, 2020-05-01)"
   height="56.262646"
   width="100.08034"
   sodipodi:docname="noun_Business_3123901.svg"
   id="svg899"
   xml:space="preserve"
   viewBox="0 0 100.08034 56.262646"
   y="0px"
   x="0px"
   version="1.1"><metadata
     id="metadata905"><rdf:RDF><cc:Work
         rdf:about=""><dc:format>image/svg+xml</dc:format><dc:type
           rdf:resource="http://purl.org/dc/dcmitype/StillImage" /><dc:title></dc:title></cc:Work></rdf:RDF></metadata><defs
     id="defs903" /><sodipodi:namedview
     inkscape:current-layer="svg899"
     inkscape:window-maximized="1"
     inkscape:window-y="23"
     inkscape:window-x="0"
     inkscape:cy="40.662646"
     inkscape:cx="50.017691"
     inkscape:zoom="5.424"
     fit-margin-bottom="0"
     fit-margin-right="0"
     fit-margin-left="0"
     fit-margin-top="0"
     showgrid="false"
     id="namedview901"
     inkscape:window-height="1155"
     inkscape:window-width="1920"
     inkscape:pageshadow="2"
     inkscape:pageopacity="0"
     guidetolerance="10"
     gridtolerance="10"
     objecttolerance="10"
     borderopacity="1"
     bordercolor="#666666"
     pagecolor="#ffffff" /><g
     transform="translate(0.01769145,-21.837354)"
     style="fill:#057afd;fill-opacity:1"
     id="g893"><g
       style="fill:#057afd;fill-opacity:1"
       id="g835"><path
         style="fill:#057afd;fill-opacity:1"
         id="path833"
         d="m 66.3,56.1 c -7.9,0 -13.2,-7.7 -13.3,-7.8 -0.6,-0.9 -1.6,-1.9 -2.6,-1.9 -1,0.1 -1.9,1.4 -2.2,1.9 -1,2.4 -2.4,4 -4,4.6 -1.3,0.5 -2.9,0.4 -4.4,-0.3 -1.4,-0.7 -2.1,-2.3 -1.6,-3.8 l 1.3,-4.6 c 0.7,-2.3 2.4,-4.3 4.6,-5.2 l 5.1,-2.2 c 2.2,-1 4.2,-0.7 6.4,-0.2 l 13.3,3.1 c 0.3,0.1 0.6,0.3 0.8,0.7 l 5,11.8 c 0.2,0.5 0,1.1 -0.4,1.4 -2.9,1.8 -5.6,2.5 -8,2.5 z M 50.5,44.2 c 1.5,0 3,1 4.4,2.8 0.3,0.5 7.5,10.9 17.3,5.1 l -4.4,-10.4 -12.7,-3 c -2.2,-0.4 -3.5,-0.6 -5,0.1 L 45,41.1 c -1.6,0.7 -2.8,2.1 -3.3,3.8 l -1.3,4.6 c -0.1,0.4 0.1,0.9 0.5,1.1 0.9,0.5 1.8,0.6 2.6,0.3 1.1,-0.4 2,-1.6 2.8,-3.4 0,0 0,-0.1 0,-0.1 0.2,-0.3 1.6,-3 4.1,-3.2 -0.1,0 0,0 0.1,0 z" /></g><g
       style="fill:#057afd;fill-opacity:1"
       id="g839"><path
         style="fill:#057afd;fill-opacity:1"
         id="path837"
         d="M 67.7,63 C 67.3,63 67,62.8 66.8,62.5 l -5.5,-7.6 c -0.3,-0.4 -0.3,-1 0,-1.4 0.3,-0.4 0.9,-0.5 1.3,-0.3 0.2,0.1 5.8,2.3 10.2,-1.5 0.3,-0.2 0.6,-0.3 1,-0.2 0.4,0.1 0.6,0.3 0.8,0.7 l 2.8,6.5 c 0.1,0.3 0.1,0.6 0,0.9 -0.1,0.3 -0.4,0.5 -0.7,0.6 L 68,62.9 C 67.9,63 67.8,63 67.7,63 Z m -2.8,-6.9 3.2,4.5 6.7,-2.1 -1.7,-4.1 c -2.9,1.8 -6,2 -8.2,1.7 z" /></g><g
       style="fill:#057afd;fill-opacity:1"
       id="g843"><path
         style="fill:#057afd;fill-opacity:1"
         id="path841"
         d="m 22.7,60.2 c -0.1,0 -0.3,0 -0.4,-0.1 L 12.6,56.3 C 12,56.1 11.7,55.4 12,54.8 c 0.2,-0.6 0.9,-0.9 1.5,-0.6 l 8.6,3.4 7.9,-18.4 -8.8,-3.7 c -0.6,-0.2 -0.8,-0.9 -0.6,-1.5 0.2,-0.6 0.9,-0.8 1.5,-0.6 l 9.9,4.2 c 0.3,0.1 0.5,0.3 0.6,0.6 0.1,0.3 0.1,0.6 0,0.9 l -8.8,20.5 c -0.2,0.4 -0.6,0.6 -1.1,0.6 z" /></g><g
       style="fill:#057afd;fill-opacity:1"
       id="g847"><path
         style="fill:#057afd;fill-opacity:1"
         id="path845"
         d="m 77.3,62.4 c -0.4,0 -0.9,-0.3 -1,-0.7 L 67.5,41.2 c -0.1,-0.3 -0.1,-0.6 0,-0.9 0.1,-0.3 0.3,-0.5 0.6,-0.6 L 78,35.5 c 0.6,-0.2 1.2,0 1.5,0.6 0.2,0.6 0,1.2 -0.6,1.5 l -8.9,3.8 7.9,18.4 8.6,-3.4 c 0.6,-0.2 1.2,0.1 1.5,0.6 0.2,0.6 -0.1,1.2 -0.6,1.5 l -9.7,3.8 c -0.1,0 -0.3,0.1 -0.4,0.1 z" /></g><g
       style="fill:#057afd;fill-opacity:1"
       id="g851"><path
         style="fill:#057afd;fill-opacity:1"
         id="path849"
         d="m 66.6,69.4 c -1.1,0 -2.2,-0.5 -3,-1.3 l -10.3,-11 c -0.4,-0.5 -0.4,-1.2 0,-1.6 0.5,-0.4 1.2,-0.4 1.6,0 l 10.3,10.9 c 0.5,0.5 1.1,0.7 1.8,0.6 0.7,-0.1 1.2,-0.6 1.4,-1.2 0.2,-0.5 0.1,-1.1 -0.3,-1.5 l -7.5,-9.4 c -0.4,-0.5 -0.3,-1.2 0.2,-1.6 0.5,-0.4 1.2,-0.3 1.6,0.2 l 7.5,9.4 c 0.8,1 1.1,2.4 0.6,3.6 -0.5,1.4 -1.6,2.4 -3.1,2.7 -0.2,0.1 -0.5,0.2 -0.8,0.2 z" /></g><g
       style="fill:#057afd;fill-opacity:1"
       id="g855"><path
         style="fill:#057afd;fill-opacity:1"
         id="path853"
         d="m 61.5,73.1 c -1.5,0 -3,-0.6 -4.1,-1.7 l -8.7,-9.1 c -0.4,-0.5 -0.4,-1.2 0,-1.6 0.4,-0.4 1.2,-0.4 1.6,0 l 8.7,9.1 c 0.8,0.9 2,1.2 3.2,1 1.2,-0.3 2,-1.1 2.4,-2.2 v -0.1 c 0.2,-0.6 0.8,-0.9 1.4,-0.8 0.6,0.2 0.9,0.8 0.7,1.4 v 0.1 c -0.6,1.9 -2.1,3.3 -4.1,3.8 -0.3,0 -0.7,0.1 -1.1,0.1 z" /></g><g
       style="fill:#057afd;fill-opacity:1"
       id="g859"><path
         style="fill:#057afd;fill-opacity:1"
         id="path857"
         d="m 55.9,76.4 c -0.1,0 -0.2,0 -0.3,0 -1.4,-0.1 -2.8,-0.8 -3.9,-1.9 l -7.2,-8 c -0.4,-0.5 -0.4,-1.2 0.1,-1.6 0.5,-0.4 1.2,-0.4 1.6,0.1 l 7.2,8 c 0.6,0.7 1.5,1.1 2.3,1.2 1.4,0.1 2.5,-0.7 3.5,-2.3 0.3,-0.5 1,-0.7 1.5,-0.4 0.5,0.3 0.7,1 0.4,1.5 -1.7,2.8 -3.7,3.4 -5.2,3.4 z" /></g><g
       style="fill:#057afd;fill-opacity:1"
       id="g863"><path
         style="fill:#057afd;fill-opacity:1"
         id="path861"
         d="m 45.8,40.6 c -0.1,0 -0.2,0 -0.3,0 -6.2,-1.4 -13.9,-0.8 -14,-0.8 -0.6,0.1 -1.2,-0.4 -1.2,-1 -0.1,-0.6 0.4,-1.2 1,-1.2 0.3,0 8.2,-0.7 14.7,0.8 0.6,0.1 1,0.7 0.8,1.4 0,0.4 -0.5,0.8 -1,0.8 z" /></g><g
       style="fill:#057afd;fill-opacity:1"
       id="g867"><path
         style="fill:#057afd;fill-opacity:1"
         id="path865"
         d="m 50.4,78.1 c -1,0 -2.1,-0.4 -2.8,-1.1 L 44.2,73.8 C 33.6,63.4 23.7,56.5 23.6,56.4 23.1,56 23,55.3 23.3,54.8 c 0.4,-0.5 1.1,-0.6 1.6,-0.3 0.1,0.1 10.1,7 20.9,17.6 l 3.4,3.2 c 0.5,0.5 1.2,0.6 1.9,0.4 0.3,-0.1 1,-0.4 1.2,-1.3 0.1,-0.6 0.7,-1.1 1.3,-1 0.6,0.1 1.1,0.6 1,1.2 v 0.1 c -0.2,1.5 -1.2,2.6 -2.7,3.1 -0.6,0.3 -1.1,0.3 -1.5,0.3 z" /></g><g
       style="fill:#057afd;fill-opacity:1"
       id="g871"><path
         style="fill:#057afd;fill-opacity:1"
         id="path869"
         d="m 30.9,65.8 c -0.8,0 -1.6,-0.3 -2.3,-0.8 -0.7,-0.6 -1.2,-1.4 -1.2,-2.4 -0.1,-0.9 0.2,-1.8 0.9,-2.5 l 0.9,-1 c 0.4,-0.5 1.1,-0.5 1.6,-0.1 0.5,0.4 0.5,1.1 0.1,1.6 l -0.9,1 c -0.2,0.2 -0.3,0.5 -0.3,0.9 0,0.3 0.2,0.6 0.4,0.8 0.6,0.5 1.4,0.4 1.9,-0.2 l 0.9,-1 c 0.4,-0.5 1.1,-0.5 1.6,-0.1 0.5,0.4 0.5,1.1 0.1,1.6 l -0.9,1 c -0.8,0.7 -1.8,1.2 -2.8,1.2 z" /></g><g
       style="fill:#057afd;fill-opacity:1"
       id="g875"><path
         style="fill:#057afd;fill-opacity:1"
         id="path873"
         d="m 34.2,70.9 c -0.9,0 -1.8,-0.3 -2.6,-1 -0.8,-0.7 -1.3,-1.7 -1.4,-2.7 -0.1,-1.1 0.3,-2.1 1,-2.9 L 33,62.2 c 0.4,-0.5 1.1,-0.5 1.6,-0.1 0.5,0.4 0.5,1.1 0.1,1.6 l -1.8,2.1 c -0.3,0.3 -0.4,0.8 -0.4,1.2 0,0.5 0.2,0.9 0.6,1.2 0.7,0.6 1.7,0.5 2.4,-0.1 L 37.4,66 c 0.4,-0.5 1.1,-0.5 1.6,-0.1 0.5,0.4 0.5,1.1 0.1,1.6 l -1.9,2.1 c -0.8,0.8 -1.9,1.3 -3,1.3 z" /></g><g
       style="fill:#057afd;fill-opacity:1"
       id="g879"><path
         style="fill:#057afd;fill-opacity:1"
         id="path877"
         d="m 39.1,73.9 c -1,0 -1.9,-0.3 -2.7,-1 -1.6,-1.5 -1.7,-4 -0.2,-5.5 L 37.5,66 c 0.4,-0.5 1.1,-0.5 1.6,-0.1 0.5,0.4 0.5,1.1 0.1,1.6 l -1.3,1.4 c -0.6,0.7 -0.6,1.7 0.1,2.4 0.7,0.6 1.7,0.6 2.4,-0.1 l 1.3,-1.4 c 0.4,-0.5 1.1,-0.5 1.6,0 0.5,0.4 0.5,1.1 0,1.6 L 42,72.8 c -0.9,0.7 -1.9,1.1 -2.9,1.1 z" /></g><g
       style="fill:#057afd;fill-opacity:1"
       id="g883"><path
         style="fill:#057afd;fill-opacity:1"
         id="path881"
         d="m 43.7,76.8 c -0.9,0 -1.9,-0.3 -2.6,-1 C 39.6,74.4 39.5,72 41,70.5 L 41.5,70 c 0.4,-0.5 1.1,-0.5 1.6,0 0.5,0.4 0.5,1.1 0,1.6 L 42.6,72 c -0.6,0.6 -0.5,1.6 0.1,2.1 0.6,0.6 1.6,0.6 2.1,0 l 0.7,-0.7 c 0.4,-0.4 1.1,-0.5 1.6,0 0.4,0.4 0.5,1.1 0,1.6 l -0.7,0.7 c -0.8,0.7 -1.8,1.1 -2.7,1.1 z" /></g><g
       style="fill:#057afd;fill-opacity:1"
       id="g887"><path
         style="fill:#057afd;fill-opacity:1"
         id="path885"
         d="m 8.9,66.7 c -0.1,0 -0.3,0 -0.4,-0.1 L 0.8,63.5 C 0.2,63.3 -0.1,62.6 0.2,62 0.4,61.4 1.1,61.1 1.7,61.4 L 8.4,64.1 21.4,32.3 0.7,24 C 0.1,23.8 -0.2,23.1 0.1,22.5 0.3,22 1,21.7 1.6,21.9 l 21.6,8.8 c 0.3,0.1 0.5,0.3 0.6,0.6 0.1,0.3 0.1,0.6 0,0.9 L 9.9,66 c -0.2,0.5 -0.6,0.7 -1,0.7 z" /></g><g
       style="fill:#057afd;fill-opacity:1"
       id="g891"><path
         style="fill:#057afd;fill-opacity:1"
         id="path889"
         d="m 91.1,68.9 c -0.4,0 -0.9,-0.3 -1,-0.7 L 76.2,34.3 c -0.1,-0.3 -0.1,-0.6 0,-0.9 0.1,-0.3 0.3,-0.5 0.6,-0.6 L 98.4,24 c 0.6,-0.2 1.2,0 1.5,0.6 0.2,0.6 0,1.2 -0.6,1.5 l -20.5,8.3 13,31.8 6.7,-2.7 c 0.6,-0.2 1.2,0.1 1.5,0.6 0.2,0.6 -0.1,1.2 -0.6,1.5 l -7.7,3.1 c -0.3,0.1 -0.4,0.2 -0.6,0.2 z" /></g></g></svg>
