<?xml version="1.0" encoding="UTF-8" standalone="no"?>
<svg
   xmlns:dc="http://purl.org/dc/elements/1.1/"
   xmlns:cc="http://creativecommons.org/ns#"
   xmlns:rdf="http://www.w3.org/1999/02/22-rdf-syntax-ns#"
   xmlns:svg="http://www.w3.org/2000/svg"
   xmlns="http://www.w3.org/2000/svg"
   xmlns:sodipodi="http://sodipodi.sourceforge.net/DTD/sodipodi-0.dtd"
   xmlns:inkscape="http://www.inkscape.org/namespaces/inkscape"
   inkscape:version="1.0 (4035a4f, 2020-05-01)"
   height="23.989"
   width="23.940001"
   sodipodi:docname="noun_fast access_3283967.svg"
   id="svg875"
   xml:space="preserve"
   viewBox="0 0 23.940001 23.989"
   y="0px"
   x="0px"
   version="1.1"><metadata
     id="metadata881"><rdf:RDF><cc:Work
         rdf:about=""><dc:format>image/svg+xml</dc:format><dc:type
           rdf:resource="http://purl.org/dc/dcmitype/StillImage" /><dc:title></dc:title></cc:Work></rdf:RDF></metadata><defs
     id="defs879" /><sodipodi:namedview
     inkscape:current-layer="svg875"
     inkscape:window-maximized="1"
     inkscape:window-y="23"
     inkscape:window-x="0"
     inkscape:cy="16.137097"
     inkscape:cx="11.295357"
     inkscape:zoom="13.40135"
     fit-margin-bottom="0"
     fit-margin-right="0"
     fit-margin-left="0"
     fit-margin-top="0"
     showgrid="false"
     id="namedview877"
     inkscape:window-height="865"
     inkscape:window-width="1536"
     inkscape:pageshadow="2"
     inkscape:pageopacity="0"
     guidetolerance="10"
     gridtolerance="10"
     objecttolerance="10"
     borderopacity="1"
     bordercolor="#666666"
     pagecolor="#ffffff" /><g
     transform="translate(-0.03,-0.005)"
     style="fill:#017afb;fill-opacity:1"
     id="g869"><circle
       style="fill:#017afb;fill-opacity:1"
       id="circle833"
       r="0.38600001"
       cy="1.936"
       cx="1.961" /><circle
       style="fill:#017afb;fill-opacity:1"
       id="circle835"
       r="0.38600001"
       cy="1.936"
       cx="3.506" /><path
       style="fill:#017afb;fill-opacity:1"
       id="path837"
       d="m 5.05,2.322 c 0.213,0 0.386,-0.173 0.386,-0.386 0,-0.213 -0.173,-0.386 -0.386,-0.386 -0.213,0 -0.386,0.173 -0.386,0.386 0,0.213 0.173,0.386 0.386,0.386 z" /><path
       style="fill:#017afb;fill-opacity:1"
       id="path839"
       d="m 13.301,2.336 h 8.818 c 0.221,0 0.4,-0.18 0.4,-0.4 0,-0.22 -0.179,-0.4 -0.4,-0.4 h -8.818 c -0.221,0 -0.4,0.18 -0.4,0.4 0,0.22 0.18,0.4 0.4,0.4 z" /><path
       style="fill:#017afb;fill-opacity:1"
       id="path841"
       d="M 23.41,0.005 H 0.59 c -0.31,0 -0.56,0.25 -0.56,0.56 v 17.41 c 0,0.18 0.09,0.33 0.22,0.43 0,0.01 0,0.01 0,0.01 0.02,0.02 0.04,0.02 0.06,0.04 0.03,0.01 0.05,0.03 0.08,0.04 0.06,0.02 0.13,0.04 0.2,0.04 h 9.342 c 0.749,3.191 3.572,5.459 6.902,5.459 3.659,0 6.704,-2.744 7.083,-6.395 0.004,-0.046 0.003,-0.093 0.006,-0.139 0.006,-0.036 0.012,-0.064 0.017,-0.078 0,-0.01 0,-0.043 0,-0.043 0.02,-0.05 0.03,-1.327 0.03,-1.387 V 0.565 c 0,-0.31 -0.25,-0.56 -0.56,-0.56 z m -0.355,17.991 v 0.003 c -0.538,3.011 -3.154,5.196 -6.22,5.196 -3.061,0 -5.672,-2.186 -6.21,-5.198 -0.052,-0.261 -0.084,-0.533 -0.095,-0.818 -0.01,-0.093 -0.01,-0.195 -0.01,-0.299 0,-3.488 2.833,-6.326 6.315,-6.326 2.784,0 5.277,1.863 6.062,4.531 0.172,0.573 0.264,1.194 0.264,1.795 -0.001,0.403 -0.036,0.778 -0.106,1.116 z M 16.11,9.435 h 1.447 V 9.808 L 17.472,9.801 c -0.416,-0.037 -0.859,-0.037 -1.277,0 L 16.11,9.808 Z M 15.157,8.646 c -0.103,0 -0.165,-0.062 -0.165,-0.165 0,-0.099 0.066,-0.164 0.165,-0.164 h 3.366 c 0.098,0 0.164,0.065 0.164,0.164 0,0.104 -0.061,0.165 -0.164,0.165 h -0.57 z m 8.043,5.107 c -0.033,-0.065 -0.057,-0.132 -0.092,-0.196 -0.395,-0.748 -0.911,-1.411 -1.536,-1.973 l 0.305,-0.306 0.284,0.283 c 0.081,0.081 0.199,0.11 0.275,0.11 0.077,0 0.195,-0.029 0.278,-0.114 0.148,-0.162 0.148,-0.39 -0.003,-0.556 L 21.593,9.883 c -0.152,-0.152 -0.397,-0.152 -0.55,0 -0.162,0.162 -0.162,0.397 0,0.56 l 0.275,0.275 -0.347,0.354 C 20.159,10.511 19.277,10.126 18.347,9.925 v -0.49 h 0.175 c 0.535,0 0.954,-0.419 0.954,-0.954 0,-0.534 -0.419,-0.953 -0.954,-0.953 h -3.366 c -0.535,0 -0.954,0.419 -0.954,0.953 0,0.535 0.419,0.954 0.954,0.954 h 0.164 v 0.491 c -0.925,0.201 -1.804,0.587 -2.613,1.147 l -0.355,-0.354 0.283,-0.275 c 0.079,-0.078 0.123,-0.178 0.123,-0.28 0,-0.102 -0.044,-0.201 -0.123,-0.279 -0.151,-0.152 -0.398,-0.152 -0.55,0 l -1.06,1.061 c -0.082,0.074 -0.126,0.173 -0.126,0.278 0,0.105 0.045,0.204 0.115,0.267 0.078,0.095 0.197,0.128 0.282,0.128 0.085,0 0.204,-0.033 0.273,-0.118 l 0.231,-0.223 0.307,0.308 c -1.512,1.36 -2.377,3.283 -2.377,5.295 0,0.111 0,0.212 0.011,0.316 0.008,0.222 0.025,0.402 0.047,0.57 H 0.8 v -13.9 h 22.4 z m 0,-10.658 H 0.8 v -2.32 h 22.4 z" /><path
       style="fill:#017afb;fill-opacity:1"
       id="path843"
       d="m 22.173,16.498 c -0.228,0 -0.382,0.153 -0.382,0.382 0,0.207 -0.015,0.434 -0.044,0.657 -0.016,0.125 -0.042,0.247 -0.068,0.37 l -0.007,0.034 c -0.487,2.252 -2.521,3.886 -4.837,3.886 -2.311,0 -4.34,-1.634 -4.828,-3.889 -0.125,-0.522 -0.153,-1.127 -0.078,-1.703 0.077,-0.599 0.261,-1.171 0.546,-1.701 0.279,-0.519 0.644,-0.979 1.084,-1.37 0.444,-0.393 0.948,-0.7 1.498,-0.912 0.567,-0.219 1.165,-0.33 1.777,-0.33 0.228,0 0.381,-0.153 0.381,-0.381 0,-0.221 -0.161,-0.382 -0.381,-0.382 -0.15,0 -0.299,0.006 -0.449,0.018 -0.632,0.049 -1.246,0.201 -1.825,0.453 -0.562,0.244 -1.079,0.577 -1.537,0.988 -0.456,0.409 -0.841,0.887 -1.145,1.417 -0.311,0.542 -0.528,1.127 -0.648,1.739 -0.144,0.735 -0.144,1.501 -0.002,2.214 0.531,2.666 2.889,4.602 5.606,4.602 2.723,0 5.085,-1.936 5.616,-4.602 0.068,-0.344 0.105,-0.727 0.105,-1.108 0,-0.221 -0.161,-0.382 -0.382,-0.382 z" /><path
       style="fill:#017afb;fill-opacity:1"
       id="path845"
       d="m 16.485,12.955 v 0.981 c 0,0.205 0.155,0.36 0.36,0.36 0.208,0 0.36,-0.151 0.36,-0.36 v -0.611 c 1.812,0.179 3.213,1.717 3.213,3.554 0,0.091 0,0.172 -0.009,0.266 -0.016,0.209 -0.055,0.44 -0.118,0.703 -0.406,1.414 -1.637,2.44 -3.086,2.586 v -0.611 c 0,-0.209 -0.152,-0.36 -0.36,-0.36 -0.205,0 -0.36,0.155 -0.36,0.36 v 0.981 c 0,0.209 0.152,0.36 0.36,0.36 1.99,0 3.704,-1.34 4.168,-3.258 0.059,-0.246 0.097,-0.489 0.116,-0.74 0.01,-0.089 0.01,-0.188 0.01,-0.287 0,-2.367 -1.927,-4.294 -4.294,-4.294 -0.208,-0.001 -0.36,0.156 -0.36,0.37 z" /><path
       style="fill:#017afb;fill-opacity:1"
       id="path847"
       d="m 14.147,13.821 c -0.202,0 -0.361,0.158 -0.361,0.36 0,0.195 0.166,0.36 0.361,0.36 0.195,0 0.36,-0.165 0.36,-0.36 10e-4,-0.202 -0.157,-0.36 -0.36,-0.36 z" /><path
       style="fill:#017afb;fill-opacity:1"
       id="path849"
       d="m 12.806,16.878 c 0,0.195 0.165,0.361 0.36,0.361 0.195,0 0.361,-0.166 0.361,-0.361 0,-0.195 -0.166,-0.36 -0.361,-0.36 -0.195,0 -0.36,0.165 -0.36,0.36 z" /><path
       style="fill:#017afb;fill-opacity:1"
       id="path851"
       d="m 14.147,19.216 c -0.195,0 -0.361,0.165 -0.361,0.36 0,0.202 0.159,0.36 0.361,0.36 0.202,0 0.36,-0.158 0.36,-0.36 10e-4,-0.195 -0.164,-0.36 -0.36,-0.36 z" /><path
       style="fill:#017afb;fill-opacity:1"
       id="path853"
       d="M 19.246,14.476 19.238,14.468 C 19.081,14.323 18.86,14.323 18.7,14.472 l -1.137,1.146 c -0.224,-0.121 -0.479,-0.187 -0.729,-0.187 -0.812,0 -1.448,0.636 -1.448,1.447 0,0.122 0.014,0.225 0.043,0.318 0.065,0.346 0.267,0.652 0.569,0.861 0.244,0.175 0.533,0.268 0.835,0.268 0.302,0 0.591,-0.093 0.834,-0.267 0.303,-0.21 0.505,-0.517 0.567,-0.851 0.032,-0.105 0.046,-0.208 0.046,-0.33 0,-0.258 -0.062,-0.513 -0.177,-0.729 L 19.24,15.01 c 0.147,-0.141 0.149,-0.378 0.006,-0.534 z m -1.772,2.661 c -0.099,0.259 -0.35,0.426 -0.64,0.426 -0.29,0 -0.542,-0.168 -0.639,-0.423 -0.03,-0.089 -0.045,-0.18 -0.045,-0.261 0,-0.391 0.294,-0.685 0.684,-0.685 0.053,0 0.1,0.004 0.141,0.011 l -0.407,0.408 c -0.146,0.146 -0.146,0.385 0,0.532 0.069,0.067 0.178,0.115 0.266,0.115 0.087,0 0.185,-0.04 0.276,-0.116 l 0.399,-0.399 c 0.006,0.041 0.009,0.085 0.009,0.134 0,0.081 -0.015,0.17 -0.044,0.258 z" /><path
       style="fill:#017afb;fill-opacity:1"
       id="path855"
       d="m 2.255,15.745 c -0.331,0 -0.599,0.268 -0.599,0.599 0,0.331 0.268,0.599 0.599,0.599 0.331,0 0.599,-0.268 0.599,-0.599 C 2.853,16.013 2.585,15.745 2.255,15.745 Z" /><path
       style="fill:#017afb;fill-opacity:1"
       id="path857"
       d="m 4.897,15.745 c -0.331,0 -0.599,0.268 -0.599,0.599 0,0.331 0.268,0.599 0.599,0.599 0.331,0 0.599,-0.268 0.599,-0.599 C 5.495,16.013 5.227,15.745 4.897,15.745 Z" /><path
       style="fill:#017afb;fill-opacity:1"
       id="path859"
       d="m 7.539,15.745 c -0.331,0 -0.599,0.268 -0.599,0.599 0,0.331 0.268,0.599 0.599,0.599 0.331,0 0.599,-0.268 0.599,-0.599 C 8.137,16.013 7.869,15.745 7.539,15.745 Z" /><path
       style="fill:#017afb;fill-opacity:1"
       id="path861"
       d="m 1.838,13.396 h 5.341 l -1.373,0.868 c -0.187,0.118 -0.242,0.365 -0.124,0.552 0.076,0.12 0.206,0.187 0.338,0.187 0.073,0 0.147,-0.021 0.213,-0.062 l 2.54,-1.606 C 8.89,13.26 8.96,13.132 8.96,12.996 8.96,12.86 8.89,12.731 8.774,12.658 L 6.234,11.051 C 6.046,10.933 5.8,10.988 5.682,11.175 5.564,11.362 5.62,11.609 5.806,11.727 l 1.373,0.869 H 1.838 c -0.221,0 -0.4,0.18 -0.4,0.4 0,0.22 0.179,0.4 0.4,0.4 z" /><path
       style="fill:#017afb;fill-opacity:1"
       id="path863"
       d="M 1.838,5.832 H 8.56 c 0.221,0 0.4,-0.18 0.4,-0.4 0,-0.22 -0.179,-0.4 -0.4,-0.4 H 1.838 c -0.221,0 -0.4,0.18 -0.4,0.4 0,0.22 0.179,0.4 0.4,0.4 z" /><path
       style="fill:#017afb;fill-opacity:1"
       id="path865"
       d="M 1.838,9.814 H 8.56 c 0.221,0 0.4,-0.18 0.4,-0.4 0,-0.22 -0.179,-0.4 -0.4,-0.4 H 1.838 c -0.221,0 -0.4,0.18 -0.4,0.4 0,0.22 0.179,0.4 0.4,0.4 z" /><path
       style="fill:#017afb;fill-opacity:1"
       id="path867"
       d="M 1.838,7.839 H 8.56 c 0.221,0 0.4,-0.18 0.4,-0.4 0,-0.006 -0.003,-0.01 -0.003,-0.016 0,-0.006 0.003,-0.01 0.003,-0.016 0,-0.221 -0.179,-0.4 -0.4,-0.4 H 1.838 c -0.221,0 -0.4,0.18 -0.4,0.4 0,0.006 0.003,0.01 0.003,0.016 0,0.006 -0.003,0.01 -0.003,0.016 0,0.221 0.179,0.4 0.4,0.4 z" /></g></svg>
