<?xml version="1.0" encoding="UTF-8" standalone="no"?>
<svg
   xmlns:dc="http://purl.org/dc/elements/1.1/"
   xmlns:cc="http://creativecommons.org/ns#"
   xmlns:rdf="http://www.w3.org/1999/02/22-rdf-syntax-ns#"
   xmlns:svg="http://www.w3.org/2000/svg"
   xmlns="http://www.w3.org/2000/svg"
   xmlns:sodipodi="http://sodipodi.sourceforge.net/DTD/sodipodi-0.dtd"
   xmlns:inkscape="http://www.inkscape.org/namespaces/inkscape"
   inkscape:version="1.0 (4035a4f, 2020-05-01)"
   height="75.999001"
   width="59.992001"
   sodipodi:docname="noun_Location_74739.svg"
   id="svg41849"
   xml:space="preserve"
   enable-background="new 0 0 100 100"
   viewBox="0 0 59.992001 75.999001"
   y="0px"
   x="0px"
   version="1.1"><metadata
     id="metadata41855"><rdf:RDF><cc:Work
         rdf:about=""><dc:format>image/svg+xml</dc:format><dc:type
           rdf:resource="http://purl.org/dc/dcmitype/StillImage" /><dc:title></dc:title></cc:Work></rdf:RDF></metadata><defs
     id="defs41853" /><sodipodi:namedview
     inkscape:current-layer="svg41849"
     inkscape:window-maximized="0"
     inkscape:window-y="23"
     inkscape:window-x="1366"
     inkscape:cy="67.001334"
     inkscape:cx="-10.260522"
     inkscape:zoom="2.3952167"
     fit-margin-bottom="0"
     fit-margin-right="0"
     fit-margin-left="0"
     fit-margin-top="0"
     showgrid="false"
     id="namedview41851"
     inkscape:window-height="816"
     inkscape:window-width="1406"
     inkscape:pageshadow="2"
     inkscape:pageopacity="0"
     guidetolerance="10"
     gridtolerance="10"
     objecttolerance="10"
     borderopacity="1"
     bordercolor="#666666"
     pagecolor="#ffffff" /><g
     transform="translate(-20.004,-12.5)"
     style="fill:#057afd;fill-opacity:1;stroke:none;stroke-opacity:1"
     id="g41843"><g
       style="fill:#057afd;fill-opacity:1;stroke:none;stroke-opacity:1"
       id="g41841"><path
         style="fill:#057afd;fill-opacity:1;stroke:none;stroke-opacity:1"
         id="path41839"
         d="m 62.659,67.539 -2.196,2.596 c 9.144,1.162 15.534,3.797 15.534,6.865 0,4.144 -11.64,7.503 -25.997,7.503 -14.357,0 -25.997,-3.359 -25.997,-7.503 0,-3.068 6.391,-5.703 15.534,-6.865 L 37.341,67.539 C 27.11,69.291 20.004,73.087 20.004,77.5 c 0,6.074 13.43,10.999 29.996,10.999 16.566,0 29.996,-4.925 29.996,-10.999 0,-4.413 -7.105,-8.209 -17.337,-9.961 z M 75.143,37.643 C 75.143,23.757 63.885,12.5 50,12.5 36.114,12.5 24.857,23.757 24.857,37.643 24.857,51.529 50,79.548 50,79.548 c 0,0 25.143,-28.019 25.143,-41.905 z M 50,16.69 c 11.57,0 20.952,9.499 20.952,21.215 C 70.952,49.621 50,73.262 50,73.262 50,73.262 29.048,49.62 29.048,37.904 29.048,26.188 38.429,16.69 50,16.69 Z m 10.477,18.858 c 0,-5.786 -4.69,-10.477 -10.477,-10.477 -5.785,0 -10.476,4.691 -10.476,10.477 0,5.785 4.691,10.476 10.476,10.476 5.787,0 10.477,-4.691 10.477,-10.476 z m -16.763,0 c 0,-3.472 2.815,-6.286 6.286,-6.286 3.473,0 6.286,2.814 6.286,6.286 0,3.471 -2.813,6.285 -6.286,6.286 -3.472,0 -6.286,-2.815 -6.286,-6.286 z" /></g></g></svg>
