<?xml version="1.0" encoding="UTF-8" standalone="no"?>
<svg
   xmlns:dc="http://purl.org/dc/elements/1.1/"
   xmlns:cc="http://creativecommons.org/ns#"
   xmlns:rdf="http://www.w3.org/1999/02/22-rdf-syntax-ns#"
   xmlns:svg="http://www.w3.org/2000/svg"
   xmlns="http://www.w3.org/2000/svg"
   xmlns:sodipodi="http://sodipodi.sourceforge.net/DTD/sodipodi-0.dtd"
   xmlns:inkscape="http://www.inkscape.org/namespaces/inkscape"
   inkscape:version="1.0 (4035a4f, 2020-05-01)"
   height="40.443001"
   width="48.738998"
   sodipodi:docname="noun_Map_2042813.svg"
   id="svg44648"
   xml:space="preserve"
   enable-background="new 7.5 7.5 50 50"
   viewBox="7.5 7.5 48.738998 40.443001"
   y="0px"
   x="0px"
   version="1.1"><metadata
     id="metadata44654"><rdf:RDF><cc:Work
         rdf:about=""><dc:format>image/svg+xml</dc:format><dc:type
           rdf:resource="http://purl.org/dc/dcmitype/StillImage" /><dc:title></dc:title></cc:Work></rdf:RDF></metadata><defs
     id="defs44652" /><sodipodi:namedview
     fit-margin-bottom="0"
     fit-margin-right="0"
     fit-margin-left="0"
     fit-margin-top="0"
     inkscape:current-layer="svg44648"
     inkscape:window-maximized="0"
     inkscape:window-y="23"
     inkscape:window-x="1366"
     inkscape:cy="11.572199"
     inkscape:cx="13.734441"
     inkscape:zoom="6.5065841"
     showgrid="false"
     id="namedview44650"
     inkscape:window-height="735"
     inkscape:window-width="1159"
     inkscape:pageshadow="2"
     inkscape:pageopacity="0"
     guidetolerance="10"
     gridtolerance="10"
     objecttolerance="10"
     borderopacity="1"
     bordercolor="#666666"
     pagecolor="#ffffff" /><path
     style="fill:#057afd;fill-opacity:1"
     id="path44640"
     d="M 56.226,7.937 C 56.223,7.915 56.228,7.894 56.222,7.872 56.219,7.86 56.21,7.852 56.206,7.84 56.194,7.807 56.179,7.778 56.161,7.749 56.144,7.722 56.13,7.696 56.109,7.673 56.088,7.649 56.063,7.63 56.038,7.61 56.013,7.591 55.989,7.572 55.96,7.558 55.932,7.544 55.902,7.536 55.871,7.527 55.839,7.518 55.808,7.51 55.773,7.507 55.761,7.506 55.751,7.5 55.738,7.5 55.716,7.5 55.696,7.51 55.675,7.513 55.653,7.516 55.632,7.511 55.61,7.517 L 39.826,11.715 24.042,7.517 c -0.01,-0.003 -0.02,0 -0.03,-0.002 C 23.991,7.511 23.97,7.509 23.948,7.507 23.936,7.506 23.926,7.5 23.914,7.5 23.902,7.5 23.891,7.506 23.879,7.507 23.858,7.509 23.837,7.511 23.817,7.515 23.806,7.517 23.796,7.514 23.786,7.517 L 7.872,11.749 C 7.86,11.752 7.852,11.761 7.84,11.765 7.807,11.776 7.778,11.793 7.749,11.81 7.722,11.826 7.696,11.841 7.673,11.861 7.649,11.883 7.63,11.907 7.61,11.933 7.591,11.958 7.572,11.982 7.558,12.011 7.544,12.038 7.537,12.068 7.528,12.097 7.518,12.131 7.51,12.163 7.507,12.198 7.506,12.21 7.5,12.22 7.5,12.232 v 35.211 c 0,0.022 0.01,0.041 0.013,0.063 0.003,0.022 -0.002,0.044 0.004,0.066 0.002,0.009 0.011,0.012 0.014,0.02 0.029,0.093 0.082,0.171 0.155,0.231 0.014,0.012 0.027,0.019 0.043,0.028 0.079,0.053 0.168,0.091 0.271,0.092 0,0 0,0 0,0 0,0 0,0 0,0 v 0 c 0,0 0,0 10e-4,0 0.042,0 0.085,-0.005 0.127,-0.017 l 15.784,-4.198 15.784,4.198 c 0.043,0.012 0.087,0.017 0.129,0.017 0.042,0 0.086,-0.005 0.129,-0.017 l 15.913,-4.232 c 0.012,-0.003 0.021,-0.012 0.032,-0.016 0.032,-0.012 0.061,-0.027 0.09,-0.045 0.027,-0.016 0.054,-0.031 0.077,-0.052 0.023,-0.021 0.042,-0.046 0.063,-0.071 0.019,-0.025 0.038,-0.05 0.052,-0.078 0.015,-0.028 0.022,-0.058 0.03,-0.088 0.01,-0.033 0.018,-0.064 0.021,-0.1 10e-4,-0.012 0.007,-0.021 0.007,-0.034 V 8 c 0,-0.022 -0.01,-0.041 -0.013,-0.063 z m -15.9,4.681 11.448,-3.045 c -0.432,3.944 -4.691,7.529 -11.448,10.259 z m -1,7.601 c -4.195,1.587 -9.262,2.856 -14.913,3.704 V 8.651 l 14.913,3.967 z m -15.913,3.85 C 18.764,24.717 13.742,25.08 8.5,25.101 V 12.618 L 23.413,8.651 Z M 8.501,26.101 C 13.759,26.08 18.775,25.73 23.414,25.098 V 42.827 L 8.501,46.793 Z m 15.912,10.741 c 5.427,-0.03 10.492,-0.557 14.913,-1.475 V 46.793 L 24.413,42.826 Z m 0,-1 v -10.89 c 5.635,-0.828 10.686,-2.072 14.913,-3.643 v 13.026 c -4.418,0.932 -9.499,1.476 -14.913,1.507 z M 40.326,20.926 C 47.877,17.933 52.541,13.863 52.795,9.301 l 2.444,-0.65 v 15.571 c 0,4.178 -5.973,7.847 -14.913,9.896 z m 14.913,21.9 -6.933,1.844 c 0.235,-5.173 3.211,-9.317 6.933,-9.663 z m 0,-8.82 c -4.334,0.343 -7.794,5.076 -7.942,10.933 l -6.971,1.854 V 35.149 C 47.67,33.49 53.101,30.734 55.239,27.412 Z" /><path
     style="fill:#057afd;fill-opacity:1"
     id="path44642"
     d="m 15.683,32.597 c -1.964,0 -3.563,1.598 -3.563,3.563 0,1.965 1.598,3.563 3.563,3.563 1.965,0 3.563,-1.598 3.563,-3.563 0,-1.965 -1.599,-3.563 -3.563,-3.563 z m 0,6.125 c -1.413,0 -2.563,-1.149 -2.563,-2.563 0,-1.414 1.149,-2.563 2.563,-2.563 1.414,0 2.563,1.149 2.563,2.563 0,1.414 -1.15,2.563 -2.563,2.563 z" /></svg>
