<?xml version="1.0" encoding="UTF-8" standalone="no"?>
<svg
   xmlns:dc="http://purl.org/dc/elements/1.1/"
   xmlns:cc="http://creativecommons.org/ns#"
   xmlns:rdf="http://www.w3.org/1999/02/22-rdf-syntax-ns#"
   xmlns:svg="http://www.w3.org/2000/svg"
   xmlns="http://www.w3.org/2000/svg"
   xmlns:sodipodi="http://sodipodi.sourceforge.net/DTD/sodipodi-0.dtd"
   xmlns:inkscape="http://www.inkscape.org/namespaces/inkscape"
   inkscape:version="1.0 (4035a4f, 2020-05-01)"
   height="27.40522"
   width="62.731758"
   sodipodi:docname="noun_public transport app_1182593.svg"
   id="svg43429"
   xml:space="preserve"
   viewBox="0 0 62.731758 27.40522"
   y="0px"
   x="0px"
   version="1.1"><metadata
     id="metadata43435"><rdf:RDF><cc:Work
         rdf:about=""><dc:format>image/svg+xml</dc:format><dc:type
           rdf:resource="http://purl.org/dc/dcmitype/StillImage" /><dc:title></dc:title></cc:Work></rdf:RDF></metadata><defs
     id="defs43433" /><sodipodi:namedview
     inkscape:current-layer="svg43429"
     inkscape:window-maximized="0"
     inkscape:window-y="23"
     inkscape:window-x="1366"
     inkscape:cy="13.500105"
     inkscape:cx="26.562649"
     inkscape:zoom="5.432"
     fit-margin-bottom="0"
     fit-margin-right="0"
     fit-margin-left="0"
     fit-margin-top="0"
     showgrid="false"
     id="namedview43431"
     inkscape:window-height="781"
     inkscape:window-width="1162"
     inkscape:pageshadow="2"
     inkscape:pageopacity="0"
     guidetolerance="10"
     gridtolerance="10"
     objecttolerance="10"
     borderopacity="1"
     bordercolor="#666666"
     pagecolor="#ffffff" /><g
     transform="translate(-17.730429,-39.242899)"
     style="fill:#057afd;fill-opacity:1"
     id="g44021"><path
       style="fill:#057afd;fill-opacity:1"
       id="path43401"
       d="m 54.954277,46.609257 h -0.10135 v -0.24613 c 0,-0.36195 -0.28957,-0.65152 -0.65152,-0.65152 h -0.34748 v -0.37643 c 0,-0.79631 -0.63705,-1.43335 -1.43335,-1.43335 h -7.21018 c -0.7963,0 -1.43335,0.63704 -1.43335,1.43335 v 0.37643 h -0.34748 c -0.36195,0 -0.65152,0.28957 -0.65152,0.65152 v 0.24613 h -0.05791 c -0.21717,0 -0.40539,0.17374 -0.40539,0.40539 v 1.70844 c 0,0.21717 0.17374,0.40539 0.40539,0.40539 h 0.41987 c 0.21717,0 0.40539,-0.17374 0.40539,-0.40539 v -1.72291 c 0,-0.21717 -0.17374,-0.40539 -0.40539,-0.40539 h -0.04344 v -0.24613 c 0,-0.18822 0.15926,-0.34748 0.34748,-0.34748 h 0.34748 v 8.28157 c 0,0.37643 0.27509,0.68048 0.62257,0.75287 v 0.50674 c 0,0.23165 0.18822,0.40539 0.40539,0.40539 h 1.02796 c 0.23165,0 0.40539,-0.18822 0.40539,-0.40539 v -0.49226 h 5.16874 v 0.49226 c 0,0.23165 0.18822,0.40539 0.40539,0.40539 h 1.02796 c 0.23165,0 0.40539,-0.18822 0.40539,-0.40539 v -0.50674 c 0.333,-0.07239 0.59361,-0.37643 0.59361,-0.73839 v -8.28157 h 0.34748 c 0.18822,0 0.34748,0.15926 0.34748,0.34748 v 0.24613 h -0.02896 c -0.21717,0 -0.40539,0.17374 -0.40539,0.40539 v 1.70844 c 0,0.21717 0.17374,0.40539 0.40539,0.40539 h 0.41987 c 0.21717,0 0.40539,-0.17374 0.40539,-0.40539 v -1.72291 c 0.01448,-0.21719 -0.17374,-0.39093 -0.39091,-0.39093 z m -9.1937,-1.62157 c 0,-0.15926 0.13031,-0.27509 0.27509,-0.27509 h 5.71891 c 0.15926,0 0.27509,0.1303 0.27509,0.27509 v 0.43435 c 0,0.15926 -0.1303,0.27509 -0.27509,0.27509 h -5.71891 c -0.15926,0 -0.27509,-0.1303 -0.27509,-0.27509 z m 0.27509,8.84622 h -1.40439 c -0.10135,0 -0.17374,-0.08687 -0.17374,-0.17374 l 0.01448,-0.63704 c 0,-0.10135 0.10135,-0.18822 0.2027,-0.17374 l 1.37543,0.23166 c 0.08687,0.01448 0.14478,0.08687 0.14478,0.15926 l 0.01448,0.39091 c 0.01447,0.11582 -0.0724,0.20269 -0.17374,0.20269 z m -1.12931,-1.665 c -0.24613,-0.07239 -0.44883,-0.333 -0.44883,-0.59361 v -4.71991 c 0,-0.34748 0.28957,-0.62257 0.62257,-0.62257 h 7.51422 c 0.34748,0 0.63704,0.28957 0.62256,0.62257 0,1.57813 0,3.14178 0,4.71991 0,0.24613 -0.20269,0.52122 -0.44883,0.59361 -2.56264,0.70944 -5.28456,0.70944 -7.86169,0 z m 6.55866,1.47678 0.01448,-0.39091 c 0,-0.08687 0.05791,-0.14478 0.14478,-0.15926 l 1.37543,-0.23165 c 0.10135,-0.01448 0.2027,0.05791 0.2027,0.17374 l 0.01448,0.63704 c 0,0.10135 -0.07239,0.17374 -0.17374,0.17374 h -1.40439 c -0.08687,-0.01448 -0.17374,-0.10135 -0.17374,-0.2027 z" /><circle
       style="fill:#057afd;fill-opacity:1"
       id="circle43403"
       r="0.47205001"
       cy="20.98823"
       cx="-62.991959"
       transform="rotate(-90)" /><path
       style="fill:#057afd;fill-opacity:1"
       id="path43405"
       d="m 61.629479,39.242899 h -0.77625 v 21.36377 h 0.77625 z m 12.42627,26.13434 c 0.67035,0.77228 1.6474,1.27087 2.75031,1.27087 2.01923,0 3.65613,-1.63696 3.65613,-3.65619 0,-2.01923 -1.6369,-3.65613 -3.65613,-3.65613 -1.10291,0 -2.07996,0.4986 -2.75031,1.27087 h -12.42627 v 4.77057 l 12.42627,1e-5 c 0,-1e-5 0,0 0,0 z m 0.3728,-2.38531 4.66302,-1.60272 -1.69769,1.60272 1.69769,1.60278 z m -53.04199,-3.65613 c -2.01923,0 -3.65613,1.6369 -3.65613,3.65613 0,2.01923 1.6369,3.65619 3.65613,3.65619 1.10291,0 2.07996,-0.4986 2.75031,-1.27087 h 11.89435 v -4.77057 h -11.89435 c -0.67035,-0.77228 -1.6474,-1.27088 -2.75031,-1.27088 z m 2.00507,3.60254 c 0.02539,0.03137 0.0257,0.07587 3.1e-4,0.10724 -0.20044,0.24707 -1.37823,1.26715 -2.40369,1.26715 -0.7204,0 -1.30615,-0.57684 -1.3205,-1.29382 -0.01501,-0.74817 0.6134,-1.36694 1.36145,-1.34723 1.00757,0.02649 2.16407,1.02227 2.36243,1.26666 z m 12.63959,-23.69544 v 21.36377 h 0.77625 v -21.36377 z m 0.77624,26.13434 h 24.04578 v -4.77057 h -24.04578 z" /><g
       style="fill:#057afd;fill-opacity:1"
       id="g43415"
       transform="translate(-24.008506,21.280764)"><path
         style="fill:#057afd;fill-opacity:1"
         id="path43411"
         d="m 54.01944,23.49014 h -4.54119 c -0.57819,0 -1.05125,0.47306 -1.05125,1.05125 v 7.80175 c 0,0.41202 0.33711,0.74912 0.74911,0.74912 h 0.40551 l -0.37613,1.33675 c -0.02792,0.09949 0.02999,0.20289 0.12961,0.23093 0.01695,0.0049 0.03402,0.0071 0.05084,0.0071 0.08181,0 0.15692,-0.05389 0.18021,-0.13655 l 0.1609,-0.57183 h 4.04374 l 0.16094,0.57183 c 0.02317,0.08266 0.09827,0.13655 0.18021,0.13655 0.01658,0 0.03365,-0.0022 0.05072,-0.0071 0.09949,-0.02805 0.15753,-0.13144 0.12949,-0.23093 l -0.18463,-0.65635 c 0,-4.7e-4 2.7e-4,-8.5e-4 2.7e-4,-0.0013 0,-0.03294 -0.01079,-0.06232 -0.02574,-0.08922 l -0.16591,-0.58986 h 0.40543 c 0.41202,0 0.74911,-0.3371 0.74911,-0.74912 v -7.80174 c 10e-6,-0.57819 -0.47305,-1.05125 -1.05124,-1.05125 z m -4.33163,0.77748 c 0,-0.12536 0.10257,-0.22793 0.22792,-0.22793 h 3.77676 c 0.12535,0 0.22791,0.10257 0.22791,0.22793 v 0.35705 c 0,0.12536 -0.10255,0.22793 -0.22791,0.22793 h -3.77676 c -0.12535,0 -0.22792,-0.10257 -0.22792,-0.22793 z m -0.59087,7.83616 c -0.06167,4.1e-4 -0.11152,-0.06535 -0.11045,-0.14569 l 0.007,-0.52547 c 0.0012,-0.08771 0.06205,-0.15344 0.12841,-0.13866 l 0.86716,0.19319 c 0.05077,0.01131 0.0887,0.06705 0.09125,0.13409 l 0.01236,0.32648 c 0.0031,0.08148 -0.04661,0.14985 -0.10921,0.15026 z m 0.7355,1.48028 0.13229,-0.47015 c 0.002,-0.0073 4.7e-4,-0.01437 0.0016,-0.02166 h 3.56507 c 0.0011,0.0073 -4.3e-4,0.01439 0.0016,0.02166 l 0.13232,0.47015 z m 4.56833,-1.48028 -0.88654,-0.0058 c -0.06261,-4.1e-4 -0.11231,-0.06878 -0.10921,-0.15026 l 0.01237,-0.32648 c 0.0025,-0.06705 0.04047,-0.12278 0.09125,-0.13409 l 0.86714,-0.19319 c 0.06638,-0.01478 0.12725,0.05095 0.12842,0.13866 l 0.007,0.52547 c 0.0011,0.08035 -0.04878,0.14612 -0.11044,0.1457 z m 0.29607,-2.18461 c -9e-5,0.21648 -0.13424,0.44887 -0.29948,0.50831 -1.72467,0.61161 -3.54472,0.61161 -5.26937,0 -0.16526,-0.05944 -0.2994,-0.29183 -0.29948,-0.50831 v -4.09004 c -1.2e-4,-0.29823 0.18946,-0.54388 0.42119,-0.54564 h 5.02593 c 0.23175,0.0018 0.4213,0.2474 0.42121,0.54564 -2e-5,1.36335 -2e-5,2.72669 0,4.09004 z" /><path
         style="fill:#057afd;fill-opacity:1"
         id="path43413"
         d="m 50.40137,22.99557 h 1.22256 v 0.49453 h 0.24971 v -0.49453 h 1.22268 c 0.10339,0 0.18728,-0.08389 0.18728,-0.18728 0,-0.10339 -0.08388,-0.18728 -0.18727,-0.18728 h -2.69494 c -0.10339,0 -0.18728,0.08389 -0.18728,0.18728 0,0.10339 0.08387,0.18728 0.18726,0.18728 z" /></g><g
       style="fill:#057afd;fill-opacity:1"
       id="g43421"
       transform="translate(18.705709,-21.433463)"><circle
         style="fill:#057afd;fill-opacity:1"
         id="circle43417"
         r="1.20231"
         cy="66.537552"
         cx="52.35424" /><path
         style="fill:#057afd;fill-opacity:1"
         id="path43419"
         d="m 55.36605,71.4185 -1.7275,-1.20003 -0.95628,-1.83693 c -0.02026,-0.03889 -0.04719,-0.07161 -0.07702,-0.10059 -0.0797,-0.08696 -0.18513,-0.15155 -0.30873,-0.17743 l -0.90714,-0.16278 c -0.0017,-3.1e-4 -0.0033,-1.8e-4 -0.0049,-4.7e-4 -0.12152,-0.0287 -0.25447,-6.1e-4 -0.35502,0.08826 l -1.6288,1.43774 c -0.004,0.0035 -0.0067,0.0078 -0.01052,0.01135 -0.01031,0.0098 -0.01976,0.02037 -0.02904,0.03136 -0.0082,0.0097 -0.01616,0.01941 -0.0233,0.02971 -0.0071,0.01027 -0.01338,0.0211 -0.01958,0.03218 -0.007,0.01254 -0.01358,0.02509 -0.01915,0.03819 -0.0021,0.0048 -0.0051,0.0089 -0.007,0.01387 l -0.78367,2.05716 c -0.07817,0.20537 0.02487,0.43529 0.23024,0.51353 0.04663,0.01775 0.09449,0.02615 0.14158,0.02615 0.16036,0 0.31146,-0.09766 0.37195,-0.25633 l 0.74874,-1.96555 0.54485,-0.48094 -0.31077,2.86427 -0.52073,2.02911 -1.62872,1.80356 c -0.17921,0.19844 -0.1636,0.50452 0.03484,0.68379 0.09262,0.08368 0.20868,0.12488 0.32435,0.12488 0.13219,0 0.26385,-0.05389 0.35945,-0.15971 l 1.70807,-1.89142 c 0.0039,-0.0044 0.0064,-0.0094 0.01017,-0.01384 0.01375,-0.01633 0.02645,-0.03348 0.03805,-0.05174 0.0057,-0.0089 0.01112,-0.01781 0.01616,-0.02702 0.009,-0.01637 0.01659,-0.03355 0.0237,-0.05119 0.0042,-0.01051 0.0089,-0.02077 0.01239,-0.03149 0.0011,-0.0033 0.0028,-0.0063 0.0038,-0.0097 l 0.58515,-1.94426 0.009,0.0026 1.06668,1.74718 0.85295,2.46338 c 0.0693,0.20026 0.25686,0.3259 0.45751,0.3259 0.05246,0 0.10596,-0.0087 0.15842,-0.02682 0.25272,-0.08755 0.38652,-0.36319 0.29909,-0.61592 L 53.1754,74.2261 c -2.6e-4,-7.6e-4 -7.2e-4,-0.0014 -9.9e-4,-0.0021 -0.0053,-0.01511 -0.01354,-0.02946 -0.02047,-0.04422 -0.0072,-0.01527 -0.01329,-0.03127 -0.02185,-0.04549 -4e-4,-6.6e-4 -5.8e-4,-0.0014 -9.9e-4,-0.0021 l -1.07954,-2.00854 0.48248,-2.30333 0.44552,0.8558 c 0.0018,0.0035 0.0047,0.0058 0.0066,0.0092 0.0141,0.02486 0.03048,0.04846 0.05008,0.07014 0.01171,0.0132 0.02491,0.02397 0.03807,0.03532 0.0099,0.0084 0.01873,0.01778 0.02965,0.02536 l 0.01719,0.01195 c 0.0037,0.0023 0.007,0.0053 0.01079,0.0075 l 1.78003,1.2365 c 0.0693,0.04807 0.14831,0.07112 0.22668,0.07112 0.12603,0 0.24987,-0.0596 0.3272,-0.17085 0.12536,-0.18054 0.08067,-0.42847 -0.09977,-0.55385 z" /></g></g></svg>
