<?xml version="1.0" encoding="UTF-8" standalone="no"?>
<svg
   xmlns:dc="http://purl.org/dc/elements/1.1/"
   xmlns:cc="http://creativecommons.org/ns#"
   xmlns:rdf="http://www.w3.org/1999/02/22-rdf-syntax-ns#"
   xmlns:svg="http://www.w3.org/2000/svg"
   xmlns="http://www.w3.org/2000/svg"
   xmlns:sodipodi="http://sodipodi.sourceforge.net/DTD/sodipodi-0.dtd"
   xmlns:inkscape="http://www.inkscape.org/namespaces/inkscape"
   inkscape:version="1.0 (4035a4f, 2020-05-01)"
   height="76.699997"
   width="82.699997"
   sodipodi:docname="noun_day_247253.svg"
   id="svg42830"
   xml:space="preserve"
   enable-background="new 0 0 90 90"
   viewBox="0 0 82.699997 76.699997"
   y="0px"
   x="0px"
   version="1.1"><metadata
     id="metadata42836"><rdf:RDF><cc:Work
         rdf:about=""><dc:format>image/svg+xml</dc:format><dc:type
           rdf:resource="http://purl.org/dc/dcmitype/StillImage" /><dc:title></dc:title></cc:Work></rdf:RDF></metadata><defs
     id="defs42834" /><sodipodi:namedview
     inkscape:current-layer="svg42830"
     inkscape:window-maximized="0"
     inkscape:window-y="23"
     inkscape:window-x="1366"
     inkscape:cy="76.196834"
     inkscape:cx="39.246097"
     inkscape:zoom="6.0355556"
     fit-margin-bottom="0"
     fit-margin-right="0"
     fit-margin-left="0"
     fit-margin-top="0"
     showgrid="false"
     id="namedview42832"
     inkscape:window-height="761"
     inkscape:window-width="1412"
     inkscape:pageshadow="2"
     inkscape:pageopacity="0"
     guidetolerance="10"
     gridtolerance="10"
     objecttolerance="10"
     borderopacity="1"
     bordercolor="#666666"
     pagecolor="#ffffff" /><g
     transform="translate(-3.6,-5.9)"
     style="fill:#057afd;fill-opacity:1"
     id="g42474"><g
       style="fill:#057afd;fill-opacity:1"
       id="g42472"><path
         style="fill:#057afd;fill-opacity:1"
         id="path42418"
         d="m 23.8,22 v 0 C 21.7,22 20,20.3 20,18.2 V 9.7 c 0,-2.1 1.7,-3.8 3.8,-3.8 v 0 c 2.1,0 3.8,1.7 3.8,3.8 v 8.5 c 0,2.1 -1.7,3.8 -3.8,3.8 z" /><path
         style="fill:#057afd;fill-opacity:1"
         id="path42420"
         d="m 65.8,22 v 0 C 63.7,22 62,20.3 62,18.2 V 9.7 c 0,-2.1 1.7,-3.8 3.8,-3.8 v 0 c 2.1,0 3.8,1.7 3.8,3.8 v 8.5 c 0.1,2.1 -1.7,3.8 -3.8,3.8 z" /><path
         style="fill:#057afd;fill-opacity:1"
         id="path42422"
         d="m 79.3,15.9 c 2.7,0 4.9,2.2 4.9,4.9 v 54.9 c 0,2.7 -2.2,4.9 -4.9,4.9 H 10.4 C 7.7,80.6 5.5,78.4 5.5,75.7 V 20.8 c 0,-2.7 2.2,-4.9 4.9,-4.9 h 5.9 v 2.6 c 0,4.1 3.3,7.4 7.4,7.4 4.1,0 7.4,-3.3 7.4,-7.4 v -2.6 h 27.3 v 2.6 c 0,4.1 3.3,7.4 7.4,7.4 4.1,0 7.4,-3.3 7.4,-7.4 v -2.6 h 6.1 m 0,-2 h -7.9 v 4.6 c 0,3 -2.4,5.4 -5.4,5.4 -3,0 -5.4,-2.4 -5.4,-5.4 V 13.9 H 29.2 v 4.6 c 0,3 -2.4,5.4 -5.4,5.4 v 0 c -3,0 -5.4,-2.4 -5.4,-5.4 v -4.6 h -7.9 c -3.8,0 -6.9,3.1 -6.9,6.9 v 54.9 c 0,3.8 3.1,6.9 6.9,6.9 h 68.9 c 3.8,0 6.9,-3.1 6.9,-6.9 V 20.8 c 0,-3.8 -3.2,-6.9 -7,-6.9 z" /><rect
         style="fill:#057afd;fill-opacity:1"
         id="rect42424"
         height="2"
         width="72.5"
         y="28"
         x="8.5" /><path
         style="fill:#057afd;fill-opacity:1"
         id="path42426"
         d="m 47.8,43.6 h -5.7 c -1,0 -1.8,-0.8 -1.8,-1.8 v -5.7 c 0,-1 0.8,-1.8 1.8,-1.8 h 5.7 c 1,0 1.8,0.8 1.8,1.8 v 5.7 c 0,1 -0.8,1.8 -1.8,1.8 z m -5.7,-8.3 c -0.4,0 -0.8,0.3 -0.8,0.8 v 5.7 c 0,0.4 0.3,0.8 0.8,0.8 h 5.7 c 0.4,0 0.8,-0.3 0.8,-0.8 v -5.7 c 0,-0.4 -0.3,-0.8 -0.8,-0.8 z" /><path
         style="fill:#057afd;fill-opacity:1"
         id="path42428"
         d="m 58.6,43.6 h -5.7 c -1,0 -1.8,-0.8 -1.8,-1.8 v -5.7 c 0,-1 0.8,-1.8 1.8,-1.8 h 5.7 c 1,0 1.8,0.8 1.8,1.8 v 5.7 c 0,1 -0.8,1.8 -1.8,1.8 z m -5.7,-8.3 c -0.4,0 -0.8,0.3 -0.8,0.8 v 5.7 c 0,0.4 0.3,0.8 0.8,0.8 h 5.7 c 0.4,0 0.8,-0.3 0.8,-0.8 v -5.7 c 0,-0.4 -0.3,-0.8 -0.8,-0.8 z" /><path
         style="fill:#057afd;fill-opacity:1"
         id="path42430"
         d="m 69.4,43.6 h -5.7 c -1,0 -1.8,-0.8 -1.8,-1.8 v -5.7 c 0,-1 0.8,-1.8 1.8,-1.8 h 5.7 c 1,0 1.8,0.8 1.8,1.8 v 5.7 c 0,1 -0.8,1.8 -1.8,1.8 z m -5.7,-8.3 c -0.4,0 -0.8,0.3 -0.8,0.8 v 5.7 c 0,0.4 0.3,0.8 0.8,0.8 h 5.7 c 0.4,0 0.8,-0.3 0.8,-0.8 v -5.7 c 0,-0.4 -0.3,-0.8 -0.8,-0.8 z" /><path
         style="fill:#057afd;fill-opacity:1"
         id="path42432"
         d="m 80.2,43.6 h -5.7 c -1,0 -1.8,-0.8 -1.8,-1.8 v -5.7 c 0,-1 0.8,-1.8 1.8,-1.8 h 5.7 c 1,0 1.8,0.8 1.8,1.8 v 5.7 c 0,1 -0.8,1.8 -1.8,1.8 z m -5.7,-8.3 c -0.4,0 -0.8,0.3 -0.8,0.8 v 5.7 c 0,0.4 0.3,0.8 0.8,0.8 h 5.7 c 0.4,0 0.8,-0.3 0.8,-0.8 v -5.7 c 0,-0.4 -0.3,-0.8 -0.8,-0.8 z" /><path
         style="fill:#057afd;fill-opacity:1"
         id="path42434"
         d="M 15.5,54.8 H 9.8 C 8.8,54.8 8,54 8,53 v -5.7 c 0,-1 0.8,-1.8 1.8,-1.8 h 5.7 c 1,0 1.8,0.8 1.8,1.8 V 53 c 0,1 -0.8,1.8 -1.8,1.8 z M 9.8,46.5 C 9.4,46.5 9,46.8 9,47.3 V 53 c 0,0.4 0.3,0.8 0.8,0.8 h 5.7 c 0.4,0 0.8,-0.3 0.8,-0.8 v -5.7 c 0,-0.4 -0.3,-0.8 -0.8,-0.8 z" /><path
         style="fill:#057afd;fill-opacity:1"
         id="path42436"
         d="m 26.3,54.8 h -5.7 c -1,0 -1.8,-0.8 -1.8,-1.8 v -5.7 c 0,-1 0.8,-1.8 1.8,-1.8 h 5.7 c 1,0 1.8,0.8 1.8,1.8 V 53 c -0.1,1 -0.9,1.8 -1.8,1.8 z m -5.7,-8.3 c -0.4,0 -0.8,0.3 -0.8,0.8 V 53 c 0,0.4 0.3,0.8 0.8,0.8 h 5.7 c 0.4,0 0.8,-0.3 0.8,-0.8 v -5.7 c 0,-0.4 -0.3,-0.8 -0.8,-0.8 z" /><path
         style="fill:#057afd;fill-opacity:1"
         id="path42438"
         d="m 37,54.8 h -5.7 c -1,0 -1.8,-0.8 -1.8,-1.8 v -5.7 c 0,-1 0.8,-1.8 1.8,-1.8 H 37 c 1,0 1.8,0.8 1.8,1.8 V 53 c 0,1 -0.8,1.8 -1.8,1.8 z m -5.6,-8.3 c -0.4,0 -0.8,0.3 -0.8,0.8 V 53 c 0,0.4 0.3,0.8 0.8,0.8 H 37 c 0.4,0 0.8,-0.3 0.8,-0.8 v -5.7 c 0,-0.4 -0.3,-0.8 -0.8,-0.8 z" /><path
         style="fill:#057afd;fill-opacity:1"
         id="path42440"
         d="m 47.8,54.3 h -5.7 c -0.7,0 -1.3,-0.6 -1.3,-1.3 v -5.7 c 0,-0.7 0.6,-1.3 1.3,-1.3 h 5.7 c 0.7,0 1.3,0.6 1.3,1.3 V 53 c 0,0.7 -0.6,1.3 -1.3,1.3 z" /><path
         style="fill:#057afd;fill-opacity:1"
         id="path42442"
         d="m 58.6,54.8 h -5.7 c -1,0 -1.8,-0.8 -1.8,-1.8 v -5.7 c 0,-1 0.8,-1.8 1.8,-1.8 h 5.7 c 1,0 1.8,0.8 1.8,1.8 V 53 c 0,1 -0.8,1.8 -1.8,1.8 z m -5.7,-8.3 c -0.4,0 -0.8,0.3 -0.8,0.8 V 53 c 0,0.4 0.3,0.8 0.8,0.8 h 5.7 c 0.4,0 0.8,-0.3 0.8,-0.8 v -5.7 c 0,-0.4 -0.3,-0.8 -0.8,-0.8 z" /><path
         style="fill:#057afd;fill-opacity:1"
         id="path42444"
         d="m 69.4,54.8 h -5.7 c -1,0 -1.8,-0.8 -1.8,-1.8 v -5.7 c 0,-1 0.8,-1.8 1.8,-1.8 h 5.7 c 1,0 1.8,0.8 1.8,1.8 V 53 c 0,1 -0.8,1.8 -1.8,1.8 z m -5.7,-8.3 c -0.4,0 -0.8,0.3 -0.8,0.8 V 53 c 0,0.4 0.3,0.8 0.8,0.8 h 5.7 c 0.4,0 0.8,-0.3 0.8,-0.8 v -5.7 c 0,-0.4 -0.3,-0.8 -0.8,-0.8 z" /><path
         style="fill:#057afd;fill-opacity:1"
         id="path42446"
         d="m 80.2,54.8 h -5.7 c -1,0 -1.8,-0.8 -1.8,-1.8 v -5.7 c 0,-1 0.8,-1.8 1.8,-1.8 h 5.7 c 1,0 1.8,0.8 1.8,1.8 V 53 c 0,1 -0.8,1.8 -1.8,1.8 z m -5.7,-8.3 c -0.4,0 -0.8,0.3 -0.8,0.8 V 53 c 0,0.4 0.3,0.8 0.8,0.8 h 5.7 c 0.4,0 0.8,-0.3 0.8,-0.8 v -5.7 c 0,-0.4 -0.3,-0.8 -0.8,-0.8 z" /><path
         style="fill:#057afd;fill-opacity:1"
         id="path42448"
         d="M 15.5,66 H 9.8 C 8.8,66 8,65.2 8,64.2 v -5.7 c 0,-1 0.8,-1.8 1.8,-1.8 h 5.7 c 1,0 1.8,0.8 1.8,1.8 v 5.7 c 0,1 -0.8,1.8 -1.8,1.8 z M 9.8,57.7 C 9.4,57.7 9,58 9,58.5 v 5.7 C 9,64.6 9.4,65 9.8,65 h 5.7 c 0.4,0 0.8,-0.3 0.8,-0.8 v -5.7 c 0,-0.4 -0.3,-0.8 -0.8,-0.8 z" /><path
         style="fill:#057afd;fill-opacity:1"
         id="path42450"
         d="m 26.3,66 h -5.7 c -1,0 -1.8,-0.8 -1.8,-1.8 v -5.7 c 0,-1 0.8,-1.8 1.8,-1.8 h 5.7 c 1,0 1.8,0.8 1.8,1.8 v 5.7 C 28,65.2 27.2,66 26.3,66 Z m -5.7,-8.3 c -0.4,0 -0.8,0.3 -0.8,0.8 v 5.7 c 0,0.4 0.3,0.8 0.8,0.8 h 5.7 c 0.4,0 0.8,-0.3 0.8,-0.8 v -5.7 c 0,-0.4 -0.3,-0.8 -0.8,-0.8 z" /><path
         style="fill:#057afd;fill-opacity:1"
         id="path42452"
         d="m 37,66 h -5.7 c -1,0 -1.8,-0.8 -1.8,-1.8 v -5.7 c 0,-1 0.8,-1.8 1.8,-1.8 H 37 c 1,0 1.8,0.8 1.8,1.8 v 5.7 c 0,1 -0.8,1.8 -1.8,1.8 z m -5.6,-8.3 c -0.4,0 -0.8,0.3 -0.8,0.8 v 5.7 c 0,0.4 0.3,0.8 0.8,0.8 H 37 c 0.4,0 0.8,-0.3 0.8,-0.8 v -5.7 c 0,-0.4 -0.3,-0.8 -0.8,-0.8 z" /><path
         style="fill:#057afd;fill-opacity:1"
         id="path42454"
         d="m 47.8,66 h -5.7 c -1,0 -1.8,-0.8 -1.8,-1.8 v -5.7 c 0,-1 0.8,-1.8 1.8,-1.8 h 5.7 c 1,0 1.8,0.8 1.8,1.8 v 5.7 c 0,1 -0.8,1.8 -1.8,1.8 z m -5.7,-8.3 c -0.4,0 -0.8,0.3 -0.8,0.8 v 5.7 c 0,0.4 0.3,0.8 0.8,0.8 h 5.7 c 0.4,0 0.8,-0.3 0.8,-0.8 v -5.7 c 0,-0.4 -0.3,-0.8 -0.8,-0.8 z" /><path
         style="fill:#057afd;fill-opacity:1"
         id="path42456"
         d="m 58.6,66 h -5.7 c -1,0 -1.8,-0.8 -1.8,-1.8 v -5.7 c 0,-1 0.8,-1.8 1.8,-1.8 h 5.7 c 1,0 1.8,0.8 1.8,1.8 v 5.7 c 0,1 -0.8,1.8 -1.8,1.8 z m -5.7,-8.3 c -0.4,0 -0.8,0.3 -0.8,0.8 v 5.7 c 0,0.4 0.3,0.8 0.8,0.8 h 5.7 c 0.4,0 0.8,-0.3 0.8,-0.8 v -5.7 c 0,-0.4 -0.3,-0.8 -0.8,-0.8 z" /><path
         style="fill:#057afd;fill-opacity:1"
         id="path42458"
         d="m 69.4,66 h -5.7 c -1,0 -1.8,-0.8 -1.8,-1.8 v -5.7 c 0,-1 0.8,-1.8 1.8,-1.8 h 5.7 c 1,0 1.8,0.8 1.8,1.8 v 5.7 c 0,1 -0.8,1.8 -1.8,1.8 z m -5.7,-8.3 c -0.4,0 -0.8,0.3 -0.8,0.8 v 5.7 c 0,0.4 0.3,0.8 0.8,0.8 h 5.7 c 0.4,0 0.8,-0.3 0.8,-0.8 v -5.7 c 0,-0.4 -0.3,-0.8 -0.8,-0.8 z" /><path
         style="fill:#057afd;fill-opacity:1"
         id="path42460"
         d="m 80.2,66 h -5.7 c -1,0 -1.8,-0.8 -1.8,-1.8 v -5.7 c 0,-1 0.8,-1.8 1.8,-1.8 h 5.7 c 1,0 1.8,0.8 1.8,1.8 v 5.7 c 0,1 -0.8,1.8 -1.8,1.8 z m -5.7,-8.3 c -0.4,0 -0.8,0.3 -0.8,0.8 v 5.7 c 0,0.4 0.3,0.8 0.8,0.8 h 5.7 c 0.4,0 0.8,-0.3 0.8,-0.8 v -5.7 c 0,-0.4 -0.3,-0.8 -0.8,-0.8 z" /><path
         style="fill:#057afd;fill-opacity:1"
         id="path42462"
         d="M 15.5,77.2 H 9.8 C 8.8,77.2 8,76.4 8,75.4 v -5.7 c 0,-1 0.8,-1.8 1.8,-1.8 h 5.7 c 1,0 1.8,0.8 1.8,1.8 v 5.7 c 0,1 -0.8,1.8 -1.8,1.8 z M 9.8,69 C 9.4,69 9,69.3 9,69.7 v 5.7 c 0,0.4 0.3,0.8 0.8,0.8 h 5.7 c 0.4,0 0.8,-0.3 0.8,-0.8 v -5.7 c 0,-0.4 -0.3,-0.8 -0.8,-0.8 H 9.8 Z" /><path
         style="fill:#057afd;fill-opacity:1"
         id="path42464"
         d="m 26.3,77.2 h -5.7 c -1,0 -1.8,-0.8 -1.8,-1.8 v -5.7 c 0,-1 0.8,-1.8 1.8,-1.8 h 5.7 c 1,0 1.8,0.8 1.8,1.8 v 5.7 c -0.1,1 -0.9,1.8 -1.8,1.8 z M 20.6,69 c -0.4,0 -0.8,0.3 -0.8,0.8 v 5.7 c 0,0.4 0.3,0.8 0.8,0.8 h 5.7 c 0.4,0 0.8,-0.3 0.8,-0.8 V 69.8 C 27.1,69.4 26.8,69 26.3,69 Z" /><path
         style="fill:#057afd;fill-opacity:1"
         id="path42466"
         d="m 37,77.2 h -5.7 c -1,0 -1.8,-0.8 -1.8,-1.8 v -5.7 c 0,-1 0.8,-1.8 1.8,-1.8 H 37 c 1,0 1.8,0.8 1.8,1.8 v 5.7 c 0,1 -0.8,1.8 -1.8,1.8 z M 31.4,69 c -0.4,0 -0.8,0.3 -0.8,0.8 v 5.7 c 0,0.4 0.3,0.8 0.8,0.8 H 37 c 0.4,0 0.8,-0.3 0.8,-0.8 V 69.8 C 37.8,69.4 37.5,69 37,69 Z" /><path
         style="fill:#057afd;fill-opacity:1"
         id="path42468"
         d="m 47.8,77.2 h -5.7 c -1,0 -1.8,-0.8 -1.8,-1.8 v -5.7 c 0,-1 0.8,-1.8 1.8,-1.8 h 5.7 c 1,0 1.8,0.8 1.8,1.8 v 5.7 c 0,1 -0.8,1.8 -1.8,1.8 z M 42.1,69 c -0.4,0 -0.8,0.3 -0.8,0.8 v 5.7 c 0,0.4 0.3,0.8 0.8,0.8 h 5.7 c 0.4,0 0.8,-0.3 0.8,-0.8 V 69.8 C 48.6,69.4 48.3,69 47.8,69 Z" /><path
         style="fill:#057afd;fill-opacity:1"
         id="path42470"
         d="m 58.6,77.2 h -5.7 c -1,0 -1.8,-0.8 -1.8,-1.8 v -5.7 c 0,-1 0.8,-1.8 1.8,-1.8 h 5.7 c 1,0 1.8,0.8 1.8,1.8 v 5.7 c 0,1 -0.8,1.8 -1.8,1.8 z M 52.9,69 c -0.4,0 -0.8,0.3 -0.8,0.8 v 5.7 c 0,0.4 0.3,0.8 0.8,0.8 h 5.7 c 0.4,0 0.8,-0.3 0.8,-0.8 V 69.8 C 59.4,69.4 59.1,69 58.6,69 Z" /></g></g><g
     transform="translate(-3.6,-5.9)"
     id="g42532"
     display="none"><g
       id="g42530"
       display="inline"><path
         id="path42476"
         d="m 23.8,22 v 0 C 21.7,22 20,20.3 20,18.2 V 9.7 c 0,-2.1 1.7,-3.8 3.8,-3.8 v 0 c 2.1,0 3.8,1.7 3.8,3.8 v 8.5 c 0,2.1 -1.7,3.8 -3.8,3.8 z" /><path
         id="path42478"
         d="m 65.8,22 v 0 C 63.7,22 62,20.3 62,18.2 V 9.7 c 0,-2.1 1.7,-3.8 3.8,-3.8 v 0 c 2.1,0 3.8,1.7 3.8,3.8 v 8.5 c 0.1,2.1 -1.7,3.8 -3.8,3.8 z" /><path
         id="path42480"
         d="m 79.3,15.9 c 2.7,0 4.9,2.2 4.9,4.9 v 54.9 c 0,2.7 -2.2,4.9 -4.9,4.9 H 10.4 C 7.7,80.6 5.5,78.4 5.5,75.7 V 20.8 c 0,-2.7 2.2,-4.9 4.9,-4.9 h 5.9 v 2.6 c 0,4.1 3.3,7.4 7.4,7.4 4.1,0 7.4,-3.3 7.4,-7.4 v -2.6 h 27.3 v 2.6 c 0,4.1 3.3,7.4 7.4,7.4 4.1,0 7.4,-3.3 7.4,-7.4 v -2.6 h 6.1 m 0,-2 h -7.9 v 4.6 c 0,3 -2.4,5.4 -5.4,5.4 -3,0 -5.4,-2.4 -5.4,-5.4 V 13.9 H 29.2 v 4.6 c 0,3 -2.4,5.4 -5.4,5.4 v 0 c -3,0 -5.4,-2.4 -5.4,-5.4 v -4.6 h -7.9 c -3.8,0 -6.9,3.1 -6.9,6.9 v 54.9 c 0,3.8 3.1,6.9 6.9,6.9 h 68.9 c 3.8,0 6.9,-3.1 6.9,-6.9 V 20.8 c 0,-3.8 -3.2,-6.9 -7,-6.9 z" /><rect
         id="rect42482"
         height="2"
         width="72.5"
         y="28"
         x="8.5" /><path
         id="path42484"
         d="m 47.8,43.6 h -5.7 c -1,0 -1.8,-0.8 -1.8,-1.8 v -5.7 c 0,-1 0.8,-1.8 1.8,-1.8 h 5.7 c 1,0 1.8,0.8 1.8,1.8 v 5.7 c 0,1 -0.8,1.8 -1.8,1.8 z m -5.7,-8.3 c -0.4,0 -0.8,0.3 -0.8,0.8 v 5.7 c 0,0.4 0.3,0.8 0.8,0.8 h 5.7 c 0.4,0 0.8,-0.3 0.8,-0.8 v -5.7 c 0,-0.4 -0.3,-0.8 -0.8,-0.8 z" /><path
         id="path42486"
         d="m 58.6,43.6 h -5.7 c -1,0 -1.8,-0.8 -1.8,-1.8 v -5.7 c 0,-1 0.8,-1.8 1.8,-1.8 h 5.7 c 1,0 1.8,0.8 1.8,1.8 v 5.7 c 0,1 -0.8,1.8 -1.8,1.8 z m -5.7,-8.3 c -0.4,0 -0.8,0.3 -0.8,0.8 v 5.7 c 0,0.4 0.3,0.8 0.8,0.8 h 5.7 c 0.4,0 0.8,-0.3 0.8,-0.8 v -5.7 c 0,-0.4 -0.3,-0.8 -0.8,-0.8 z" /><path
         id="path42488"
         d="m 69.4,43.6 h -5.7 c -1,0 -1.8,-0.8 -1.8,-1.8 v -5.7 c 0,-1 0.8,-1.8 1.8,-1.8 h 5.7 c 1,0 1.8,0.8 1.8,1.8 v 5.7 c 0,1 -0.8,1.8 -1.8,1.8 z m -5.7,-8.3 c -0.4,0 -0.8,0.3 -0.8,0.8 v 5.7 c 0,0.4 0.3,0.8 0.8,0.8 h 5.7 c 0.4,0 0.8,-0.3 0.8,-0.8 v -5.7 c 0,-0.4 -0.3,-0.8 -0.8,-0.8 z" /><path
         id="path42490"
         d="m 80.2,43.6 h -5.7 c -1,0 -1.8,-0.8 -1.8,-1.8 v -5.7 c 0,-1 0.8,-1.8 1.8,-1.8 h 5.7 c 1,0 1.8,0.8 1.8,1.8 v 5.7 c 0,1 -0.8,1.8 -1.8,1.8 z m -5.7,-8.3 c -0.4,0 -0.8,0.3 -0.8,0.8 v 5.7 c 0,0.4 0.3,0.8 0.8,0.8 h 5.7 c 0.4,0 0.8,-0.3 0.8,-0.8 v -5.7 c 0,-0.4 -0.3,-0.8 -0.8,-0.8 z" /><path
         id="path42492"
         d="M 15.5,54.3 H 9.8 C 9.1,54.3 8.5,53.7 8.5,53 V 47.3 C 8.5,46.6 9.1,46 9.8,46 h 5.7 c 0.7,0 1.3,0.6 1.3,1.3 V 53 c 0,0.7 -0.6,1.3 -1.3,1.3 z" /><path
         id="path42494"
         d="m 26.3,54.3 h -5.7 c -0.7,0 -1.3,-0.6 -1.3,-1.3 v -5.7 c 0,-0.7 0.6,-1.3 1.3,-1.3 h 5.7 c 0.7,0 1.3,0.6 1.3,1.3 V 53 c -0.1,0.7 -0.6,1.3 -1.3,1.3 z" /><path
         id="path42496"
         d="m 37.1,54.3 h -5.7 c -0.7,0 -1.3,-0.6 -1.3,-1.3 v -5.7 c 0,-0.7 0.6,-1.3 1.3,-1.3 h 5.7 c 0.7,0 1.3,0.6 1.3,1.3 V 53 c -0.1,0.7 -0.6,1.3 -1.3,1.3 z" /><path
         id="path42498"
         d="m 47.8,54.3 h -5.7 c -0.7,0 -1.3,-0.6 -1.3,-1.3 v -5.7 c 0,-0.7 0.6,-1.3 1.3,-1.3 h 5.7 c 0.7,0 1.3,0.6 1.3,1.3 V 53 c 0,0.7 -0.6,1.3 -1.3,1.3 z" /><path
         id="path42500"
         d="m 58.6,54.3 h -5.7 c -0.7,0 -1.3,-0.6 -1.3,-1.3 v -5.7 c 0,-0.7 0.6,-1.3 1.3,-1.3 h 5.7 c 0.7,0 1.3,0.6 1.3,1.3 V 53 c 0,0.7 -0.6,1.3 -1.3,1.3 z" /><path
         id="path42502"
         d="M 69.4,54.3 H 63.7 C 63,54.3 62.4,53.7 62.4,53 V 47.3 C 62.4,46.6 63,46 63.7,46 h 5.7 c 0.7,0 1.3,0.6 1.3,1.3 V 53 c 0,0.7 -0.6,1.3 -1.3,1.3 z" /><path
         id="path42504"
         d="m 80.2,54.3 h -5.7 c -0.7,0 -1.3,-0.6 -1.3,-1.3 v -5.7 c 0,-0.7 0.6,-1.3 1.3,-1.3 h 5.7 c 0.7,0 1.3,0.6 1.3,1.3 V 53 c 0,0.7 -0.6,1.3 -1.3,1.3 z" /><path
         id="path42506"
         d="M 15.5,66 H 9.8 C 8.8,66 8,65.2 8,64.2 v -5.7 c 0,-1 0.8,-1.8 1.8,-1.8 h 5.7 c 1,0 1.8,0.8 1.8,1.8 v 5.7 c 0,1 -0.8,1.8 -1.8,1.8 z M 9.8,57.7 C 9.4,57.7 9,58 9,58.5 v 5.7 C 9,64.6 9.4,65 9.8,65 h 5.7 c 0.4,0 0.8,-0.3 0.8,-0.8 v -5.7 c 0,-0.4 -0.3,-0.8 -0.8,-0.8 z" /><path
         id="path42508"
         d="m 26.3,66 h -5.7 c -1,0 -1.8,-0.8 -1.8,-1.8 v -5.7 c 0,-1 0.8,-1.8 1.8,-1.8 h 5.7 c 1,0 1.8,0.8 1.8,1.8 v 5.7 C 28,65.2 27.2,66 26.3,66 Z m -5.7,-8.3 c -0.4,0 -0.8,0.3 -0.8,0.8 v 5.7 c 0,0.4 0.3,0.8 0.8,0.8 h 5.7 c 0.4,0 0.8,-0.3 0.8,-0.8 v -5.7 c 0,-0.4 -0.3,-0.8 -0.8,-0.8 z" /><path
         id="path42510"
         d="m 37,66 h -5.7 c -1,0 -1.8,-0.8 -1.8,-1.8 v -5.7 c 0,-1 0.8,-1.8 1.8,-1.8 H 37 c 1,0 1.8,0.8 1.8,1.8 v 5.7 c 0,1 -0.8,1.8 -1.8,1.8 z m -5.6,-8.3 c -0.4,0 -0.8,0.3 -0.8,0.8 v 5.7 c 0,0.4 0.3,0.8 0.8,0.8 H 37 c 0.4,0 0.8,-0.3 0.8,-0.8 v -5.7 c 0,-0.4 -0.3,-0.8 -0.8,-0.8 z" /><path
         id="path42512"
         d="m 47.8,66 h -5.7 c -1,0 -1.8,-0.8 -1.8,-1.8 v -5.7 c 0,-1 0.8,-1.8 1.8,-1.8 h 5.7 c 1,0 1.8,0.8 1.8,1.8 v 5.7 c 0,1 -0.8,1.8 -1.8,1.8 z m -5.7,-8.3 c -0.4,0 -0.8,0.3 -0.8,0.8 v 5.7 c 0,0.4 0.3,0.8 0.8,0.8 h 5.7 c 0.4,0 0.8,-0.3 0.8,-0.8 v -5.7 c 0,-0.4 -0.3,-0.8 -0.8,-0.8 z" /><path
         id="path42514"
         d="m 58.6,66 h -5.7 c -1,0 -1.8,-0.8 -1.8,-1.8 v -5.7 c 0,-1 0.8,-1.8 1.8,-1.8 h 5.7 c 1,0 1.8,0.8 1.8,1.8 v 5.7 c 0,1 -0.8,1.8 -1.8,1.8 z m -5.7,-8.3 c -0.4,0 -0.8,0.3 -0.8,0.8 v 5.7 c 0,0.4 0.3,0.8 0.8,0.8 h 5.7 c 0.4,0 0.8,-0.3 0.8,-0.8 v -5.7 c 0,-0.4 -0.3,-0.8 -0.8,-0.8 z" /><path
         id="path42516"
         d="m 69.4,66 h -5.7 c -1,0 -1.8,-0.8 -1.8,-1.8 v -5.7 c 0,-1 0.8,-1.8 1.8,-1.8 h 5.7 c 1,0 1.8,0.8 1.8,1.8 v 5.7 c 0,1 -0.8,1.8 -1.8,1.8 z m -5.7,-8.3 c -0.4,0 -0.8,0.3 -0.8,0.8 v 5.7 c 0,0.4 0.3,0.8 0.8,0.8 h 5.7 c 0.4,0 0.8,-0.3 0.8,-0.8 v -5.7 c 0,-0.4 -0.3,-0.8 -0.8,-0.8 z" /><path
         id="path42518"
         d="m 80.2,66 h -5.7 c -1,0 -1.8,-0.8 -1.8,-1.8 v -5.7 c 0,-1 0.8,-1.8 1.8,-1.8 h 5.7 c 1,0 1.8,0.8 1.8,1.8 v 5.7 c 0,1 -0.8,1.8 -1.8,1.8 z m -5.7,-8.3 c -0.4,0 -0.8,0.3 -0.8,0.8 v 5.7 c 0,0.4 0.3,0.8 0.8,0.8 h 5.7 c 0.4,0 0.8,-0.3 0.8,-0.8 v -5.7 c 0,-0.4 -0.3,-0.8 -0.8,-0.8 z" /><path
         id="path42520"
         d="M 15.5,77.2 H 9.8 C 8.8,77.2 8,76.4 8,75.4 v -5.7 c 0,-1 0.8,-1.8 1.8,-1.8 h 5.7 c 1,0 1.8,0.8 1.8,1.8 v 5.7 c 0,1 -0.8,1.8 -1.8,1.8 z M 9.8,69 C 9.4,69 9,69.3 9,69.7 v 5.7 c 0,0.4 0.3,0.8 0.8,0.8 h 5.7 c 0.4,0 0.8,-0.3 0.8,-0.8 v -5.7 c 0,-0.4 -0.3,-0.8 -0.8,-0.8 H 9.8 Z" /><path
         id="path42522"
         d="m 26.3,77.2 h -5.7 c -1,0 -1.8,-0.8 -1.8,-1.8 v -5.7 c 0,-1 0.8,-1.8 1.8,-1.8 h 5.7 c 1,0 1.8,0.8 1.8,1.8 v 5.7 c -0.1,1 -0.9,1.8 -1.8,1.8 z M 20.6,69 c -0.4,0 -0.8,0.3 -0.8,0.8 v 5.7 c 0,0.4 0.3,0.8 0.8,0.8 h 5.7 c 0.4,0 0.8,-0.3 0.8,-0.8 V 69.8 C 27.1,69.4 26.8,69 26.3,69 Z" /><path
         id="path42524"
         d="m 37,77.2 h -5.7 c -1,0 -1.8,-0.8 -1.8,-1.8 v -5.7 c 0,-1 0.8,-1.8 1.8,-1.8 H 37 c 1,0 1.8,0.8 1.8,1.8 v 5.7 c 0,1 -0.8,1.8 -1.8,1.8 z M 31.4,69 c -0.4,0 -0.8,0.3 -0.8,0.8 v 5.7 c 0,0.4 0.3,0.8 0.8,0.8 H 37 c 0.4,0 0.8,-0.3 0.8,-0.8 V 69.8 C 37.8,69.4 37.5,69 37,69 Z" /><path
         id="path42526"
         d="m 47.8,77.2 h -5.7 c -1,0 -1.8,-0.8 -1.8,-1.8 v -5.7 c 0,-1 0.8,-1.8 1.8,-1.8 h 5.7 c 1,0 1.8,0.8 1.8,1.8 v 5.7 c 0,1 -0.8,1.8 -1.8,1.8 z M 42.1,69 c -0.4,0 -0.8,0.3 -0.8,0.8 v 5.7 c 0,0.4 0.3,0.8 0.8,0.8 h 5.7 c 0.4,0 0.8,-0.3 0.8,-0.8 V 69.8 C 48.6,69.4 48.3,69 47.8,69 Z" /><path
         id="path42528"
         d="m 58.6,77.2 h -5.7 c -1,0 -1.8,-0.8 -1.8,-1.8 v -5.7 c 0,-1 0.8,-1.8 1.8,-1.8 h 5.7 c 1,0 1.8,0.8 1.8,1.8 v 5.7 c 0,1 -0.8,1.8 -1.8,1.8 z M 52.9,69 c -0.4,0 -0.8,0.3 -0.8,0.8 v 5.7 c 0,0.4 0.3,0.8 0.8,0.8 h 5.7 c 0.4,0 0.8,-0.3 0.8,-0.8 V 69.8 C 59.4,69.4 59.1,69 58.6,69 Z" /></g></g><g
     transform="translate(-3.6,-5.9)"
     id="g42590"
     display="none"><g
       id="g42588"
       display="inline"><path
         id="path42534"
         d="m 23.8,22 v 0 C 21.7,22 20,20.3 20,18.2 V 9.7 c 0,-2.1 1.7,-3.8 3.8,-3.8 v 0 c 2.1,0 3.8,1.7 3.8,3.8 v 8.5 c 0,2.1 -1.7,3.8 -3.8,3.8 z" /><path
         id="path42536"
         d="m 65.8,22 v 0 C 63.7,22 62,20.3 62,18.2 V 9.7 c 0,-2.1 1.7,-3.8 3.8,-3.8 v 0 c 2.1,0 3.8,1.7 3.8,3.8 v 8.5 c 0.1,2.1 -1.7,3.8 -3.8,3.8 z" /><path
         id="path42538"
         d="m 79.3,15.9 c 2.7,0 4.9,2.2 4.9,4.9 v 54.9 c 0,2.7 -2.2,4.9 -4.9,4.9 H 10.4 C 7.7,80.6 5.5,78.4 5.5,75.7 V 20.8 c 0,-2.7 2.2,-4.9 4.9,-4.9 h 5.9 v 2.6 c 0,4.1 3.3,7.4 7.4,7.4 4.1,0 7.4,-3.3 7.4,-7.4 v -2.6 h 27.3 v 2.6 c 0,4.1 3.3,7.4 7.4,7.4 4.1,0 7.4,-3.3 7.4,-7.4 v -2.6 h 6.1 m 0,-2 h -7.9 v 4.6 c 0,3 -2.4,5.4 -5.4,5.4 -3,0 -5.4,-2.4 -5.4,-5.4 V 13.9 H 29.2 v 4.6 c 0,3 -2.4,5.4 -5.4,5.4 v 0 c -3,0 -5.4,-2.4 -5.4,-5.4 v -4.6 h -7.9 c -3.8,0 -6.9,3.1 -6.9,6.9 v 54.9 c 0,3.8 3.1,6.9 6.9,6.9 h 68.9 c 3.8,0 6.9,-3.1 6.9,-6.9 V 20.8 c 0,-3.8 -3.2,-6.9 -7,-6.9 z" /><rect
         id="rect42540"
         height="2"
         width="72.5"
         y="28"
         x="8.5" /><path
         id="path42542"
         d="m 47.8,43.1 h -5.7 c -0.7,0 -1.3,-0.6 -1.3,-1.3 v -5.7 c 0,-0.7 0.6,-1.3 1.3,-1.3 h 5.7 c 0.7,0 1.3,0.6 1.3,1.3 v 5.7 c 0,0.7 -0.6,1.3 -1.3,1.3 z" /><path
         id="path42544"
         d="m 58.6,43.1 h -5.7 c -0.7,0 -1.3,-0.6 -1.3,-1.3 v -5.7 c 0,-0.7 0.6,-1.3 1.3,-1.3 h 5.7 c 0.7,0 1.3,0.6 1.3,1.3 v 5.7 c 0,0.7 -0.6,1.3 -1.3,1.3 z" /><path
         id="path42546"
         d="m 69.4,43.1 h -5.7 c -0.7,0 -1.3,-0.6 -1.3,-1.3 v -5.7 c 0,-0.7 0.6,-1.3 1.3,-1.3 h 5.7 c 0.7,0 1.3,0.6 1.3,1.3 v 5.7 c 0,0.7 -0.6,1.3 -1.3,1.3 z" /><path
         id="path42548"
         d="m 80.2,43.6 h -5.7 c -1,0 -1.8,-0.8 -1.8,-1.8 v -5.7 c 0,-1 0.8,-1.8 1.8,-1.8 h 5.7 c 1,0 1.8,0.8 1.8,1.8 v 5.7 c 0,1 -0.8,1.8 -1.8,1.8 z m -5.7,-8.3 c -0.4,0 -0.8,0.3 -0.8,0.8 v 5.7 c 0,0.4 0.3,0.8 0.8,0.8 h 5.7 c 0.4,0 0.8,-0.3 0.8,-0.8 v -5.7 c 0,-0.4 -0.3,-0.8 -0.8,-0.8 z" /><path
         id="path42550"
         d="M 15.5,54.8 H 9.8 C 8.8,54.8 8,54 8,53 v -5.7 c 0,-1 0.8,-1.8 1.8,-1.8 h 5.7 c 1,0 1.8,0.8 1.8,1.8 V 53 c 0,1 -0.8,1.8 -1.8,1.8 z M 9.8,46.5 C 9.4,46.5 9,46.8 9,47.3 V 53 c 0,0.4 0.3,0.8 0.8,0.8 h 5.7 c 0.4,0 0.8,-0.3 0.8,-0.8 v -5.7 c 0,-0.4 -0.3,-0.8 -0.8,-0.8 z" /><path
         id="path42552"
         d="m 26.3,54.3 h -5.7 c -0.7,0 -1.3,-0.6 -1.3,-1.3 v -5.7 c 0,-0.7 0.6,-1.3 1.3,-1.3 h 5.7 c 0.7,0 1.3,0.6 1.3,1.3 V 53 c -0.1,0.7 -0.6,1.3 -1.3,1.3 z" /><path
         id="path42554"
         d="m 37.1,54.3 h -5.7 c -0.7,0 -1.3,-0.6 -1.3,-1.3 v -5.7 c 0,-0.7 0.6,-1.3 1.3,-1.3 h 5.7 c 0.7,0 1.3,0.6 1.3,1.3 V 53 c -0.1,0.7 -0.6,1.3 -1.3,1.3 z" /><path
         id="path42556"
         d="m 47.8,54.3 h -5.7 c -0.7,0 -1.3,-0.6 -1.3,-1.3 v -5.7 c 0,-0.7 0.6,-1.3 1.3,-1.3 h 5.7 c 0.7,0 1.3,0.6 1.3,1.3 V 53 c 0,0.7 -0.6,1.3 -1.3,1.3 z" /><path
         id="path42558"
         d="m 58.6,54.3 h -5.7 c -0.7,0 -1.3,-0.6 -1.3,-1.3 v -5.7 c 0,-0.7 0.6,-1.3 1.3,-1.3 h 5.7 c 0.7,0 1.3,0.6 1.3,1.3 V 53 c 0,0.7 -0.6,1.3 -1.3,1.3 z" /><path
         id="path42560"
         d="M 69.4,54.3 H 63.7 C 63,54.3 62.4,53.7 62.4,53 V 47.3 C 62.4,46.6 63,46 63.7,46 h 5.7 c 0.7,0 1.3,0.6 1.3,1.3 V 53 c 0,0.7 -0.6,1.3 -1.3,1.3 z" /><path
         id="path42562"
         d="m 80.2,54.8 h -5.7 c -1,0 -1.8,-0.8 -1.8,-1.8 v -5.7 c 0,-1 0.8,-1.8 1.8,-1.8 h 5.7 c 1,0 1.8,0.8 1.8,1.8 V 53 c 0,1 -0.8,1.8 -1.8,1.8 z m -5.7,-8.3 c -0.4,0 -0.8,0.3 -0.8,0.8 V 53 c 0,0.4 0.3,0.8 0.8,0.8 h 5.7 c 0.4,0 0.8,-0.3 0.8,-0.8 v -5.7 c 0,-0.4 -0.3,-0.8 -0.8,-0.8 z" /><path
         id="path42564"
         d="M 15.5,66 H 9.8 C 8.8,66 8,65.2 8,64.2 v -5.7 c 0,-1 0.8,-1.8 1.8,-1.8 h 5.7 c 1,0 1.8,0.8 1.8,1.8 v 5.7 c 0,1 -0.8,1.8 -1.8,1.8 z M 9.8,57.7 C 9.4,57.7 9,58 9,58.5 v 5.7 C 9,64.6 9.4,65 9.8,65 h 5.7 c 0.4,0 0.8,-0.3 0.8,-0.8 v -5.7 c 0,-0.4 -0.3,-0.8 -0.8,-0.8 z" /><path
         id="path42566"
         d="m 26.3,65.5 h -5.7 c -0.7,0 -1.3,-0.6 -1.3,-1.3 v -5.7 c 0,-0.7 0.6,-1.3 1.3,-1.3 h 5.7 c 0.7,0 1.3,0.6 1.3,1.3 v 5.7 c -0.1,0.7 -0.6,1.3 -1.3,1.3 z" /><path
         id="path42568"
         d="m 37.1,65.5 h -5.7 c -0.7,0 -1.3,-0.6 -1.3,-1.3 v -5.7 c 0,-0.7 0.6,-1.3 1.3,-1.3 h 5.7 c 0.7,0 1.3,0.6 1.3,1.3 v 5.7 c -0.1,0.7 -0.6,1.3 -1.3,1.3 z" /><path
         id="path42570"
         d="m 47.8,65.5 h -5.7 c -0.7,0 -1.3,-0.6 -1.3,-1.3 v -5.7 c 0,-0.7 0.6,-1.3 1.3,-1.3 h 5.7 c 0.7,0 1.3,0.6 1.3,1.3 v 5.7 c 0,0.7 -0.6,1.3 -1.3,1.3 z" /><path
         id="path42572"
         d="m 58.6,65.5 h -5.7 c -0.7,0 -1.3,-0.6 -1.3,-1.3 v -5.7 c 0,-0.7 0.6,-1.3 1.3,-1.3 h 5.7 c 0.7,0 1.3,0.6 1.3,1.3 v 5.7 c 0,0.7 -0.6,1.3 -1.3,1.3 z" /><path
         id="path42574"
         d="m 69.4,65.5 h -5.7 c -0.7,0 -1.3,-0.6 -1.3,-1.3 v -5.7 c 0,-0.7 0.6,-1.3 1.3,-1.3 h 5.7 c 0.7,0 1.3,0.6 1.3,1.3 v 5.7 c 0,0.7 -0.6,1.3 -1.3,1.3 z" /><path
         id="path42576"
         d="m 80.2,66 h -5.7 c -1,0 -1.8,-0.8 -1.8,-1.8 v -5.7 c 0,-1 0.8,-1.8 1.8,-1.8 h 5.7 c 1,0 1.8,0.8 1.8,1.8 v 5.7 c 0,1 -0.8,1.8 -1.8,1.8 z m -5.7,-8.3 c -0.4,0 -0.8,0.3 -0.8,0.8 v 5.7 c 0,0.4 0.3,0.8 0.8,0.8 h 5.7 c 0.4,0 0.8,-0.3 0.8,-0.8 v -5.7 c 0,-0.4 -0.3,-0.8 -0.8,-0.8 z" /><path
         id="path42578"
         d="M 15.5,77.2 H 9.8 C 8.8,77.2 8,76.4 8,75.4 v -5.7 c 0,-1 0.8,-1.8 1.8,-1.8 h 5.7 c 1,0 1.8,0.8 1.8,1.8 v 5.7 c 0,1 -0.8,1.8 -1.8,1.8 z M 9.8,69 C 9.4,69 9,69.3 9,69.7 v 5.7 c 0,0.4 0.3,0.8 0.8,0.8 h 5.7 c 0.4,0 0.8,-0.3 0.8,-0.8 v -5.7 c 0,-0.4 -0.3,-0.8 -0.8,-0.8 H 9.8 Z" /><path
         id="path42580"
         d="m 26.3,76.7 h -5.7 c -0.7,0 -1.3,-0.6 -1.3,-1.3 v -5.7 c 0,-0.7 0.6,-1.3 1.3,-1.3 h 5.7 c 0.7,0 1.3,0.6 1.3,1.3 v 5.7 c -0.1,0.7 -0.6,1.3 -1.3,1.3 z" /><path
         id="path42582"
         d="m 37.1,76.7 h -5.7 c -0.7,0 -1.3,-0.6 -1.3,-1.3 v -5.7 c 0,-0.7 0.6,-1.3 1.3,-1.3 h 5.7 c 0.7,0 1.3,0.6 1.3,1.3 v 5.7 c -0.1,0.7 -0.6,1.3 -1.3,1.3 z" /><path
         id="path42584"
         d="m 47.8,76.7 h -5.7 c -0.7,0 -1.3,-0.6 -1.3,-1.3 v -5.7 c 0,-0.7 0.6,-1.3 1.3,-1.3 h 5.7 c 0.7,0 1.3,0.6 1.3,1.3 v 5.7 c 0,0.7 -0.6,1.3 -1.3,1.3 z" /><path
         id="path42586"
         d="m 58.6,76.7 h -5.7 c -0.7,0 -1.3,-0.6 -1.3,-1.3 v -5.7 c 0,-0.7 0.6,-1.3 1.3,-1.3 h 5.7 c 0.7,0 1.3,0.6 1.3,1.3 v 5.7 c 0,0.7 -0.6,1.3 -1.3,1.3 z" /></g></g><g
     transform="translate(-3.6,-5.9)"
     id="g42648"
     display="none"><g
       id="g42646"
       display="inline"><path
         id="path42592"
         d="m 23.8,22 v 0 C 21.7,22 20,20.3 20,18.2 V 9.7 c 0,-2.1 1.7,-3.8 3.8,-3.8 v 0 c 2.1,0 3.8,1.7 3.8,3.8 v 8.5 c 0,2.1 -1.7,3.8 -3.8,3.8 z" /><path
         id="path42594"
         d="m 65.8,22 v 0 C 63.7,22 62,20.3 62,18.2 V 9.7 c 0,-2.1 1.7,-3.8 3.8,-3.8 v 0 c 2.1,0 3.8,1.7 3.8,3.8 v 8.5 c 0.1,2.1 -1.7,3.8 -3.8,3.8 z" /><path
         id="path42596"
         d="m 79.3,15.9 c 2.7,0 4.9,2.2 4.9,4.9 v 54.9 c 0,2.7 -2.2,4.9 -4.9,4.9 H 10.4 C 7.7,80.6 5.5,78.4 5.5,75.7 V 20.8 c 0,-2.7 2.2,-4.9 4.9,-4.9 h 5.9 v 2.6 c 0,4.1 3.3,7.4 7.4,7.4 4.1,0 7.4,-3.3 7.4,-7.4 v -2.6 h 27.3 v 2.6 c 0,4.1 3.3,7.4 7.4,7.4 4.1,0 7.4,-3.3 7.4,-7.4 v -2.6 h 6.1 m 0,-2 h -7.9 v 4.6 c 0,3 -2.4,5.4 -5.4,5.4 -3,0 -5.4,-2.4 -5.4,-5.4 V 13.9 H 29.2 v 4.6 c 0,3 -2.4,5.4 -5.4,5.4 v 0 c -3,0 -5.4,-2.4 -5.4,-5.4 v -4.6 h -7.9 c -3.8,0 -6.9,3.1 -6.9,6.9 v 54.9 c 0,3.8 3.1,6.9 6.9,6.9 h 68.9 c 3.8,0 6.9,-3.1 6.9,-6.9 V 20.8 c 0,-3.8 -3.2,-6.9 -7,-6.9 z" /><rect
         id="rect42598"
         height="2"
         width="72.5"
         y="28"
         x="8.5" /><path
         id="path42600"
         d="m 47.8,43.6 h -5.7 c -1,0 -1.8,-0.8 -1.8,-1.8 v -5.7 c 0,-1 0.8,-1.8 1.8,-1.8 h 5.7 c 1,0 1.8,0.8 1.8,1.8 v 5.7 c 0,1 -0.8,1.8 -1.8,1.8 z m -5.7,-8.3 c -0.4,0 -0.8,0.3 -0.8,0.8 v 5.7 c 0,0.4 0.3,0.8 0.8,0.8 h 5.7 c 0.4,0 0.8,-0.3 0.8,-0.8 v -5.7 c 0,-0.4 -0.3,-0.8 -0.8,-0.8 z" /><path
         id="path42602"
         d="m 58.6,43.6 h -5.7 c -1,0 -1.8,-0.8 -1.8,-1.8 v -5.7 c 0,-1 0.8,-1.8 1.8,-1.8 h 5.7 c 1,0 1.8,0.8 1.8,1.8 v 5.7 c 0,1 -0.8,1.8 -1.8,1.8 z m -5.7,-8.3 c -0.4,0 -0.8,0.3 -0.8,0.8 v 5.7 c 0,0.4 0.3,0.8 0.8,0.8 h 5.7 c 0.4,0 0.8,-0.3 0.8,-0.8 v -5.7 c 0,-0.4 -0.3,-0.8 -0.8,-0.8 z" /><path
         id="path42604"
         d="m 69.4,43.6 h -5.7 c -1,0 -1.8,-0.8 -1.8,-1.8 v -5.7 c 0,-1 0.8,-1.8 1.8,-1.8 h 5.7 c 1,0 1.8,0.8 1.8,1.8 v 5.7 c 0,1 -0.8,1.8 -1.8,1.8 z m -5.7,-8.3 c -0.4,0 -0.8,0.3 -0.8,0.8 v 5.7 c 0,0.4 0.3,0.8 0.8,0.8 h 5.7 c 0.4,0 0.8,-0.3 0.8,-0.8 v -5.7 c 0,-0.4 -0.3,-0.8 -0.8,-0.8 z" /><path
         id="path42606"
         d="m 80.2,43.1 h -5.7 c -0.7,0 -1.3,-0.6 -1.3,-1.3 v -5.7 c 0,-0.7 0.6,-1.3 1.3,-1.3 h 5.7 c 0.7,0 1.3,0.6 1.3,1.3 v 5.7 c 0,0.7 -0.6,1.3 -1.3,1.3 z" /><path
         id="path42608"
         d="M 15.5,54.3 H 9.8 C 9.1,54.3 8.5,53.7 8.5,53 V 47.3 C 8.5,46.6 9.1,46 9.8,46 h 5.7 c 0.7,0 1.3,0.6 1.3,1.3 V 53 c 0,0.7 -0.6,1.3 -1.3,1.3 z" /><path
         id="path42610"
         d="m 26.3,54.8 h -5.7 c -1,0 -1.8,-0.8 -1.8,-1.8 v -5.7 c 0,-1 0.8,-1.8 1.8,-1.8 h 5.7 c 1,0 1.8,0.8 1.8,1.8 V 53 c -0.1,1 -0.9,1.8 -1.8,1.8 z m -5.7,-8.3 c -0.4,0 -0.8,0.3 -0.8,0.8 V 53 c 0,0.4 0.3,0.8 0.8,0.8 h 5.7 c 0.4,0 0.8,-0.3 0.8,-0.8 v -5.7 c 0,-0.4 -0.3,-0.8 -0.8,-0.8 z" /><path
         id="path42612"
         d="m 37,54.8 h -5.7 c -1,0 -1.8,-0.8 -1.8,-1.8 v -5.7 c 0,-1 0.8,-1.8 1.8,-1.8 H 37 c 1,0 1.8,0.8 1.8,1.8 V 53 c 0,1 -0.8,1.8 -1.8,1.8 z m -5.6,-8.3 c -0.4,0 -0.8,0.3 -0.8,0.8 V 53 c 0,0.4 0.3,0.8 0.8,0.8 H 37 c 0.4,0 0.8,-0.3 0.8,-0.8 v -5.7 c 0,-0.4 -0.3,-0.8 -0.8,-0.8 z" /><path
         id="path42614"
         d="m 47.8,54.8 h -5.7 c -1,0 -1.8,-0.8 -1.8,-1.8 v -5.7 c 0,-1 0.8,-1.8 1.8,-1.8 h 5.7 c 1,0 1.8,0.8 1.8,1.8 V 53 c 0,1 -0.8,1.8 -1.8,1.8 z m -5.7,-8.3 c -0.4,0 -0.8,0.3 -0.8,0.8 V 53 c 0,0.4 0.3,0.8 0.8,0.8 h 5.7 c 0.4,0 0.8,-0.3 0.8,-0.8 v -5.7 c 0,-0.4 -0.3,-0.8 -0.8,-0.8 z" /><path
         id="path42616"
         d="m 58.6,54.8 h -5.7 c -1,0 -1.8,-0.8 -1.8,-1.8 v -5.7 c 0,-1 0.8,-1.8 1.8,-1.8 h 5.7 c 1,0 1.8,0.8 1.8,1.8 V 53 c 0,1 -0.8,1.8 -1.8,1.8 z m -5.7,-8.3 c -0.4,0 -0.8,0.3 -0.8,0.8 V 53 c 0,0.4 0.3,0.8 0.8,0.8 h 5.7 c 0.4,0 0.8,-0.3 0.8,-0.8 v -5.7 c 0,-0.4 -0.3,-0.8 -0.8,-0.8 z" /><path
         id="path42618"
         d="m 69.4,54.8 h -5.7 c -1,0 -1.8,-0.8 -1.8,-1.8 v -5.7 c 0,-1 0.8,-1.8 1.8,-1.8 h 5.7 c 1,0 1.8,0.8 1.8,1.8 V 53 c 0,1 -0.8,1.8 -1.8,1.8 z m -5.7,-8.3 c -0.4,0 -0.8,0.3 -0.8,0.8 V 53 c 0,0.4 0.3,0.8 0.8,0.8 h 5.7 c 0.4,0 0.8,-0.3 0.8,-0.8 v -5.7 c 0,-0.4 -0.3,-0.8 -0.8,-0.8 z" /><path
         id="path42620"
         d="m 80.2,54.3 h -5.7 c -0.7,0 -1.3,-0.6 -1.3,-1.3 v -5.7 c 0,-0.7 0.6,-1.3 1.3,-1.3 h 5.7 c 0.7,0 1.3,0.6 1.3,1.3 V 53 c 0,0.7 -0.6,1.3 -1.3,1.3 z" /><path
         id="path42622"
         d="M 15.5,65.5 H 9.8 c -0.7,0 -1.3,-0.6 -1.3,-1.3 v -5.7 c 0,-0.7 0.6,-1.3 1.3,-1.3 h 5.7 c 0.7,0 1.3,0.6 1.3,1.3 v 5.7 c 0,0.7 -0.6,1.3 -1.3,1.3 z" /><path
         id="path42624"
         d="m 26.3,66 h -5.7 c -1,0 -1.8,-0.8 -1.8,-1.8 v -5.7 c 0,-1 0.8,-1.8 1.8,-1.8 h 5.7 c 1,0 1.8,0.8 1.8,1.8 v 5.7 C 28,65.2 27.2,66 26.3,66 Z m -5.7,-8.3 c -0.4,0 -0.8,0.3 -0.8,0.8 v 5.7 c 0,0.4 0.3,0.8 0.8,0.8 h 5.7 c 0.4,0 0.8,-0.3 0.8,-0.8 v -5.7 c 0,-0.4 -0.3,-0.8 -0.8,-0.8 z" /><path
         id="path42626"
         d="m 37,66 h -5.7 c -1,0 -1.8,-0.8 -1.8,-1.8 v -5.7 c 0,-1 0.8,-1.8 1.8,-1.8 H 37 c 1,0 1.8,0.8 1.8,1.8 v 5.7 c 0,1 -0.8,1.8 -1.8,1.8 z m -5.6,-8.3 c -0.4,0 -0.8,0.3 -0.8,0.8 v 5.7 c 0,0.4 0.3,0.8 0.8,0.8 H 37 c 0.4,0 0.8,-0.3 0.8,-0.8 v -5.7 c 0,-0.4 -0.3,-0.8 -0.8,-0.8 z" /><path
         id="path42628"
         d="m 47.8,66 h -5.7 c -1,0 -1.8,-0.8 -1.8,-1.8 v -5.7 c 0,-1 0.8,-1.8 1.8,-1.8 h 5.7 c 1,0 1.8,0.8 1.8,1.8 v 5.7 c 0,1 -0.8,1.8 -1.8,1.8 z m -5.7,-8.3 c -0.4,0 -0.8,0.3 -0.8,0.8 v 5.7 c 0,0.4 0.3,0.8 0.8,0.8 h 5.7 c 0.4,0 0.8,-0.3 0.8,-0.8 v -5.7 c 0,-0.4 -0.3,-0.8 -0.8,-0.8 z" /><path
         id="path42630"
         d="m 58.6,66 h -5.7 c -1,0 -1.8,-0.8 -1.8,-1.8 v -5.7 c 0,-1 0.8,-1.8 1.8,-1.8 h 5.7 c 1,0 1.8,0.8 1.8,1.8 v 5.7 c 0,1 -0.8,1.8 -1.8,1.8 z m -5.7,-8.3 c -0.4,0 -0.8,0.3 -0.8,0.8 v 5.7 c 0,0.4 0.3,0.8 0.8,0.8 h 5.7 c 0.4,0 0.8,-0.3 0.8,-0.8 v -5.7 c 0,-0.4 -0.3,-0.8 -0.8,-0.8 z" /><path
         id="path42632"
         d="m 69.4,66 h -5.7 c -1,0 -1.8,-0.8 -1.8,-1.8 v -5.7 c 0,-1 0.8,-1.8 1.8,-1.8 h 5.7 c 1,0 1.8,0.8 1.8,1.8 v 5.7 c 0,1 -0.8,1.8 -1.8,1.8 z m -5.7,-8.3 c -0.4,0 -0.8,0.3 -0.8,0.8 v 5.7 c 0,0.4 0.3,0.8 0.8,0.8 h 5.7 c 0.4,0 0.8,-0.3 0.8,-0.8 v -5.7 c 0,-0.4 -0.3,-0.8 -0.8,-0.8 z" /><path
         id="path42634"
         d="m 80.2,65.5 h -5.7 c -0.7,0 -1.3,-0.6 -1.3,-1.3 v -5.7 c 0,-0.7 0.6,-1.3 1.3,-1.3 h 5.7 c 0.7,0 1.3,0.6 1.3,1.3 v 5.7 c 0,0.7 -0.6,1.3 -1.3,1.3 z" /><path
         id="path42636"
         d="M 15.5,76.7 H 9.8 c -0.7,0 -1.3,-0.6 -1.3,-1.3 v -5.7 c 0,-0.7 0.6,-1.3 1.3,-1.3 h 5.7 c 0.7,0 1.3,0.6 1.3,1.3 v 5.7 c 0,0.7 -0.6,1.3 -1.3,1.3 z" /><path
         id="path42638"
         d="m 26.3,77.2 h -5.7 c -1,0 -1.8,-0.8 -1.8,-1.8 v -5.7 c 0,-1 0.8,-1.8 1.8,-1.8 h 5.7 c 1,0 1.8,0.8 1.8,1.8 v 5.7 c -0.1,1 -0.9,1.8 -1.8,1.8 z M 20.6,69 c -0.4,0 -0.8,0.3 -0.8,0.8 v 5.7 c 0,0.4 0.3,0.8 0.8,0.8 h 5.7 c 0.4,0 0.8,-0.3 0.8,-0.8 V 69.8 C 27.1,69.4 26.8,69 26.3,69 Z" /><path
         id="path42640"
         d="m 37,77.2 h -5.7 c -1,0 -1.8,-0.8 -1.8,-1.8 v -5.7 c 0,-1 0.8,-1.8 1.8,-1.8 H 37 c 1,0 1.8,0.8 1.8,1.8 v 5.7 c 0,1 -0.8,1.8 -1.8,1.8 z M 31.4,69 c -0.4,0 -0.8,0.3 -0.8,0.8 v 5.7 c 0,0.4 0.3,0.8 0.8,0.8 H 37 c 0.4,0 0.8,-0.3 0.8,-0.8 V 69.8 C 37.8,69.4 37.5,69 37,69 Z" /><path
         id="path42642"
         d="m 47.8,77.2 h -5.7 c -1,0 -1.8,-0.8 -1.8,-1.8 v -5.7 c 0,-1 0.8,-1.8 1.8,-1.8 h 5.7 c 1,0 1.8,0.8 1.8,1.8 v 5.7 c 0,1 -0.8,1.8 -1.8,1.8 z M 42.1,69 c -0.4,0 -0.8,0.3 -0.8,0.8 v 5.7 c 0,0.4 0.3,0.8 0.8,0.8 h 5.7 c 0.4,0 0.8,-0.3 0.8,-0.8 V 69.8 C 48.6,69.4 48.3,69 47.8,69 Z" /><path
         id="path42644"
         d="m 58.6,77.2 h -5.7 c -1,0 -1.8,-0.8 -1.8,-1.8 v -5.7 c 0,-1 0.8,-1.8 1.8,-1.8 h 5.7 c 1,0 1.8,0.8 1.8,1.8 v 5.7 c 0,1 -0.8,1.8 -1.8,1.8 z M 52.9,69 c -0.4,0 -0.8,0.3 -0.8,0.8 v 5.7 c 0,0.4 0.3,0.8 0.8,0.8 h 5.7 c 0.4,0 0.8,-0.3 0.8,-0.8 V 69.8 C 59.4,69.4 59.1,69 58.6,69 Z" /></g></g><g
     transform="translate(-3.6,-5.9)"
     id="g42706"
     display="none"><g
       id="g42704"
       display="inline"><path
         id="path42650"
         d="m 23.8,22 v 0 C 21.7,22 20,20.3 20,18.2 V 9.7 c 0,-2.1 1.7,-3.8 3.8,-3.8 v 0 c 2.1,0 3.8,1.7 3.8,3.8 v 8.5 c 0,2.1 -1.7,3.8 -3.8,3.8 z" /><path
         id="path42652"
         d="m 65.8,22 v 0 C 63.7,22 62,20.3 62,18.2 V 9.7 c 0,-2.1 1.7,-3.8 3.8,-3.8 v 0 c 2.1,0 3.8,1.7 3.8,3.8 v 8.5 c 0.1,2.1 -1.7,3.8 -3.8,3.8 z" /><path
         id="path42654"
         d="m 79.3,15.9 c 2.7,0 4.9,2.2 4.9,4.9 v 54.9 c 0,2.7 -2.2,4.9 -4.9,4.9 H 10.4 C 7.7,80.6 5.5,78.4 5.5,75.7 V 20.8 c 0,-2.7 2.2,-4.9 4.9,-4.9 h 5.9 v 2.6 c 0,4.1 3.3,7.4 7.4,7.4 4.1,0 7.4,-3.3 7.4,-7.4 v -2.6 h 27.3 v 2.6 c 0,4.1 3.3,7.4 7.4,7.4 4.1,0 7.4,-3.3 7.4,-7.4 v -2.6 h 6.1 m 0,-2 h -7.9 v 4.6 c 0,3 -2.4,5.4 -5.4,5.4 -3,0 -5.4,-2.4 -5.4,-5.4 V 13.9 H 29.2 v 4.6 c 0,3 -2.4,5.4 -5.4,5.4 v 0 c -3,0 -5.4,-2.4 -5.4,-5.4 v -4.6 h -7.9 c -3.8,0 -6.9,3.1 -6.9,6.9 v 54.9 c 0,3.8 3.1,6.9 6.9,6.9 h 68.9 c 3.8,0 6.9,-3.1 6.9,-6.9 V 20.8 c 0,-3.8 -3.2,-6.9 -7,-6.9 z" /><rect
         id="rect42656"
         height="2"
         width="72.5"
         y="28"
         x="8.5" /><path
         id="path42658"
         d="m 47.8,43.1 h -5.7 c -0.7,0 -1.3,-0.6 -1.3,-1.3 v -5.7 c 0,-0.7 0.6,-1.3 1.3,-1.3 h 5.7 c 0.7,0 1.3,0.6 1.3,1.3 v 5.7 c 0,0.7 -0.6,1.3 -1.3,1.3 z" /><path
         id="path42660"
         d="m 58.6,43.1 h -5.7 c -0.7,0 -1.3,-0.6 -1.3,-1.3 v -5.7 c 0,-0.7 0.6,-1.3 1.3,-1.3 h 5.7 c 0.7,0 1.3,0.6 1.3,1.3 v 5.7 c 0,0.7 -0.6,1.3 -1.3,1.3 z" /><path
         id="path42662"
         d="m 69.4,43.1 h -5.7 c -0.7,0 -1.3,-0.6 -1.3,-1.3 v -5.7 c 0,-0.7 0.6,-1.3 1.3,-1.3 h 5.7 c 0.7,0 1.3,0.6 1.3,1.3 v 5.7 c 0,0.7 -0.6,1.3 -1.3,1.3 z" /><path
         id="path42664"
         d="m 80.2,43.1 h -5.7 c -0.7,0 -1.3,-0.6 -1.3,-1.3 v -5.7 c 0,-0.7 0.6,-1.3 1.3,-1.3 h 5.7 c 0.7,0 1.3,0.6 1.3,1.3 v 5.7 c 0,0.7 -0.6,1.3 -1.3,1.3 z" /><path
         id="path42666"
         d="M 15.5,54.3 H 9.8 C 9.1,54.3 8.5,53.7 8.5,53 V 47.3 C 8.5,46.6 9.1,46 9.8,46 h 5.7 c 0.7,0 1.3,0.6 1.3,1.3 V 53 c 0,0.7 -0.6,1.3 -1.3,1.3 z" /><path
         id="path42668"
         d="m 26.3,54.3 h -5.7 c -0.7,0 -1.3,-0.6 -1.3,-1.3 v -5.7 c 0,-0.7 0.6,-1.3 1.3,-1.3 h 5.7 c 0.7,0 1.3,0.6 1.3,1.3 V 53 c -0.1,0.7 -0.6,1.3 -1.3,1.3 z" /><path
         id="path42670"
         d="m 37.1,54.3 h -5.7 c -0.7,0 -1.3,-0.6 -1.3,-1.3 v -5.7 c 0,-0.7 0.6,-1.3 1.3,-1.3 h 5.7 c 0.7,0 1.3,0.6 1.3,1.3 V 53 c -0.1,0.7 -0.6,1.3 -1.3,1.3 z" /><path
         id="path42672"
         d="m 47.8,54.3 h -5.7 c -0.7,0 -1.3,-0.6 -1.3,-1.3 v -5.7 c 0,-0.7 0.6,-1.3 1.3,-1.3 h 5.7 c 0.7,0 1.3,0.6 1.3,1.3 V 53 c 0,0.7 -0.6,1.3 -1.3,1.3 z" /><path
         id="path42674"
         d="m 58.6,54.3 h -5.7 c -0.7,0 -1.3,-0.6 -1.3,-1.3 v -5.7 c 0,-0.7 0.6,-1.3 1.3,-1.3 h 5.7 c 0.7,0 1.3,0.6 1.3,1.3 V 53 c 0,0.7 -0.6,1.3 -1.3,1.3 z" /><path
         id="path42676"
         d="M 69.4,54.3 H 63.7 C 63,54.3 62.4,53.7 62.4,53 V 47.3 C 62.4,46.6 63,46 63.7,46 h 5.7 c 0.7,0 1.3,0.6 1.3,1.3 V 53 c 0,0.7 -0.6,1.3 -1.3,1.3 z" /><path
         id="path42678"
         d="m 80.2,54.3 h -5.7 c -0.7,0 -1.3,-0.6 -1.3,-1.3 v -5.7 c 0,-0.7 0.6,-1.3 1.3,-1.3 h 5.7 c 0.7,0 1.3,0.6 1.3,1.3 V 53 c 0,0.7 -0.6,1.3 -1.3,1.3 z" /><path
         id="path42680"
         d="M 15.5,65.5 H 9.8 c -0.7,0 -1.3,-0.6 -1.3,-1.3 v -5.7 c 0,-0.7 0.6,-1.3 1.3,-1.3 h 5.7 c 0.7,0 1.3,0.6 1.3,1.3 v 5.7 c 0,0.7 -0.6,1.3 -1.3,1.3 z" /><path
         id="path42682"
         d="m 26.3,65.5 h -5.7 c -0.7,0 -1.3,-0.6 -1.3,-1.3 v -5.7 c 0,-0.7 0.6,-1.3 1.3,-1.3 h 5.7 c 0.7,0 1.3,0.6 1.3,1.3 v 5.7 c -0.1,0.7 -0.6,1.3 -1.3,1.3 z" /><path
         id="path42684"
         d="m 37.1,65.5 h -5.7 c -0.7,0 -1.3,-0.6 -1.3,-1.3 v -5.7 c 0,-0.7 0.6,-1.3 1.3,-1.3 h 5.7 c 0.7,0 1.3,0.6 1.3,1.3 v 5.7 c -0.1,0.7 -0.6,1.3 -1.3,1.3 z" /><path
         id="path42686"
         d="m 47.8,65.5 h -5.7 c -0.7,0 -1.3,-0.6 -1.3,-1.3 v -5.7 c 0,-0.7 0.6,-1.3 1.3,-1.3 h 5.7 c 0.7,0 1.3,0.6 1.3,1.3 v 5.7 c 0,0.7 -0.6,1.3 -1.3,1.3 z" /><path
         id="path42688"
         d="m 58.6,65.5 h -5.7 c -0.7,0 -1.3,-0.6 -1.3,-1.3 v -5.7 c 0,-0.7 0.6,-1.3 1.3,-1.3 h 5.7 c 0.7,0 1.3,0.6 1.3,1.3 v 5.7 c 0,0.7 -0.6,1.3 -1.3,1.3 z" /><path
         id="path42690"
         d="m 69.4,65.5 h -5.7 c -0.7,0 -1.3,-0.6 -1.3,-1.3 v -5.7 c 0,-0.7 0.6,-1.3 1.3,-1.3 h 5.7 c 0.7,0 1.3,0.6 1.3,1.3 v 5.7 c 0,0.7 -0.6,1.3 -1.3,1.3 z" /><path
         id="path42692"
         d="m 80.2,65.5 h -5.7 c -0.7,0 -1.3,-0.6 -1.3,-1.3 v -5.7 c 0,-0.7 0.6,-1.3 1.3,-1.3 h 5.7 c 0.7,0 1.3,0.6 1.3,1.3 v 5.7 c 0,0.7 -0.6,1.3 -1.3,1.3 z" /><path
         id="path42694"
         d="M 15.5,76.7 H 9.8 c -0.7,0 -1.3,-0.6 -1.3,-1.3 v -5.7 c 0,-0.7 0.6,-1.3 1.3,-1.3 h 5.7 c 0.7,0 1.3,0.6 1.3,1.3 v 5.7 c 0,0.7 -0.6,1.3 -1.3,1.3 z" /><path
         id="path42696"
         d="m 26.3,76.7 h -5.7 c -0.7,0 -1.3,-0.6 -1.3,-1.3 v -5.7 c 0,-0.7 0.6,-1.3 1.3,-1.3 h 5.7 c 0.7,0 1.3,0.6 1.3,1.3 v 5.7 c -0.1,0.7 -0.6,1.3 -1.3,1.3 z" /><path
         id="path42698"
         d="m 37.1,76.7 h -5.7 c -0.7,0 -1.3,-0.6 -1.3,-1.3 v -5.7 c 0,-0.7 0.6,-1.3 1.3,-1.3 h 5.7 c 0.7,0 1.3,0.6 1.3,1.3 v 5.7 c -0.1,0.7 -0.6,1.3 -1.3,1.3 z" /><path
         id="path42700"
         d="m 47.8,76.7 h -5.7 c -0.7,0 -1.3,-0.6 -1.3,-1.3 v -5.7 c 0,-0.7 0.6,-1.3 1.3,-1.3 h 5.7 c 0.7,0 1.3,0.6 1.3,1.3 v 5.7 c 0,0.7 -0.6,1.3 -1.3,1.3 z" /><path
         id="path42702"
         d="m 58.6,76.7 h -5.7 c -0.7,0 -1.3,-0.6 -1.3,-1.3 v -5.7 c 0,-0.7 0.6,-1.3 1.3,-1.3 h 5.7 c 0.7,0 1.3,0.6 1.3,1.3 v 5.7 c 0,0.7 -0.6,1.3 -1.3,1.3 z" /></g></g><g
     transform="translate(-3.6,-5.9)"
     id="g42764"
     display="none"><path
       id="path42708"
       d="m 21.2,20.5 v 0 c -2.1,0 -3.7,-1.7 -3.7,-3.7 V 8.4 c 0,-2.1 1.7,-3.7 3.7,-3.7 v 0 c 2.1,0 3.7,1.7 3.7,3.7 v 8.3 c 0.1,2.1 -1.6,3.8 -3.7,3.8 z"
       display="inline" /><path
       id="path42710"
       d="m 62.3,20.5 v 0 c -2.1,0 -3.7,-1.7 -3.7,-3.7 V 8.4 c 0,-2.1 1.7,-3.7 3.7,-3.7 v 0 c 2.1,0 3.7,1.7 3.7,3.7 v 8.3 c 0.1,2.1 -1.6,3.8 -3.7,3.8 z"
       display="inline" /><path
       id="path42712"
       d="m 75.5,14.5 c 2.7,0 4.8,2.2 4.8,4.8 V 73 c 0,2.7 -2.2,4.8 -4.8,4.8 H 8.1 C 5.4,77.8 3.3,75.6 3.3,73 V 19.3 c 0,-2.7 2.2,-4.8 4.8,-4.8 h 5.8 V 17 c 0,4 3.3,7.3 7.3,7.3 4,0 7.3,-3.3 7.3,-7.3 V 14.4 H 55.2 V 17 c 0,4 3.3,7.3 7.3,7.3 4,0 7.3,-3.3 7.3,-7.3 v -2.6 h 5.7 m 0,-1.9 H 67.7 V 17 c 0,2.9 -2.4,5.3 -5.3,5.3 -2.9,0 -5.3,-2.4 -5.3,-5.3 V 12.5 H 26.5 V 17 c 0,2.9 -2.4,5.3 -5.3,5.3 v 0 c -2.9,0 -5.3,-2.4 -5.3,-5.3 V 12.5 H 8.1 c -3.7,0 -6.8,3 -6.8,6.8 V 73 c 0,3.7 3,6.8 6.8,6.8 h 67.4 c 3.7,0 6.8,-3 6.8,-6.8 V 19.3 c 0,-3.7 -3,-6.8 -6.8,-6.8 z"
       display="inline" /><path
       id="path42714"
       d="M 80.6,85.8 H 13.2 c -1.8,0 -3.6,-0.6 -5,-1.8 -0.4,-0.3 -0.5,-1 -0.1,-1.4 0.3,-0.4 1,-0.5 1.4,-0.1 1,0.9 2.4,1.3 3.7,1.3 h 67.4 c 3.2,0 5.8,-2.6 5.8,-5.8 V 24.4 c 0,-1.4 -0.5,-2.8 -1.5,-3.9 -0.4,-0.4 -0.3,-1 0.1,-1.4 0.4,-0.4 1,-0.3 1.4,0.1 1.3,1.4 2,3.3 2,5.2 v 53.7 c -0.1,4.2 -3.5,7.7 -7.8,7.7 z"
       display="inline" /><rect
       id="rect42716"
       height="2"
       width="70.900002"
       display="inline"
       y="26.299999"
       x="6.1999998" /><path
       id="path42718"
       d="m 44.7,41 h -5.6 c -0.7,0 -1.2,-0.6 -1.2,-1.2 v -5.6 c 0,-0.7 0.6,-1.2 1.2,-1.2 h 5.6 c 0.7,0 1.2,0.6 1.2,1.2 v 5.6 C 46,40.5 45.4,41 44.7,41 Z"
       display="inline" /><path
       id="path42720"
       d="M 55.3,41 H 49.7 C 49,41 48.5,40.4 48.5,39.8 v -5.6 c 0,-0.7 0.6,-1.2 1.2,-1.2 h 5.6 c 0.7,0 1.2,0.6 1.2,1.2 v 5.6 c 0,0.7 -0.5,1.2 -1.2,1.2 z"
       display="inline" /><path
       id="path42722"
       d="M 65.8,41 H 60.2 C 59.5,41 59,40.4 59,39.8 V 34.2 C 59,33.5 59.6,33 60.2,33 h 5.6 c 0.7,0 1.2,0.6 1.2,1.2 v 5.6 c 0.1,0.7 -0.5,1.2 -1.2,1.2 z"
       display="inline" /><path
       id="path42724"
       d="m 76.4,41 h -5.6 c -0.7,0 -1.2,-0.6 -1.2,-1.2 v -5.6 c 0,-0.7 0.6,-1.2 1.2,-1.2 h 5.6 c 0.7,0 1.2,0.6 1.2,1.2 v 5.6 c 0,0.7 -0.6,1.2 -1.2,1.2 z"
       display="inline" /><path
       id="path42726"
       d="M 13.1,52 H 7.5 C 6.8,52 6.3,51.4 6.3,50.8 V 45.2 C 6.3,44.5 6.9,44 7.5,44 h 5.6 c 0.7,0 1.2,0.6 1.2,1.2 v 5.6 c 0,0.7 -0.5,1.2 -1.2,1.2 z"
       display="inline" /><path
       id="path42728"
       d="M 23.6,52 H 18 c -0.7,0 -1.2,-0.6 -1.2,-1.2 V 45.2 C 16.8,44.5 17.4,44 18,44 h 5.6 c 0.7,0 1.2,0.6 1.2,1.2 v 5.6 c 0.1,0.7 -0.5,1.2 -1.2,1.2 z"
       display="inline" /><path
       id="path42730"
       d="m 34.2,52 h -5.6 c -0.7,0 -1.2,-0.6 -1.2,-1.2 V 45.2 C 27.4,44.5 28,44 28.6,44 h 5.6 c 0.7,0 1.2,0.6 1.2,1.2 v 5.6 c 0,0.7 -0.5,1.2 -1.2,1.2 z"
       display="inline" /><path
       id="path42732"
       d="m 44.7,52 h -5.6 c -0.7,0 -1.2,-0.6 -1.2,-1.2 v -5.6 c 0,-0.7 0.6,-1.2 1.2,-1.2 h 5.6 c 0.7,0 1.2,0.6 1.2,1.2 v 5.6 C 46,51.5 45.4,52 44.7,52 Z"
       display="inline" /><path
       id="path42734"
       d="M 55.3,52 H 49.7 C 49,52 48.5,51.4 48.5,50.8 v -5.6 c 0,-0.7 0.6,-1.2 1.2,-1.2 h 5.6 c 0.7,0 1.2,0.6 1.2,1.2 v 5.6 c 0,0.7 -0.5,1.2 -1.2,1.2 z"
       display="inline" /><path
       id="path42736"
       d="M 65.8,52 H 60.2 C 59.5,52 59,51.4 59,50.8 V 45.2 C 59,44.5 59.6,44 60.2,44 h 5.6 c 0.7,0 1.2,0.6 1.2,1.2 v 5.6 c 0.1,0.7 -0.5,1.2 -1.2,1.2 z"
       display="inline" /><path
       id="path42738"
       d="m 76.4,52 h -5.6 c -0.7,0 -1.2,-0.6 -1.2,-1.2 v -5.6 c 0,-0.7 0.6,-1.2 1.2,-1.2 h 5.6 c 0.7,0 1.2,0.6 1.2,1.2 v 5.6 c 0,0.7 -0.6,1.2 -1.2,1.2 z"
       display="inline" /><path
       id="path42740"
       d="M 13.1,63 H 7.5 C 6.8,63 6.3,62.4 6.3,61.8 V 56.2 C 6.3,55.5 6.9,55 7.5,55 h 5.6 c 0.7,0 1.2,0.6 1.2,1.2 v 5.6 c 0,0.6 -0.5,1.2 -1.2,1.2 z"
       display="inline" /><path
       id="path42742"
       d="M 23.6,63 H 18 c -0.7,0 -1.2,-0.6 -1.2,-1.2 V 56.2 C 16.8,55.5 17.4,55 18,55 h 5.6 c 0.7,0 1.2,0.6 1.2,1.2 v 5.6 c 0.1,0.6 -0.5,1.2 -1.2,1.2 z"
       display="inline" /><path
       id="path42744"
       d="m 34.2,63 h -5.6 c -0.7,0 -1.2,-0.6 -1.2,-1.2 V 56.2 C 27.4,55.5 28,55 28.6,55 h 5.6 c 0.7,0 1.2,0.6 1.2,1.2 v 5.6 c 0,0.6 -0.5,1.2 -1.2,1.2 z"
       display="inline" /><path
       id="path42746"
       d="m 44.7,63 h -5.6 c -0.7,0 -1.2,-0.6 -1.2,-1.2 v -5.6 c 0,-0.7 0.6,-1.2 1.2,-1.2 h 5.6 c 0.7,0 1.2,0.6 1.2,1.2 v 5.6 C 46,62.4 45.4,63 44.7,63 Z"
       display="inline" /><path
       id="path42748"
       d="M 55.3,63 H 49.7 C 49,63 48.5,62.4 48.5,61.8 v -5.6 c 0,-0.7 0.6,-1.2 1.2,-1.2 h 5.6 c 0.7,0 1.2,0.6 1.2,1.2 v 5.6 c 0,0.6 -0.5,1.2 -1.2,1.2 z"
       display="inline" /><path
       id="path42750"
       d="M 65.8,63 H 60.2 C 59.5,63 59,62.4 59,61.8 V 56.2 C 59,55.5 59.6,55 60.2,55 h 5.6 c 0.7,0 1.2,0.6 1.2,1.2 v 5.6 c 0.1,0.6 -0.5,1.2 -1.2,1.2 z"
       display="inline" /><path
       id="path42752"
       d="m 76.4,63 h -5.6 c -0.7,0 -1.2,-0.6 -1.2,-1.2 v -5.6 c 0,-0.7 0.6,-1.2 1.2,-1.2 h 5.6 c 0.7,0 1.2,0.6 1.2,1.2 v 5.6 c 0,0.6 -0.6,1.2 -1.2,1.2 z"
       display="inline" /><path
       id="path42754"
       d="M 13.1,73.9 H 7.5 c -0.7,0 -1.2,-0.6 -1.2,-1.2 v -5.6 c 0,-0.7 0.6,-1.2 1.2,-1.2 h 5.6 c 0.7,0 1.2,0.6 1.2,1.2 v 5.6 c 0,0.7 -0.5,1.2 -1.2,1.2 z"
       display="inline" /><path
       id="path42756"
       d="M 23.6,73.9 H 18 c -0.7,0 -1.2,-0.6 -1.2,-1.2 v -5.6 c 0,-0.7 0.6,-1.2 1.2,-1.2 h 5.6 c 0.7,0 1.2,0.6 1.2,1.2 v 5.6 c 0.1,0.7 -0.5,1.2 -1.2,1.2 z"
       display="inline" /><path
       id="path42758"
       d="m 34.2,73.9 h -5.6 c -0.7,0 -1.2,-0.6 -1.2,-1.2 v -5.6 c 0,-0.7 0.6,-1.2 1.2,-1.2 h 5.6 c 0.7,0 1.2,0.6 1.2,1.2 v 5.6 c 0,0.7 -0.5,1.2 -1.2,1.2 z"
       display="inline" /><path
       id="path42760"
       d="m 44.7,73.9 h -5.6 c -0.7,0 -1.2,-0.6 -1.2,-1.2 v -5.6 c 0,-0.7 0.6,-1.2 1.2,-1.2 h 5.6 c 0.7,0 1.2,0.6 1.2,1.2 v 5.6 c 0.1,0.7 -0.5,1.2 -1.2,1.2 z"
       display="inline" /><path
       id="path42762"
       d="m 55.3,73.9 h -5.6 c -0.7,0 -1.2,-0.6 -1.2,-1.2 v -5.6 c 0,-0.7 0.6,-1.2 1.2,-1.2 h 5.6 c 0.7,0 1.2,0.6 1.2,1.2 v 5.6 c 0,0.7 -0.5,1.2 -1.2,1.2 z"
       display="inline" /></g><g
     transform="translate(-3.6,-5.9)"
     id="g42824"
     display="none"><path
       id="path42766"
       d="m 20.7,17.9 v 0 c -2,0 -3.5,-1.6 -3.5,-3.5 V 6.5 c 0,-2 1.6,-3.5 3.5,-3.5 v 0 c 2,0 3.5,1.6 3.5,3.5 v 7.8 c 0,2 -1.5,3.6 -3.5,3.6 z"
       display="inline" /><path
       id="path42768"
       d="m 59.6,17.9 v 0 c -2,0 -3.5,-1.6 -3.5,-3.5 V 6.5 c 0,-2 1.6,-3.5 3.5,-3.5 v 0 c 2,0 3.5,1.6 3.5,3.5 v 7.8 c 0,2 -1.5,3.6 -3.5,3.6 z"
       display="inline" /><path
       id="path42770"
       d="m 72.1,12.3 c 2.5,0 4.6,2 4.6,4.6 v 50.8 c 0,2.5 -2,4.6 -4.6,4.6 H 8.3 c -2.5,0 -4.6,-2 -4.6,-4.6 V 16.8 c 0,-2.5 2,-4.6 4.6,-4.6 h 5.5 v 2.4 c 0,3.8 3.1,6.9 6.9,6.9 3.8,0 6.9,-3.1 6.9,-6.9 v -2.4 h 25.3 v 2.4 c 0,3.8 3.1,6.9 6.9,6.9 3.8,0 6.9,-3.1 6.9,-6.9 v -2.4 h 5.4 m 0,-1.8 h -7.4 v 4.3 c 0,2.8 -2.3,5 -5,5 -2.8,0 -5,-2.3 -5,-5 v -4.3 h -29 v 4.3 c 0,2.8 -2.3,5 -5,5 v 0 c -2.8,0 -5,-2.3 -5,-5 V 10.4 H 8.3 c -3.5,0 -6.4,2.9 -6.4,6.4 v 50.8 c 0,3.5 2.9,6.4 6.4,6.4 h 63.8 c 3.5,0 6.4,-2.9 6.4,-6.4 V 16.8 c 0,-3.5 -2.9,-6.4 -6.4,-6.4 z"
       display="inline" /><path
       id="path42772"
       d="M 76.9,79.7 H 13.1 C 11.4,79.7 9.7,79.1 8.4,78 8,77.7 8,77.1 8.3,76.7 c 0.3,-0.4 0.9,-0.4 1.3,-0.1 1,0.8 2.2,1.3 3.5,1.3 h 63.8 c 3,0 5.5,-2.5 5.5,-5.5 V 21.6 c 0,-1.4 -0.5,-2.7 -1.4,-3.7 -0.3,-0.4 -0.3,-1 0.1,-1.3 0.4,-0.3 1,-0.3 1.3,0.1 1.2,1.4 1.9,3.1 1.9,4.9 v 50.8 c -0.1,4.1 -3.4,7.3 -7.4,7.3 z"
       display="inline" /><path
       id="path42774"
       d="M 82,84.8 H 18.2 c -1.7,0 -3.4,-0.6 -4.7,-1.7 -0.4,-0.3 -0.4,-0.9 -0.1,-1.3 0.3,-0.4 0.9,-0.4 1.3,-0.1 1,0.8 2.2,1.3 3.5,1.3 H 82 c 3,0 5.5,-2.5 5.5,-5.5 V 26.7 C 87.5,25.3 87,24 86.1,23 c -0.3,-0.4 -0.3,-1 0.1,-1.3 0.4,-0.3 1,-0.3 1.3,0.1 1.2,1.4 1.9,3.1 1.9,4.9 v 50.8 c -0.1,4 -3.4,7.3 -7.4,7.3 z"
       display="inline" /><rect
       id="rect42776"
       height="1.9"
       width="67.099998"
       display="inline"
       y="23.5"
       x="6.5" /><path
       id="path42778"
       d="m 42.9,37.4 h -5.3 c -0.6,0 -1.2,-0.5 -1.2,-1.2 V 31 c 0,-0.6 0.5,-1.2 1.2,-1.2 h 5.3 c 0.6,0 1.2,0.5 1.2,1.2 v 5.3 c 0,0.6 -0.5,1.1 -1.2,1.1 z"
       display="inline" /><path
       id="path42780"
       d="m 52.9,37.4 h -5.3 c -0.6,0 -1.2,-0.5 -1.2,-1.2 V 31 c 0,-0.6 0.5,-1.2 1.2,-1.2 h 5.3 c 0.6,0 1.2,0.5 1.2,1.2 v 5.3 c 0,0.6 -0.5,1.1 -1.2,1.1 z"
       display="inline" /><path
       id="path42782"
       d="m 62.9,37.4 h -5.3 c -0.6,0 -1.2,-0.5 -1.2,-1.2 V 31 c 0,-0.6 0.5,-1.2 1.2,-1.2 h 5.3 c 0.6,0 1.2,0.5 1.2,1.2 v 5.3 c 0,0.6 -0.6,1.1 -1.2,1.1 z"
       display="inline" /><path
       id="path42784"
       d="m 72.9,37.4 h -5.3 c -0.6,0 -1.2,-0.5 -1.2,-1.2 V 31 c 0,-0.6 0.5,-1.2 1.2,-1.2 h 5.3 c 0.6,0 1.2,0.5 1.2,1.2 v 5.3 c 0,0.6 -0.6,1.1 -1.2,1.1 z"
       display="inline" /><path
       id="path42786"
       d="M 13,47.8 H 7.7 C 7.1,47.8 6.5,47.3 6.5,46.6 V 41.3 C 6.5,40.7 7,40.1 7.7,40.1 H 13 c 0.6,0 1.2,0.5 1.2,1.2 v 5.3 c 0,0.6 -0.5,1.2 -1.2,1.2 z"
       display="inline" /><path
       id="path42788"
       d="m 23,47.8 h -5.3 c -0.6,0 -1.2,-0.5 -1.2,-1.2 v -5.3 c 0,-0.6 0.5,-1.2 1.2,-1.2 H 23 c 0.6,0 1.2,0.5 1.2,1.2 v 5.3 c 0,0.6 -0.6,1.2 -1.2,1.2 z"
       display="inline" /><path
       id="path42790"
       d="m 33,47.8 h -5.3 c -0.6,0 -1.2,-0.5 -1.2,-1.2 v -5.3 c 0,-0.6 0.5,-1.2 1.2,-1.2 H 33 c 0.6,0 1.2,0.5 1.2,1.2 v 5.3 c -0.1,0.6 -0.6,1.2 -1.2,1.2 z"
       display="inline" /><path
       id="path42792"
       d="m 42.9,47.8 h -5.3 c -0.6,0 -1.2,-0.5 -1.2,-1.2 v -5.3 c 0,-0.6 0.5,-1.2 1.2,-1.2 h 5.3 c 0.6,0 1.2,0.5 1.2,1.2 v 5.3 c 0,0.6 -0.5,1.2 -1.2,1.2 z"
       display="inline" /><path
       id="path42794"
       d="m 52.9,47.8 h -5.3 c -0.6,0 -1.2,-0.5 -1.2,-1.2 v -5.3 c 0,-0.6 0.5,-1.2 1.2,-1.2 h 5.3 c 0.6,0 1.2,0.5 1.2,1.2 v 5.3 c 0,0.6 -0.5,1.2 -1.2,1.2 z"
       display="inline" /><path
       id="path42796"
       d="m 62.9,47.8 h -5.3 c -0.6,0 -1.2,-0.5 -1.2,-1.2 v -5.3 c 0,-0.6 0.5,-1.2 1.2,-1.2 h 5.3 c 0.6,0 1.2,0.5 1.2,1.2 v 5.3 c 0,0.6 -0.6,1.2 -1.2,1.2 z"
       display="inline" /><path
       id="path42798"
       d="m 72.9,47.8 h -5.3 c -0.6,0 -1.2,-0.5 -1.2,-1.2 v -5.3 c 0,-0.6 0.5,-1.2 1.2,-1.2 h 5.3 c 0.6,0 1.2,0.5 1.2,1.2 v 5.3 c 0,0.6 -0.6,1.2 -1.2,1.2 z"
       display="inline" /><path
       id="path42800"
       d="M 13,58.1 H 7.7 C 7.1,58.1 6.5,57.6 6.5,56.9 V 51.6 C 6.5,51 7,50.4 7.7,50.4 H 13 c 0.6,0 1.2,0.5 1.2,1.2 V 57 c 0,0.6 -0.5,1.1 -1.2,1.1 z"
       display="inline" /><path
       id="path42802"
       d="m 23,58.1 h -5.3 c -0.6,0 -1.2,-0.5 -1.2,-1.2 v -5.3 c 0,-0.6 0.5,-1.2 1.2,-1.2 H 23 c 0.6,0 1.2,0.5 1.2,1.2 V 57 c 0,0.6 -0.6,1.1 -1.2,1.1 z"
       display="inline" /><path
       id="path42804"
       d="m 33,58.1 h -5.3 c -0.6,0 -1.2,-0.5 -1.2,-1.2 v -5.3 c 0,-0.6 0.5,-1.2 1.2,-1.2 H 33 c 0.6,0 1.2,0.5 1.2,1.2 V 57 c -0.1,0.6 -0.6,1.1 -1.2,1.1 z"
       display="inline" /><path
       id="path42806"
       d="m 42.9,58.1 h -5.3 c -0.6,0 -1.2,-0.5 -1.2,-1.2 v -5.3 c 0,-0.6 0.5,-1.2 1.2,-1.2 h 5.3 c 0.6,0 1.2,0.5 1.2,1.2 V 57 c 0,0.6 -0.5,1.1 -1.2,1.1 z"
       display="inline" /><path
       id="path42808"
       d="m 52.9,58.1 h -5.3 c -0.6,0 -1.2,-0.5 -1.2,-1.2 v -5.3 c 0,-0.6 0.5,-1.2 1.2,-1.2 h 5.3 c 0.6,0 1.2,0.5 1.2,1.2 V 57 c 0,0.6 -0.5,1.1 -1.2,1.1 z"
       display="inline" /><path
       id="path42810"
       d="m 62.9,58.1 h -5.3 c -0.6,0 -1.2,-0.5 -1.2,-1.2 v -5.3 c 0,-0.6 0.5,-1.2 1.2,-1.2 h 5.3 c 0.6,0 1.2,0.5 1.2,1.2 V 57 c 0,0.6 -0.6,1.1 -1.2,1.1 z"
       display="inline" /><path
       id="path42812"
       d="m 72.9,58.1 h -5.3 c -0.6,0 -1.2,-0.5 -1.2,-1.2 v -5.3 c 0,-0.6 0.5,-1.2 1.2,-1.2 h 5.3 c 0.6,0 1.2,0.5 1.2,1.2 V 57 c 0,0.6 -0.6,1.1 -1.2,1.1 z"
       display="inline" /><path
       id="path42814"
       d="M 13,68.5 H 7.7 C 7.1,68.5 6.5,68 6.5,67.3 V 62 C 6.5,61.4 7,60.8 7.7,60.8 H 13 c 0.6,0 1.2,0.5 1.2,1.2 v 5.3 c 0,0.7 -0.5,1.2 -1.2,1.2 z"
       display="inline" /><path
       id="path42816"
       d="m 23,68.5 h -5.3 c -0.6,0 -1.2,-0.5 -1.2,-1.2 V 62 c 0,-0.6 0.5,-1.2 1.2,-1.2 H 23 c 0.6,0 1.2,0.5 1.2,1.2 v 5.3 c 0,0.7 -0.6,1.2 -1.2,1.2 z"
       display="inline" /><path
       id="path42818"
       d="m 33,68.5 h -5.3 c -0.6,0 -1.2,-0.5 -1.2,-1.2 V 62 c 0,-0.6 0.5,-1.2 1.2,-1.2 H 33 c 0.6,0 1.2,0.5 1.2,1.2 v 5.3 C 34.1,68 33.6,68.5 33,68.5 Z"
       display="inline" /><path
       id="path42820"
       d="M 42.9,68.5 H 37.6 C 37,68.5 36.4,68 36.4,67.3 V 62 c 0,-0.6 0.5,-1.2 1.2,-1.2 h 5.3 c 0.6,0 1.2,0.5 1.2,1.2 v 5.3 c 0,0.7 -0.5,1.2 -1.2,1.2 z"
       display="inline" /><path
       id="path42822"
       d="M 52.9,68.5 H 47.6 C 47,68.5 46.4,68 46.4,67.3 V 62 c 0,-0.6 0.5,-1.2 1.2,-1.2 h 5.3 c 0.6,0 1.2,0.5 1.2,1.2 v 5.3 c 0,0.7 -0.5,1.2 -1.2,1.2 z"
       display="inline" /></g></svg>
