<?xml version="1.0" encoding="UTF-8" standalone="no"?>
<svg
   xmlns:dc="http://purl.org/dc/elements/1.1/"
   xmlns:cc="http://creativecommons.org/ns#"
   xmlns:rdf="http://www.w3.org/1999/02/22-rdf-syntax-ns#"
   xmlns:svg="http://www.w3.org/2000/svg"
   xmlns="http://www.w3.org/2000/svg"
   xmlns:sodipodi="http://sodipodi.sourceforge.net/DTD/sodipodi-0.dtd"
   xmlns:inkscape="http://www.inkscape.org/namespaces/inkscape"
   inkscape:version="1.0 (4035a4f, 2020-05-01)"
   height="60.554001"
   width="61.002998"
   sodipodi:docname="noun_Tourism_2059539.svg"
   id="svg841"
   xml:space="preserve"
   viewBox="0 0 61.002998 60.554001"
   y="0px"
   x="0px"
   version="1.1"><metadata
     id="metadata847"><rdf:RDF><cc:Work
         rdf:about=""><dc:format>image/svg+xml</dc:format><dc:type
           rdf:resource="http://purl.org/dc/dcmitype/StillImage" /><dc:title></dc:title></cc:Work></rdf:RDF></metadata><defs
     id="defs845" /><sodipodi:namedview
     inkscape:current-layer="svg841"
     inkscape:window-maximized="1"
     inkscape:window-y="23"
     inkscape:window-x="0"
     inkscape:cy="38"
     inkscape:cx="30.258"
     inkscape:zoom="8.475"
     fit-margin-bottom="0"
     fit-margin-right="0"
     fit-margin-left="0"
     fit-margin-top="0"
     showgrid="false"
     id="namedview843"
     inkscape:window-height="1155"
     inkscape:window-width="1920"
     inkscape:pageshadow="2"
     inkscape:pageopacity="0"
     guidetolerance="10"
     gridtolerance="10"
     objecttolerance="10"
     borderopacity="1"
     bordercolor="#666666"
     pagecolor="#ffffff" /><path
     style="fill:#057afd;fill-opacity:1"
     id="path833"
     d="m 8.57,43.669 c -0.524,0.47 -1.033,0.957 -1.527,1.46 -0.144,0.146 -0.283,0.297 -0.425,0.446 -0.362,0.382 -0.716,0.773 -1.062,1.173 -0.15,0.174 -0.304,0.344 -0.451,0.52 -0.407,0.491 -0.8,0.997 -1.181,1.513 -0.173,0.234 -0.34,0.474 -0.508,0.713 C 3.148,49.876 2.889,50.266 2.635,50.661 2.501,50.87 2.362,51.075 2.232,51.288 2.226,51.3 2.219,51.31 2.212,51.322 2.209,51.326 2.209,51.332 2.207,51.336 1.382,52.694 0.639,54.116 0,55.606 l 1.838,0.788 c 0.222,-0.518 0.473,-1.018 0.72,-1.52 l 0.715,4.291 C 3.352,59.646 3.769,60 4.258,60 h 4 c 0.127,0 0.253,-0.024 0.372,-0.071 l 4.751,-1.901 6.735,0.962 c 0.459,0.068 0.899,-0.19 1.07,-0.618 l 1.878,-4.697 7.723,-4.827 c 0.25,-0.156 0.418,-0.415 0.46,-0.707 l 1,-7 C 32.32,40.634 31.997,40.154 31.5,40.029 l -3.845,-0.961 -2.361,-1.49 c 0.164,-0.031 0.328,-0.064 0.493,-0.092 0.528,-0.091 1.057,-0.167 1.589,-0.232 0.257,-0.031 0.515,-0.061 0.774,-0.086 0.525,-0.051 1.052,-0.087 1.579,-0.112 0.273,-0.013 0.547,-0.024 0.822,-0.03 0.546,-0.012 1.092,-0.01 1.639,0.005 0.202,0.006 0.404,0.011 0.606,0.021 0.014,10e-4 0.029,10e-4 0.043,0.002 0.558,0.027 1.116,0.074 1.673,0.13 0.215,0.022 0.43,0.039 0.644,0.066 0.553,0.067 1.103,0.157 1.653,0.253 0.217,0.038 0.437,0.068 0.653,0.111 0.57,0.112 1.135,0.25 1.7,0.393 0.724,0.185 1.44,0.393 2.147,0.627 0.31,0.103 0.618,0.211 0.925,0.323 0.407,0.149 0.812,0.302 1.213,0.467 0.308,0.127 0.611,0.264 0.914,0.401 0.111,0.05 0.221,0.103 0.332,0.154 l -3.709,1.06 c -0.286,0.082 -0.521,0.287 -0.641,0.559 -0.12,0.272 -0.112,0.584 0.021,0.85 l 0.678,1.355 -3.49,3.49 c -0.391,0.391 -0.391,1.023 0,1.414 l 4,4 c 0.212,0.212 0.503,0.321 0.806,0.288 0.298,-0.029 0.567,-0.191 0.733,-0.44 L 46.793,47 h 2.465 v 3.419 l -6.496,3.712 c -0.077,0.044 -0.148,0.098 -0.211,0.161 l -2,2 c -0.337,0.337 -0.39,0.865 -0.125,1.262 l 2,3 1.664,-1.109 -1.545,-2.318 1.326,-1.326 6.884,-3.934 C 51.066,51.69 51.258,51.359 51.258,51 v -5 c 0,-0.552 -0.448,-1 -1,-1 h -4 c -0.334,0 -0.646,0.167 -0.832,0.445 L 42.103,50.43 39.672,48 42.965,44.707 c 0.304,-0.304 0.38,-0.769 0.188,-1.154 l -0.461,-0.922 4.597,-1.313 c 0.039,0.023 0.08,0.042 0.119,0.065 0.153,0.09 0.298,0.19 0.45,0.282 0.486,0.296 0.97,0.597 1.442,0.919 0.431,0.295 0.851,0.603 1.266,0.917 0.111,0.084 0.226,0.16 0.336,0.245 3.397,2.643 6.239,5.949 8.346,9.739 l 0.004,-0.002 c 10e-4,0.002 0.002,0.003 0.003,0.005 l 1.748,-0.971 C 59.849,50.439 58.491,48.516 56.97,46.759 56.942,46.727 56.911,46.697 56.883,46.664 56.407,46.119 55.918,45.589 55.41,45.078 55.302,44.969 55.187,44.868 55.078,44.76 54.643,44.334 54.204,43.913 53.748,43.512 53.575,43.36 53.394,43.217 53.218,43.068 52.814,42.726 52.409,42.386 51.99,42.064 51.762,41.889 51.525,41.725 51.293,41.555 51.278,41.544 51.264,41.534 51.249,41.523 l 1.922,-4.614 2.99,-6.478 2.992,-5.984 c 0.122,-0.244 0.139,-0.528 0.047,-0.785 -0.092,-0.257 -0.286,-0.465 -0.535,-0.576 l -0.271,-0.12 1.759,-3.519 c 0.226,-0.451 0.08,-1 -0.34,-1.279 l -3,-2 -3,-2 c -0.239,-0.16 -0.536,-0.209 -0.812,-0.134 -0.277,0.073 -0.509,0.263 -0.638,0.519 l -2.345,4.691 -0.354,-0.157 c -0.491,-0.218 -1.062,-0.012 -1.301,0.466 l -3,6 -3,6 c -0.005,0.01 -0.004,0.02 -0.008,0.03 -0.004,0.009 -0.013,0.015 -0.016,0.023 l -1.691,3.947 -1.406,-7.731 C 39.155,27.346 38.741,27 38.258,27 H 37.012 L 35.219,20.725 C 35.097,20.296 34.704,20 34.258,20 H 34.105 L 32.244,8.835 C 32.239,8.803 32.221,8.777 32.212,8.746 32.832,8.406 33.258,7.756 33.258,7 V 5 c 0,-1.103 -0.897,-2 -2,-2 V 0 h -2 v 3 c -1.103,0 -2,0.897 -2,2 v 2 c 0,0.756 0.426,1.406 1.045,1.747 -0.008,0.031 -0.026,0.057 -0.032,0.089 L 26.411,20 h -0.153 c -0.446,0 -0.839,0.296 -0.961,0.725 L 23.504,27 h -1.246 c -0.483,0 -0.897,0.346 -0.984,0.821 l -1.441,7.924 -3.647,-9.117 -4,-10 c -0.005,-0.013 -0.017,-0.022 -0.023,-0.035 -0.042,-0.094 -0.099,-0.179 -0.168,-0.257 -0.016,-0.018 -0.03,-0.037 -0.047,-0.054 -0.01,-0.009 -0.016,-0.021 -0.026,-0.03 l -9,-8 C 2.639,8.001 2.239,7.931 1.886,8.071 1.534,8.212 1.292,8.539 1.261,8.917 l -1,12 c -0.001,0.013 0.002,0.026 0.002,0.039 -0.001,0.024 0.003,0.048 0.003,0.072 0.003,0.104 0.021,0.206 0.055,0.302 0.005,0.014 0.002,0.028 0.008,0.041 l 4,10 4.744,11.861 c -0.075,0.065 -0.15,0.129 -0.225,0.195 -0.092,0.081 -0.186,0.16 -0.278,0.242 z M 25.038,35.57 C 26.265,33.972 28.18,33 30.258,33 c 1.921,0 3.708,0.837 4.937,2.233 C 35.097,35.222 35,35.22 34.903,35.21 34.619,35.18 34.336,35.151 34.051,35.128 33.701,35.099 33.349,35.077 32.997,35.059 32.812,35.049 32.626,35.035 32.442,35.029 32.246,35.022 32.05,35.024 31.854,35.021 31.655,35.017 31.458,35 31.258,35 c -0.191,0 -0.379,0.018 -0.57,0.021 -0.088,0.002 -0.177,-0.002 -0.265,0 -0.348,0.008 -0.694,0.029 -1.041,0.048 -0.352,0.019 -0.704,0.038 -1.055,0.068 -0.158,0.014 -0.316,0.026 -0.474,0.042 -0.326,0.033 -0.651,0.078 -0.976,0.12 -0.29,0.037 -0.581,0.068 -0.87,0.113 -0.157,0.024 -0.313,0.057 -0.47,0.084 -0.165,0.028 -0.333,0.043 -0.499,0.074 z m 1.977,5.4 3.125,0.781 -0.807,5.647 -7.605,4.753 c -0.18,0.113 -0.32,0.28 -0.399,0.477 l -1.708,4.271 -6.222,-0.889 c -0.175,-0.025 -0.351,-0.004 -0.513,0.061 L 8.066,58 H 5.106 L 4.114,52.048 c 0.011,-0.017 0.022,-0.033 0.033,-0.05 0.308,-0.491 0.632,-0.97 0.964,-1.441 0.158,-0.224 0.319,-0.445 0.482,-0.664 0.312,-0.42 0.633,-0.832 0.964,-1.235 0.152,-0.185 0.308,-0.367 0.464,-0.549 0.347,-0.403 0.704,-0.798 1.07,-1.182 0.133,-0.14 0.266,-0.281 0.402,-0.418 0.464,-0.47 0.94,-0.928 1.431,-1.368 0.071,-0.063 0.144,-0.124 0.215,-0.186 0.326,-0.286 0.666,-0.556 1.003,-0.829 0.507,-0.41 1.026,-0.801 1.555,-1.178 0.172,-0.123 0.342,-0.249 0.517,-0.368 0.553,-0.378 1.12,-0.733 1.694,-1.075 0.152,-0.09 0.299,-0.187 0.452,-0.275 0.707,-0.405 1.428,-0.784 2.166,-1.134 0.055,-0.026 0.111,-0.052 0.167,-0.078 0.741,-0.347 1.496,-0.666 2.265,-0.956 0.405,-0.153 0.819,-0.286 1.231,-0.422 0.456,-0.151 0.916,-0.289 1.378,-0.419 l 4.159,2.625 c 0.088,0.056 0.186,0.098 0.289,0.124 z m 15.261,-4.141 1.483,-3.46 7.216,3.608 -1.407,3.378 c -0.215,-0.138 -0.437,-0.26 -0.654,-0.392 -0.219,-0.133 -0.438,-0.267 -0.66,-0.396 -0.088,-0.051 -0.173,-0.106 -0.261,-0.156 -0.025,-0.014 -0.048,-0.031 -0.073,-0.045 -0.001,0 -0.002,0 -0.003,-10e-4 -0.346,-0.195 -0.699,-0.373 -1.051,-0.555 -0.152,-0.079 -0.302,-0.161 -0.456,-0.238 -0.585,-0.292 -1.178,-0.566 -1.778,-0.824 -0.05,-0.022 -0.1,-0.046 -0.15,-0.067 -0.726,-0.307 -1.459,-0.596 -2.206,-0.852 z m 14.288,-14.676 -1.443,-0.641 1.525,-3.051 1.323,0.882 z m -2.918,-5.693 1.323,0.882 -1.678,3.356 -1.443,-0.641 z m -4.106,5.213 c 0.052,0.055 0.098,0.115 0.164,0.159 l 3,2 3,2 c 0.134,0.09 0.288,0.134 0.445,0.152 l -1.357,2.714 -2.39,-1.062 -4.78,-2.125 z m -2.815,5.629 1.2,0.533 6,2.667 -2.143,4.642 -7.183,-3.591 z M 29.258,5 h 2 l 0.001,2 h -2.001 z m 0.847,5 h 0.306 l 1.667,10 h -3.639 z m -3.093,12 h 0.246 6 0.246 l 1.429,5 h -9.349 z m -3.92,7 h 1.166 12 1.166 l 1.239,6.816 C 38.561,35.793 38.457,35.779 38.355,35.758 38.19,35.723 38.025,35.687 37.859,35.654 36.392,32.817 33.478,31 30.258,31 c -3.429,0 -6.517,2.033 -7.877,5.179 -0.14,0.038 -0.277,0.083 -0.416,0.122 -0.07,0.02 -0.14,0.034 -0.21,0.054 z m -4.853,8.592 c -0.398,0.164 -0.791,0.337 -1.181,0.516 -0.133,0.061 -0.267,0.12 -0.4,0.183 -0.668,0.317 -1.325,0.654 -1.969,1.012 -0.07,0.039 -0.137,0.08 -0.207,0.119 -0.016,0.009 -0.032,0.019 -0.049,0.028 -0.027,0.015 -0.053,0.031 -0.079,0.046 -0.571,0.326 -1.131,0.669 -1.681,1.027 -0.069,0.045 -0.14,0.089 -0.209,0.134 -0.602,0.399 -1.191,0.815 -1.766,1.252 l -4.14,-10.352 8.143,-3.257 3.69,9.224 c -0.052,0.021 -0.101,0.047 -0.152,0.068 z M 2.558,21.557 10.701,18.3 13.958,26.442 5.815,29.7 Z M 3.089,11.076 9.385,16.672 2.389,19.47 Z" /><path
     style="fill:#057afd;fill-opacity:1"
     id="path835"
     d="m 8.258,21 c -1.654,0 -3,1.346 -3,3 0,1.654 1.346,3 3,3 1.654,0 3,-1.346 3,-3 0,-1.654 -1.346,-3 -3,-3 z m 0,4 c -0.551,0 -1,-0.449 -1,-1 0,-0.551 0.449,-1 1,-1 0.551,0 1,0.449 1,1 0,0.551 -0.449,1 -1,1 z" /></svg>
